<svg width="142" height="160" viewBox="0 0 142 160" fill="none" xmlns="http://www.w3.org/2000/svg">
<g clip-path="url(#clip0_5432_35093)">
<path d="M120.689 27.5663H8.03132C7.78974 27.5611 7.59808 27.3606 7.60325 27.1185C7.60826 26.8837 7.79701 26.6945 8.03132 26.6895H120.689C120.931 26.6946 121.123 26.8951 121.118 27.1373C121.113 27.3721 120.924 27.5613 120.689 27.5663Z" fill="#CACACA"/>
<path d="M82.2958 42.3418H51.1527C48.8135 42.3418 46.9172 44.2425 46.9172 46.5871V46.5871C46.9172 48.9317 48.8135 50.8324 51.1527 50.8324H82.2958C84.635 50.8324 86.5314 48.9317 86.5314 46.5871C86.5314 44.2425 84.635 42.3418 82.2958 42.3418Z" fill="white"/>
<path d="M31.0341 59.3223H102.415C104.754 59.3223 106.65 61.2229 106.65 63.5676C106.65 65.9122 104.754 67.8128 102.415 67.8128H31.0341C28.6949 67.8128 26.7986 65.9122 26.7986 63.5676C26.7986 61.2229 28.6949 59.3223 31.0341 59.3223Z" fill="white"/>
<path d="M31.0341 76.3047H102.415C104.754 76.3047 106.65 78.2054 106.65 80.55C106.65 82.8946 104.754 84.7953 102.415 84.7953H31.0341C28.6949 84.7953 26.7986 82.8946 26.7986 80.55C26.7986 78.2054 28.6949 76.3047 31.0341 76.3047Z" fill="white"/>
<path d="M22.1883 159.626L22.0203 159.61C16.3206 159.021 11.168 155.948 7.93155 151.209C7.04504 149.888 6.32797 148.461 5.79723 146.961L5.74622 146.818L5.89724 146.805C7.70033 146.66 9.55265 146.353 10.3755 146.207L5.06945 144.405L5.03665 144.248C4.72207 142.766 5.33836 141.242 6.59313 140.398C7.85131 139.514 9.51975 139.486 10.8071 140.327C11.3848 140.697 11.989 141.063 12.5733 141.417C14.5813 142.635 16.6576 143.893 18.2144 145.616C20.575 148.28 21.6097 151.87 21.0303 155.385L22.1883 159.626Z" fill="#F2F2F2"/>
<path d="M41.4757 156.982L44.0906 156.982L45.3349 146.871L41.475 146.871L41.4757 156.982Z" fill="#A0616A"/>
<path d="M41.3834 159.716L49.4254 159.716V159.614C49.4253 157.881 48.0239 156.476 46.2952 156.476L44.8261 155.359L42.0853 156.477L41.3833 156.477L41.3834 159.716Z" fill="#2F2E41"/>
<path d="M20.5178 149.722L22.6095 151.295L29.6585 143.956L26.5709 141.635L20.5178 149.722Z" fill="#A0616A"/>
<path d="M18.8068 151.853L25.2397 156.69L25.3008 156.609C26.3381 155.223 26.0581 153.256 24.6754 152.216L24.169 150.439L21.3078 149.684L20.7462 149.262L18.8068 151.853Z" fill="#2F2E41"/>
<path d="M29.2108 109.536C29.2108 109.536 29.3552 113.483 29.5373 116.649C29.5672 117.168 28.3537 117.732 28.3852 118.297C28.406 118.671 28.6341 119.035 28.6553 119.426C28.6776 119.838 28.3627 120.203 28.3852 120.63C28.4071 121.046 28.7663 121.524 28.788 121.951C29.0212 126.54 29.8666 132.033 29.02 133.569C28.6029 134.326 23.2853 144.811 23.2853 144.811C23.2853 144.811 26.2481 149.265 27.0946 147.781C28.2126 145.82 36.8294 136.645 36.8294 134.892C36.8294 133.143 38.8229 120.027 38.8229 120.027L40.2129 127.789L40.8503 129.327L40.65 130.229L41.0619 131.448L41.0842 132.653L41.4852 134.892C41.4852 134.892 40.2789 152.337 40.9583 152.823C41.6397 153.31 44.939 154.187 45.3283 153.31C45.7156 152.434 48.2364 135.105 48.2364 135.105C48.2364 135.105 48.6427 127.163 49.0829 119.781C49.1083 119.353 49.4089 118.835 49.4321 118.413C49.4596 117.923 49.2692 117.287 49.2946 116.812C49.3221 116.267 49.5633 115.883 49.5866 115.361C49.7665 111.329 48.7567 106.418 48.435 105.935C47.4636 104.475 46.5896 103.309 46.5896 103.309C46.5896 103.309 33.5064 99 30.0103 103.378L29.2108 109.536Z" fill="#2F2E41"/>
<path d="M42.2597 68.9479L37.0732 67.9082L34.6528 71.2006C30.1366 75.6515 30.0685 79.5798 30.8748 85.8765V94.7139L30.2913 100.638C30.2913 100.638 28.2256 104.969 30.3561 105.977C32.4867 106.986 46.4812 106.9 47.8173 106.497C49.1534 106.095 47.9953 105.6 47.6444 103.725C46.9853 100.201 47.4262 101.901 47.4716 100.779C48.1219 84.6856 46.6071 78.0788 46.4533 76.3422L43.8156 71.5471L42.2597 68.9479Z" fill="#3F3D56"/>
<path d="M69.5956 81.9221C69.0551 82.9486 67.7866 83.3416 66.7624 82.7998C66.6532 82.7421 66.5493 82.6748 66.4519 82.5987L55.2512 89.727L55.2835 85.8459L66.1641 79.5171C66.9392 78.6462 68.2719 78.5699 69.1408 79.3467C69.8679 79.9967 70.0559 81.0614 69.5956 81.9221Z" fill="#A0616A"/>
<path d="M38.1647 73.4406L36.8895 73.3052C35.7112 73.1827 34.5552 73.6885 33.8437 74.6378C33.5712 74.9978 33.3755 75.4101 33.2687 75.8491L33.2679 75.8527C32.9481 77.1741 33.4497 78.5591 34.541 79.367L38.9453 82.6216C42.0361 86.8076 47.8449 89.5848 54.6587 91.8411L65.2498 85.2482L61.5037 80.7007L54.2392 84.603L43.4409 76.2247L43.4347 76.2196L39.3248 73.5657L38.1647 73.4406Z" fill="#3F3D56"/>
<path d="M40.5072 66.3938C43.8475 66.3938 46.5554 63.6797 46.5554 60.3317C46.5554 56.9837 43.8475 54.2695 40.5072 54.2695C37.1668 54.2695 34.459 56.9837 34.459 60.3317C34.459 63.6797 37.1668 66.3938 40.5072 66.3938Z" fill="#A0616A"/>
<path d="M40.6469 66.3965C40.5982 66.3981 40.5493 66.3992 40.5005 66.4005C40.4796 66.4548 40.457 66.5087 40.431 66.5615L40.6469 66.3965Z" fill="#2F2E41"/>
<path d="M42.3068 60.5C42.3162 60.5597 42.3308 60.6185 42.3501 60.6758C42.3421 60.6158 42.3276 60.5568 42.3068 60.5Z" fill="#2F2E41"/>
<path d="M46.6326 54.5293C46.3836 55.3042 46.1614 54.3213 45.3425 54.4981C44.3573 54.7108 43.2109 54.6377 42.4041 54.0325C41.202 53.1484 39.6442 52.9105 38.234 53.3954C36.8535 53.8849 34.5407 54.2301 34.181 55.6528C34.056 56.1473 34.0064 56.684 33.7033 57.0939C33.4383 57.4522 33.0201 57.6565 32.6704 57.9323C31.4895 58.8636 32.392 61.5094 32.9509 62.9074C33.5099 64.3055 34.7919 65.3239 36.2015 65.8455C37.5653 66.3503 39.0456 66.4393 40.5005 66.3996C40.7535 65.7418 40.6442 64.982 40.4354 64.3001C40.2094 63.5619 39.8747 62.8494 39.7802 62.083C39.6858 61.3165 39.8932 60.446 40.5343 60.0178C41.1236 59.6242 42.0826 59.8639 42.3068 60.5003C42.176 59.7047 42.9801 58.9348 43.8092 58.7994C44.6994 58.654 45.5895 58.9762 46.4771 59.1365C47.3647 59.2968 47.0497 55.5513 46.6326 54.5293Z" fill="#2F2E41"/>
<path d="M80.4586 70.3606C81.0224 63.5323 75.9568 57.5388 69.1443 56.9736C62.3318 56.4085 56.352 61.4858 55.7882 68.3141C55.2244 75.1423 60.29 81.1359 67.1025 81.701C73.915 82.2661 79.8947 77.1888 80.4586 70.3606Z" fill="#0B5E22"/>
<path d="M71.3747 64.1671L68.1234 67.4259L64.8721 64.1671C64.3458 63.6396 63.4924 63.6396 62.9661 64.1671C62.4398 64.6947 62.4398 65.5499 62.9661 66.0775L66.2174 69.3363L62.9661 72.5951C62.4403 73.1231 62.4411 73.9784 62.9679 74.5054C63.494 75.0318 64.346 75.0318 64.8721 74.5054L68.1234 71.2466L71.3747 74.5054C71.9015 75.0325 72.7548 75.0317 73.2806 74.5036C73.8057 73.9763 73.8057 73.1224 73.2806 72.5951L70.0293 69.3363L73.2806 66.0775C73.8069 65.5499 73.8069 64.6947 73.2806 64.1671C72.7543 63.6396 71.901 63.6396 71.3747 64.1671Z" fill="white"/>
<path d="M63.2459 58.9096C63.6107 60.0113 63.0155 61.2008 61.9164 61.5665C61.7992 61.6055 61.6788 61.634 61.5566 61.6518L58.9343 74.6879L56.1625 71.9777L59.1388 59.7266C59.0483 58.5631 59.916 57.5463 61.0769 57.4557C62.0482 57.3798 62.9449 57.9809 63.2459 58.9096Z" fill="#A0616A"/>
<path d="M35.3802 75.7723L34.3999 76.6009C33.496 77.3683 33.0598 78.5545 33.2507 79.7263C33.3212 80.1727 33.4826 80.5997 33.7247 80.9809L33.7267 80.9839C34.4567 82.1301 35.801 82.726 37.1382 82.4961L42.5305 81.5637C47.6839 82.2263 53.7048 79.9476 60.0464 76.5813L62.6322 64.3568L56.7648 63.918L54.545 71.8738L41.0374 73.8835L41.0294 73.8845L36.2734 75.0197L35.3802 75.7723Z" fill="#3F3D56"/>
<path d="M66.0843 159.926L0.28736 160C0.128143 160 -0.000514177 159.87 1.54505e-06 159.71C0.000512425 159.551 0.128867 159.423 0.28736 159.422L66.0843 159.348C66.2435 159.348 66.3722 159.478 66.3717 159.638C66.3712 159.796 66.2428 159.925 66.0843 159.926Z" fill="#CACACA"/>
<path d="M13.747 22.0124C14.8778 22.0124 15.7945 21.0731 15.7945 19.9144C15.7945 18.7557 14.8778 17.8164 13.747 17.8164C12.6162 17.8164 11.6995 18.7557 11.6995 19.9144C11.6995 21.0731 12.6162 22.0124 13.747 22.0124Z" fill="#3F3D56"/>
<path d="M20.8204 22.0124C21.9512 22.0124 22.8679 21.0731 22.8679 19.9144C22.8679 18.7557 21.9512 17.8164 20.8204 17.8164C19.6895 17.8164 18.7728 18.7557 18.7728 19.9144C18.7728 21.0731 19.6895 22.0124 20.8204 22.0124Z" fill="#3F3D56"/>
<path d="M27.8936 22.0124C29.0244 22.0124 29.9411 21.0731 29.9411 19.9144C29.9411 18.7557 29.0244 17.8164 27.8936 17.8164C26.7628 17.8164 25.8461 18.7557 25.8461 19.9144C25.8461 21.0731 26.7628 22.0124 27.8936 22.0124Z" fill="#3F3D56"/>
<path d="M35.9592 21.5721C35.8963 21.5721 35.8335 21.5477 35.7861 21.4991L34.4045 20.0836C34.3124 19.9892 34.3124 19.8385 34.4045 19.7442L35.7861 18.3287C35.8798 18.233 36.0333 18.2314 36.1285 18.3249C36.2241 18.4187 36.2258 18.5724 36.1322 18.6681L34.9163 19.9139L36.1322 21.1598C36.2258 21.2555 36.2241 21.4092 36.1285 21.5029C36.0814 21.5491 36.0203 21.5721 35.9592 21.5721Z" fill="#3F3D56"/>
<path d="M38.2807 21.5723C38.2196 21.5723 38.1585 21.5493 38.1114 21.5031C38.0158 21.4094 38.0141 21.2558 38.1076 21.1599L39.3235 19.9141L38.1076 18.6683C38.0141 18.5725 38.0158 18.4189 38.1114 18.3251C38.2068 18.2313 38.3603 18.2331 38.4538 18.3289L39.8352 19.7444C39.9273 19.8387 39.9273 19.9894 39.8352 20.0837L38.4538 21.4993C38.4064 21.5479 38.3436 21.5723 38.2807 21.5723Z" fill="#3F3D56"/>
<path d="M110.557 18.0586H107.988C107.695 18.0586 107.458 18.2964 107.458 18.5901V21.1674C107.458 21.461 107.695 21.6988 107.988 21.6988H110.557C110.85 21.6988 111.089 21.461 111.089 21.1674V18.5901C111.089 18.2964 110.85 18.0586 110.557 18.0586Z" fill="#3F3D56"/>
<path d="M104.262 18.0586H101.693C101.4 18.0586 101.162 18.2964 101.162 18.5901V21.1674C101.162 21.461 101.4 21.6988 101.693 21.6988H104.262C104.555 21.6988 104.794 21.461 104.794 21.1674V18.5901C104.794 18.2964 104.555 18.0586 104.262 18.0586Z" fill="#3F3D56"/>
<path d="M116.489 18.1797H113.92C113.627 18.1797 113.39 18.4175 113.39 18.7112V21.2884C113.39 21.5821 113.627 21.8199 113.92 21.8199H116.489C116.782 21.8199 117.021 21.5821 117.021 21.2884V18.7112C117.021 18.4175 116.782 18.1797 116.489 18.1797Z" fill="#3F3D56"/>
<path d="M77.7681 19.1602H57.2336C56.8753 19.1602 56.5872 19.4514 56.5872 19.8081C56.5872 20.1649 56.8753 20.4561 57.2336 20.4561H77.7681C78.124 20.4561 78.4146 20.1649 78.4146 19.8081C78.4146 19.4514 78.124 19.1602 77.7681 19.1602Z" fill="#3F3D56"/>
</g>
<defs>
<clipPath id="clip0_5432_35093">
<rect width="142" height="160" fill="white"/>
</clipPath>
</defs>
</svg>
