<svg width="178" height="121" viewBox="0 0 178 121" fill="none" xmlns="http://www.w3.org/2000/svg">
<path d="M38.5006 70.6064C30.2251 62.2689 26.73 53.5709 28.6587 46.1147C31.1338 36.5463 42.1297 29.9306 58.8268 27.9639L58.8885 28.5127C42.4238 30.4519 31.5957 36.9192 29.1805 46.2561C27.3034 53.5124 30.7479 62.0204 38.8793 70.2129L38.5006 70.6064Z" fill="#086B39"/>
<path d="M118.341 100.201C108.012 100.201 96.7889 98.6306 85.6407 95.6102C71.8545 91.8749 59.2141 86.237 49.0859 79.3057L49.3858 78.8467C59.4652 85.7444 72.0497 91.3565 85.7788 95.0761C98.1857 98.4378 110.686 99.9954 121.923 99.5843L121.942 100.136C120.755 100.18 119.555 100.202 118.341 100.201Z" fill="#0B5E22"/>
<path d="M142.036 96.7281L141.863 96.2048C151.101 93.0085 156.878 87.8596 158.571 81.3142C160.724 72.9935 156.048 63.3378 145.405 54.1259C134.708 44.8671 119.282 37.1847 101.969 32.494L102.107 31.96C119.496 36.6713 134.996 44.3935 145.753 53.7042C156.564 63.0615 161.302 72.9172 159.093 81.4555C157.351 88.1886 151.453 93.4697 142.036 96.7281Z" fill="#086B39"/>
<path d="M57.2141 100.433C36.9196 91.2213 21.2811 79.2703 13.1797 66.7812L13.6293 66.4756C21.6747 78.8782 37.2311 90.7585 57.4328 99.9281L57.2141 100.433Z" fill="#086B39"/>
<path d="M116.799 28.4587C113.445 27.341 109.995 26.3003 106.544 25.3655C86.6896 19.9861 67.1721 18.0762 50.1012 19.8432L50.0469 19.2935C67.1815 17.5207 86.7657 19.4352 106.682 24.8315C110.142 25.769 113.602 26.8126 116.966 27.9336L116.799 28.4587Z" fill="#086B39"/>
<path d="M25.8131 71.4345C17.5376 63.0971 14.0425 54.399 15.9712 46.9429C18.4463 37.3745 29.4422 30.7587 46.1393 28.792L46.2009 29.3409C29.7363 31.2801 18.9082 37.7473 16.493 47.0842C14.6159 54.3405 18.0604 62.8485 26.1918 71.041L25.8131 71.4345Z" fill="#086B39"/>
<path d="M105.661 101.031C95.3328 101.031 84.1092 99.4597 72.961 96.4393C59.1749 92.704 46.5344 87.0661 36.4062 80.1348L36.7062 79.6758C46.7856 86.5735 59.37 92.1856 73.0991 95.9052C85.506 99.2669 98.0059 100.824 109.243 100.413L109.262 100.965C108.076 101.009 106.875 101.031 105.661 101.031Z" fill="#086B39"/>
<path d="M129.357 97.5562L129.184 97.0329C138.421 93.8366 144.198 88.6877 145.892 82.1423C148.044 73.8216 143.368 64.166 132.725 54.954C122.028 45.6952 106.602 38.0128 89.2891 33.3221L89.4272 32.7881C106.816 37.4994 122.317 45.2216 133.073 54.5323C143.885 63.8897 148.622 73.7453 146.414 82.2837C144.672 89.0167 138.774 94.2978 129.357 97.5562Z" fill="#086B39"/>
<path d="M44.5344 101.261C24.2399 92.0494 8.60141 80.0984 0.5 67.6093L0.949599 67.3037C8.99501 79.7064 24.5514 91.5866 44.7531 100.756L44.5344 101.261Z" fill="#086B39"/>
<path d="M104.112 29.2878C100.757 28.1701 97.3071 27.1294 93.8569 26.1946C74.0021 20.8152 54.4846 18.9053 37.4137 20.6723L37.3594 20.1226C54.494 18.3498 74.0782 20.2643 93.995 25.6606C97.455 26.5981 100.915 27.6417 104.279 28.7627L104.112 29.2878Z" fill="#086B39"/>
<path d="M119.159 111.938C120.351 111.938 121.318 110.949 121.318 109.729C121.318 108.509 120.351 107.52 119.159 107.52C117.967 107.52 117 108.509 117 109.729C117 110.949 117.967 111.938 119.159 111.938Z" fill="#0B5E22"/>
<path d="M126.807 74.3066C128 74.3066 128.966 73.3174 128.966 72.0972C128.966 70.8769 128 69.8877 126.807 69.8877C125.615 69.8877 124.648 70.8769 124.648 72.0972C124.648 73.3174 125.615 74.3066 126.807 74.3066Z" fill="#0B5E22"/>
<path d="M86.6355 13.0195C87.8278 13.0195 88.7944 12.0303 88.7944 10.8101C88.7944 9.5898 87.8278 8.60059 86.6355 8.60059C85.4431 8.60059 84.4766 9.5898 84.4766 10.8101C84.4766 12.0303 85.4431 13.0195 86.6355 13.0195Z" fill="#0B5E22"/>
<path d="M41.3985 95.5654C41.3985 96.1279 41.4166 96.6903 41.455 97.2481C41.4957 97.9147 41.5658 98.5767 41.6608 99.234C41.98 101.447 42.5901 103.606 43.4746 105.652C43.5198 105.754 43.565 105.856 43.6103 105.958L43.6781 106.111C43.7007 106.161 43.7256 106.212 43.7482 106.261C43.7799 106.328 43.8093 106.393 43.841 106.458C43.8794 106.539 43.9178 106.62 43.9586 106.701C43.9631 106.71 43.9676 106.722 43.9744 106.733C44.0083 106.803 44.04 106.87 44.0762 106.939C44.0828 106.954 44.0904 106.969 44.0988 106.983C44.1372 107.062 44.1779 107.143 44.2186 107.222C44.2639 107.305 44.3068 107.39 44.3521 107.474C44.4606 107.68 44.5737 107.883 44.689 108.087C44.723 108.147 44.7569 108.208 44.7931 108.268C44.8247 108.323 44.8564 108.379 44.8903 108.434C44.9129 108.471 44.9356 108.511 44.9582 108.548C44.9944 108.61 45.0305 108.67 45.069 108.733C45.1527 108.869 45.2386 109.006 45.3223 109.143H45.3245C45.363 109.205 45.4037 109.268 45.4444 109.328V109.33C45.5643 109.515 45.6887 109.7 45.813 109.883L45.8139 109.883L45.8147 109.884L45.8152 109.885L45.8153 109.886C45.9148 110.034 46.0188 110.177 46.1206 110.321V110.323C46.1885 110.413 46.2541 110.506 46.3219 110.596C46.3762 110.67 46.4327 110.747 46.4893 110.821C46.5006 110.837 46.5141 110.851 46.5254 110.867V110.869C46.5413 110.89 46.5571 110.909 46.5729 110.929C46.8127 111.244 47.0599 111.552 47.3147 111.853L47.3554 111.902C47.369 111.918 47.3848 111.934 47.3984 111.952C47.421 111.978 47.4414 112.003 47.464 112.029C47.4843 112.054 47.507 112.08 47.5296 112.105C48.8578 113.636 50.3639 114.996 52.0143 116.153C52.2337 116.308 52.4575 116.459 52.6814 116.605C52.738 116.642 52.7945 116.679 52.8511 116.713C52.8669 116.725 52.885 116.737 52.9008 116.748C52.9325 116.767 52.9619 116.785 52.9935 116.806C53.0229 116.825 53.0523 116.843 53.084 116.862C53.2039 116.938 53.326 117.012 53.4481 117.086C53.4775 117.105 53.5092 117.123 53.5408 117.142C53.5702 117.158 53.6019 117.176 53.6336 117.195C53.6336 117.197 53.6336 117.197 53.6358 117.197H53.6381V117.2H53.6403C53.7919 117.29 53.9457 117.378 54.1017 117.463C54.1854 117.51 54.2713 117.558 54.3573 117.602C54.5518 117.711 54.7485 117.815 54.9453 117.915C55.0154 117.949 55.0878 117.984 55.1579 118.021C55.2167 118.049 55.2755 118.079 55.3343 118.107C55.3524 118.116 55.3682 118.123 55.384 118.132C55.4338 118.155 55.4813 118.179 55.531 118.202C55.5853 118.227 55.6396 118.253 55.6916 118.278C55.7527 118.306 55.8115 118.334 55.8725 118.359C56.0987 118.463 56.3271 118.563 56.5555 118.658C57.3741 119.001 58.2107 119.298 59.0613 119.546C59.0998 119.558 59.1405 119.57 59.1812 119.581C59.5453 119.685 59.9117 119.78 60.2803 119.866C60.9249 120.019 61.5755 120.144 62.2321 120.241H62.2366C62.3158 120.252 62.3927 120.264 62.4718 120.276C62.4786 120.276 62.4854 120.278 62.4944 120.278C62.4944 120.28 62.4944 120.28 62.4967 120.278C62.5826 120.289 62.6708 120.301 62.7568 120.313C62.7626 120.314 62.7687 120.315 62.7749 120.315C62.8563 120.326 62.94 120.336 63.0214 120.345C63.1096 120.354 63.1978 120.363 63.286 120.373C63.3538 120.38 63.4217 120.387 63.4895 120.394C63.4953 120.396 63.5015 120.396 63.5076 120.396C63.5687 120.401 63.6297 120.407 63.6908 120.412H63.6998C63.7519 120.417 63.8061 120.421 63.8581 120.426C64.4891 120.477 65.1224 120.5 65.7647 120.5C66.459 120.5 67.1487 120.472 67.8295 120.412H67.8363C67.9833 120.398 68.128 120.384 68.2727 120.37C68.3112 120.366 68.3474 120.363 68.3858 120.359C68.3926 120.359 68.4017 120.357 68.4084 120.357C68.4197 120.354 68.431 120.354 68.4446 120.352C68.4507 120.352 68.4568 120.351 68.4627 120.35C68.5125 120.345 68.5622 120.338 68.6142 120.333L68.7839 120.313C68.8404 120.306 68.8969 120.296 68.9535 120.289C68.967 120.287 68.9784 120.287 68.9919 120.285C69.0326 120.28 69.0733 120.273 69.114 120.266C69.1344 120.264 69.1548 120.262 69.1728 120.259C69.2136 120.252 69.252 120.248 69.2927 120.241H69.295C70.536 120.058 71.761 119.776 72.9587 119.396C73.022 119.375 73.0854 119.357 73.1487 119.336C73.151 119.336 73.1532 119.334 73.1555 119.334C73.1736 119.327 73.1939 119.322 73.212 119.315C73.3816 119.259 73.549 119.202 73.7164 119.141C73.947 119.063 74.1754 118.977 74.4039 118.889C74.4649 118.864 74.526 118.841 74.587 118.815C74.7114 118.766 74.8336 118.716 74.9557 118.665C75.1637 118.579 75.3718 118.489 75.5776 118.396C75.7699 118.308 75.9598 118.22 76.1498 118.128C76.1543 118.125 76.1611 118.125 76.1656 118.121C76.2086 118.1 76.2516 118.079 76.2923 118.058H76.2945C77.336 117.547 78.3405 116.96 79.3002 116.301C79.6077 116.091 79.9108 115.873 80.2093 115.649C80.449 115.466 80.6842 115.281 80.9195 115.091C82.0798 114.146 83.1539 113.096 84.1286 111.952V111.95C84.1987 111.871 84.2643 111.79 84.3322 111.709C84.3435 111.698 84.3525 111.686 84.3616 111.677C84.4045 111.624 84.4453 111.573 84.4882 111.522V111.52C84.5448 111.452 84.6013 111.383 84.6556 111.314C84.6691 111.297 84.6804 111.284 84.6918 111.27V111.267C84.737 111.212 84.7799 111.156 84.8252 111.098C84.8478 111.071 84.8682 111.043 84.8908 111.015V111.013C85.0242 110.841 85.1531 110.67 85.282 110.494C85.3159 110.448 85.3499 110.399 85.3861 110.351C85.5489 110.126 85.7072 109.897 85.861 109.668V109.666C85.9198 109.58 85.9763 109.492 86.0351 109.406C86.0917 109.318 86.1482 109.231 86.2047 109.143C86.2613 109.05 86.3201 108.96 86.3766 108.867L86.3834 108.853C86.44 108.765 86.4965 108.673 86.5508 108.582C86.5937 108.508 86.6367 108.437 86.6797 108.365C86.7068 108.316 86.7362 108.268 86.7634 108.217C86.774 108.201 86.7838 108.185 86.7928 108.168C86.8561 108.055 86.9194 107.941 86.9827 107.828C87.0574 107.696 87.1297 107.562 87.2021 107.428C87.2292 107.372 87.2586 107.316 87.288 107.261C87.2994 107.242 87.3084 107.224 87.3174 107.205C87.3514 107.141 87.3853 107.073 87.4169 107.006C87.4509 106.941 87.4848 106.874 87.5187 106.807C87.5504 106.742 87.5843 106.675 87.616 106.608C87.6408 106.557 87.6635 106.506 87.6883 106.455C87.6901 106.451 87.6924 106.447 87.6951 106.444C87.7064 106.418 87.7178 106.395 87.7268 106.372C87.7296 106.369 87.7318 106.365 87.7336 106.361C87.7584 106.31 87.7811 106.256 87.8059 106.205C87.8376 106.138 87.867 106.069 87.8987 106.002C87.919 105.955 87.9416 105.907 87.962 105.858C87.9914 105.791 88.0231 105.724 88.0502 105.655C88.0819 105.585 88.1113 105.516 88.1407 105.444C88.1491 105.427 88.1567 105.409 88.1633 105.391C88.1791 105.358 88.1904 105.326 88.204 105.294C88.2402 105.208 88.2763 105.12 88.3103 105.034C88.351 104.937 88.3894 104.838 88.4256 104.74C88.4618 104.65 88.4957 104.557 88.5297 104.465L88.5432 104.433C89.0702 103.012 89.4698 101.546 89.7373 100.051V100.049C89.8882 99.1955 89.9961 98.3349 90.0607 97.4703C90.063 97.4217 90.0675 97.3754 90.0698 97.3292C90.1105 96.7436 90.1286 96.1557 90.1286 95.5655C90.1286 95.3039 90.1241 95.0447 90.1173 94.7855C89.9594 89.364 88.0704 84.1447 84.7393 79.9261C84.6669 79.8335 84.5945 79.7409 84.5199 79.6483C84.4452 79.5557 84.3683 79.4655 84.2937 79.3752C81.8145 76.4038 78.6878 74.0702 75.1656 72.5624C71.6435 71.0547 67.8244 70.415 64.0164 70.695C60.2083 70.9749 56.5178 72.1667 53.2424 74.1742C49.967 76.1816 47.1982 78.9487 45.1595 82.2522C45.0486 82.4327 44.9378 82.6156 44.8315 82.7984C44.723 82.9836 44.6189 83.1688 44.5149 83.3563C42.4661 87.0834 41.3926 91.289 41.3985 95.5654Z" fill="#EBF2ED"/>
<path d="M64.7925 79.2553C68.7991 80.3075 72.9049 80.914 77.0386 81.0642C77.6637 81.0991 78.2902 81.0947 78.9148 81.0512C80.2874 80.933 81.463 80.4915 82.7724 80.2503C83.4019 80.1346 84.103 80.05 84.7368 79.9251C84.5903 79.7391 84.4413 79.5555 84.2896 79.3741C82.9231 79.4923 81.5354 79.879 80.1525 80.0587C77.8017 80.3647 75.1678 80.0233 73.3857 79.1813C72.5211 78.7728 71.8588 78.2629 70.9973 77.8525C70.8801 77.7909 70.7532 77.7511 70.6224 77.735C70.374 77.7273 70.1286 77.7925 69.9152 77.9228C68.4697 78.6696 66.3711 79.2765 64.4231 78.9426C64.2779 79.0588 64.5538 79.1913 64.7925 79.2553Z" fill="white"/>
<path d="M56.1706 81.8833C56.1528 81.88 56.135 81.8774 56.1172 81.8742C56.192 81.8268 56.2625 81.7724 56.3277 81.7119L56.1706 81.8833Z" fill="white"/>
<path d="M44.5156 83.3572C45.3292 83.4237 46.147 83.4733 46.9691 83.5058C47.5942 83.5403 48.2207 83.536 48.8453 83.4927C50.2179 83.374 51.3936 82.9331 52.7029 82.6918C53.9029 82.4711 55.3611 82.3647 56.1231 81.8748C54.1539 81.5259 52.1136 82.236 50.083 82.5003C48.4405 82.707 46.7755 82.6229 45.1609 82.2516C44.9361 82.6135 44.721 82.982 44.5156 83.3572Z" fill="white"/>
<path d="M54.3516 117.602C54.5461 117.711 54.7428 117.815 54.9396 117.914C55.0097 117.949 55.0821 117.984 55.1522 118.021C55.211 118.049 55.2698 118.079 55.3286 118.106C55.3467 118.116 55.3625 118.123 55.3783 118.132C55.4281 118.155 55.4756 118.178 55.5253 118.201C55.5796 118.227 55.6339 118.252 55.6859 118.278C55.747 118.305 55.8058 118.333 55.8668 118.359C56.093 118.463 56.3214 118.562 56.5498 118.657C57.3684 119.001 58.205 119.297 59.0556 119.546C59.0941 119.558 59.1348 119.569 59.1755 119.581C59.5396 119.685 59.906 119.78 60.2746 119.865C60.9192 120.018 61.5698 120.143 62.2264 120.24H62.2309C62.31 120.252 62.3869 120.264 62.4661 120.275C62.4729 120.275 62.4797 120.277 62.4887 120.277C62.4887 120.28 62.4887 120.28 62.491 120.277C62.5769 120.289 62.6651 120.301 62.7511 120.312C62.7569 120.314 62.763 120.315 62.7691 120.314C62.8506 120.326 62.9342 120.335 63.0157 120.345C63.1039 120.354 63.1921 120.363 63.2803 120.372C63.3481 120.379 63.416 120.386 63.4838 120.393C63.4896 120.395 63.4958 120.396 63.5019 120.395C63.563 120.4 63.624 120.407 63.6851 120.412H63.6941C63.7461 120.416 63.8004 120.421 63.8524 120.426C64.4834 120.477 65.1167 120.5 65.7589 120.5C66.4533 120.5 67.143 120.472 67.8238 120.412H67.8305C67.9776 120.398 68.1223 120.384 68.267 120.37C68.3055 120.365 68.3417 120.363 68.3801 120.358C68.3869 120.358 68.3959 120.356 68.4027 120.356C68.414 120.354 68.4253 120.354 68.4389 120.352C68.445 120.352 68.4511 120.351 68.457 120.349C68.5068 120.345 68.5565 120.338 68.6085 120.333L68.7781 120.312C68.8347 120.305 68.8912 120.296 68.9478 120.289C68.9613 120.287 68.9726 120.287 68.9862 120.284C69.0269 120.28 69.0676 120.273 69.1083 120.266C69.1287 120.264 69.149 120.261 69.1671 120.259C69.2078 120.252 69.2463 120.247 69.287 120.24H69.2893C70.5303 120.058 71.7553 119.775 72.953 119.396C73.0163 119.375 73.0797 119.356 73.143 119.335C72.851 117.942 72.2498 116.635 71.3859 115.517C70.522 114.399 69.4186 113.499 68.1607 112.887C68.4718 112.584 68.6869 112.192 68.7781 111.762C68.8369 111.485 68.8415 111.199 68.7918 110.92C68.7422 110.641 68.6391 110.375 68.4887 110.137C68.1952 109.676 67.7348 109.353 67.2086 109.239L63.857 108.522C63.3174 108.414 62.7582 108.529 62.3008 108.841C61.8434 109.153 61.5249 109.637 61.4145 110.188C61.3803 110.357 61.3651 110.53 61.3692 110.702C58.142 112.901 55.8193 115.181 54.3516 117.602Z" fill="#5E72A9"/>
<path d="M64.2484 107.168C68.1048 107.168 71.2311 103.968 71.2311 100.021C71.2311 96.0745 68.1048 92.875 64.2484 92.875C60.3919 92.875 57.2656 96.0745 57.2656 100.021C57.2656 103.968 60.3919 107.168 64.2484 107.168Z" fill="#FFB8B8"/>
<path d="M59.8988 106.182C59.1542 105.662 58.3938 104.661 57.8861 103.912C57.2134 102.926 56.7506 101.807 56.5275 100.627C56.3045 99.4464 56.3263 98.2314 56.5914 97.0603C56.676 96.592 56.8838 96.1563 57.1925 95.8C57.5214 95.4669 58.0585 95.309 58.4599 95.5445C58.3504 95.2443 58.3021 94.9243 58.3181 94.6043C58.3342 94.2842 58.4141 93.9709 58.553 93.6837C58.8351 93.1103 59.2439 92.612 59.747 92.2284C60.709 91.4702 61.8537 90.9927 63.0595 90.8466C64.2654 90.7005 65.4873 90.8912 66.5958 91.3985C67.032 91.6054 66.3156 90.0079 66.7721 90.1619C67.2256 90.3416 67.7299 90.3326 68.1769 90.1366C68.6063 89.9154 70.0296 91.2297 69.8649 90.7675C70.1907 90.9189 70.4738 91.1523 70.6878 91.4458C70.9018 91.7394 71.0398 92.0836 71.0888 92.4464C71.1378 92.8092 71.0963 93.1787 70.9682 93.5207C70.8401 93.8627 70.6295 94.1659 70.356 94.4021C69.9956 94.7135 69.5457 94.8927 69.1511 95.1571C68.4598 95.6548 67.9704 96.3944 67.7754 97.2362C67.5805 98.078 67.6934 98.9637 68.0929 99.7261C67.6778 99.4531 67.2222 99.2505 66.744 99.1261C66.504 99.0662 66.2536 99.0658 66.0134 99.1249C65.7733 99.184 65.5504 99.3009 65.3633 99.466C65.207 99.6491 65.0889 99.8629 65.0163 100.094C64.9437 100.326 64.9181 100.57 64.9411 100.812C64.9567 101.297 65.0695 101.775 65.0821 102.26C65.1192 103.683 65.864 106.389 64.7858 107.146C63.9349 107.743 60.9155 106.893 59.8988 106.182Z" fill="#2F2E41"/>
<path d="M176.988 40.9424C176.988 41.5048 176.97 42.0673 176.931 42.6251C176.891 43.2917 176.821 43.9536 176.726 44.611C176.406 46.8243 175.796 48.9832 174.912 51.0292C174.867 51.131 174.821 51.2329 174.776 51.3347L174.708 51.4875C174.686 51.5384 174.661 51.5893 174.638 51.6379C174.606 51.7051 174.577 51.7699 174.545 51.8347C174.507 51.9157 174.469 51.9967 174.428 52.0777C174.423 52.087 174.419 52.0985 174.412 52.1101C174.378 52.1795 174.346 52.2467 174.31 52.3161C174.304 52.3312 174.296 52.3459 174.288 52.3601C174.249 52.4388 174.208 52.5198 174.168 52.5985C174.123 52.6818 174.08 52.7674 174.034 52.8507C173.926 53.0567 173.813 53.2604 173.697 53.4641C173.663 53.5243 173.63 53.5845 173.593 53.6446C173.562 53.7002 173.53 53.7557 173.496 53.8113C173.473 53.8483 173.451 53.8877 173.428 53.9247C173.392 53.9872 173.356 54.0474 173.317 54.1099C173.234 54.2464 173.148 54.383 173.064 54.5195H173.062C173.023 54.582 172.983 54.6445 172.942 54.7047V54.707C172.822 54.8922 172.698 55.0774 172.573 55.2602C172.573 55.2602 172.573 55.2602 172.572 55.2603C172.572 55.2605 172.572 55.2606 172.572 55.2609C172.572 55.2611 172.571 55.2613 172.571 55.2616C172.571 55.2619 172.571 55.2622 172.571 55.2625C172.472 55.4106 172.368 55.5541 172.266 55.6976V55.7C172.198 55.7902 172.132 55.8828 172.064 55.9731C172.01 56.0471 171.954 56.1235 171.897 56.1976C171.886 56.2138 171.872 56.2277 171.861 56.2439V56.2462C171.845 56.267 171.829 56.2855 171.813 56.3064C171.574 56.6211 171.326 56.929 171.072 57.2299L171.031 57.2785C171.017 57.2947 171.002 57.3109 170.988 57.3294C170.965 57.3549 170.945 57.3803 170.922 57.4058C170.902 57.4312 170.879 57.4567 170.857 57.4821C169.529 59.0134 168.023 60.3729 166.372 61.5303C166.153 61.6854 165.929 61.8358 165.705 61.9816C165.648 62.0187 165.592 62.0557 165.535 62.0904C165.52 62.102 165.501 62.1136 165.486 62.1251C165.454 62.1437 165.425 62.1622 165.393 62.183C165.363 62.2015 165.334 62.22 165.302 62.2385C165.183 62.3149 165.06 62.389 164.938 62.4631C164.909 62.4816 164.877 62.5001 164.846 62.5186C164.816 62.5348 164.784 62.5533 164.753 62.5719C164.753 62.5742 164.753 62.5742 164.751 62.5742H164.748V62.5765H164.746C164.594 62.6667 164.441 62.7547 164.285 62.8403C164.201 62.8866 164.115 62.9352 164.029 62.9792C163.835 63.088 163.638 63.1921 163.441 63.2917C163.371 63.3264 163.299 63.3611 163.229 63.3981C163.17 63.4259 163.111 63.456 163.052 63.4838C163.034 63.493 163.018 63.5 163.002 63.5092C162.953 63.5324 162.905 63.5555 162.855 63.5787C162.801 63.6041 162.747 63.6296 162.695 63.655C162.634 63.6828 162.575 63.7106 162.514 63.7361C162.288 63.8402 162.059 63.9397 161.831 64.0346C161.012 64.378 160.176 64.6748 159.325 64.9234C159.287 64.935 159.246 64.9466 159.205 64.9581C158.841 65.0623 158.475 65.1572 158.106 65.2428C157.461 65.3956 156.811 65.5206 156.154 65.6178H156.15C156.071 65.6294 155.994 65.6409 155.915 65.6525C155.908 65.6525 155.901 65.6548 155.892 65.6548C155.892 65.6571 155.892 65.6571 155.89 65.6548C155.804 65.6664 155.716 65.678 155.63 65.6895C155.624 65.6913 155.618 65.6921 155.612 65.6918C155.53 65.7034 155.446 65.7127 155.365 65.7219C155.277 65.7312 155.189 65.7405 155.1 65.7497C155.033 65.7567 154.965 65.7636 154.897 65.7705C154.891 65.7726 154.885 65.7734 154.879 65.7729C154.818 65.7775 154.757 65.7844 154.696 65.7891H154.687C154.635 65.7937 154.58 65.7983 154.528 65.803C153.897 65.8539 153.264 65.877 152.622 65.877C151.927 65.877 151.238 65.8492 150.557 65.7891H150.55C150.403 65.7752 150.258 65.7613 150.114 65.7474C150.075 65.7428 150.039 65.7405 150.001 65.7358C149.994 65.7358 149.985 65.7335 149.978 65.7335C149.967 65.7312 149.955 65.7312 149.942 65.7289C149.936 65.7291 149.93 65.7283 149.924 65.7266C149.874 65.7219 149.824 65.715 149.772 65.7104L149.603 65.6895C149.546 65.6826 149.489 65.6733 149.433 65.6664C149.419 65.6641 149.408 65.6641 149.394 65.6618C149.354 65.6571 149.313 65.6502 149.272 65.6433C149.252 65.6409 149.232 65.6386 149.214 65.6363C149.173 65.6294 149.134 65.6247 149.094 65.6178H149.091C147.85 65.435 146.625 65.1525 145.428 64.773C145.364 64.7522 145.301 64.7336 145.238 64.7128C145.235 64.7128 145.233 64.7105 145.231 64.7105C145.213 64.7036 145.192 64.6989 145.174 64.692C145.005 64.6364 144.837 64.5786 144.67 64.5184C144.439 64.4397 144.211 64.3541 143.983 64.2661C143.921 64.2406 143.86 64.2175 143.799 64.192C143.675 64.1434 143.553 64.0925 143.431 64.0416C143.223 63.956 143.015 63.8657 142.809 63.7731C142.617 63.6852 142.427 63.5972 142.237 63.5046C142.232 63.5023 142.225 63.5023 142.221 63.4977C142.178 63.4768 142.135 63.456 142.094 63.4352H142.092C141.05 62.9236 140.046 62.3366 139.086 61.6784C138.779 61.4678 138.476 61.2503 138.177 61.0257C137.937 60.8429 137.702 60.6577 137.467 60.4679C136.307 59.5233 135.232 58.4729 134.258 57.3294V57.3271C134.188 57.2484 134.122 57.1674 134.054 57.0864C134.043 57.0748 134.034 57.0632 134.025 57.054C133.982 57.0007 133.941 56.9498 133.898 56.8989V56.8966C133.842 56.8295 133.785 56.76 133.731 56.6906C133.717 56.6744 133.706 56.6605 133.695 56.6466V56.6443C133.649 56.5887 133.606 56.5332 133.561 56.4753C133.539 56.4476 133.518 56.4198 133.496 56.392V56.3897C133.362 56.2184 133.233 56.0471 133.104 55.8712C133.07 55.8249 133.037 55.7763 133 55.7277C132.838 55.5032 132.679 55.2741 132.525 55.0449V55.0426C132.467 54.957 132.41 54.869 132.351 54.7834C132.295 54.6955 132.238 54.6075 132.182 54.5196C132.125 54.427 132.066 54.3367 132.01 54.2441L132.003 54.2302C131.946 54.1423 131.89 54.0497 131.836 53.9594C131.793 53.8854 131.75 53.8136 131.707 53.7419C131.68 53.6933 131.65 53.6446 131.623 53.5937C131.612 53.5781 131.603 53.5618 131.594 53.5451C131.53 53.4317 131.467 53.3183 131.404 53.2049C131.329 53.073 131.257 52.9387 131.184 52.8045C131.157 52.7489 131.128 52.6934 131.098 52.6378C131.087 52.6193 131.078 52.6008 131.069 52.5823C131.035 52.5175 131.001 52.4504 130.969 52.3832C130.936 52.3184 130.902 52.2513 130.868 52.1842C130.836 52.1194 130.802 52.0522 130.77 51.9851C130.746 51.9342 130.723 51.8833 130.698 51.8324C130.696 51.8282 130.694 51.8243 130.691 51.8208C130.68 51.7953 130.669 51.7722 130.66 51.749C130.657 51.7455 130.655 51.7416 130.653 51.7375C130.628 51.6866 130.605 51.6333 130.58 51.5824C130.549 51.5153 130.519 51.4458 130.488 51.3787C130.467 51.3324 130.445 51.2838 130.424 51.2352C130.395 51.1681 130.363 51.101 130.336 51.0315C130.305 50.9621 130.275 50.8927 130.246 50.8209C130.237 50.8036 130.23 50.7858 130.223 50.7677C130.207 50.7353 130.196 50.7029 130.182 50.6705C130.146 50.5848 130.11 50.4969 130.076 50.4112C130.035 50.314 129.997 50.2145 129.961 50.1173C129.925 50.027 129.891 49.9344 129.857 49.8419L129.843 49.8095C129.316 48.389 128.917 46.9225 128.649 45.428V45.4257C128.498 44.5725 128.39 43.7119 128.326 42.8473C128.323 42.7987 128.319 42.7524 128.317 42.7061C128.276 42.1205 128.258 41.5326 128.258 40.9424C128.258 40.6809 128.262 40.4216 128.269 40.1624C128.427 34.7409 130.316 29.5216 133.647 25.303C133.72 25.2104 133.792 25.1179 133.867 25.0253C133.941 24.9327 134.018 24.8424 134.093 24.7522C136.572 21.7808 139.699 19.4472 143.221 17.9394C146.743 16.4316 150.562 15.792 154.37 16.0719C158.178 16.3519 161.869 17.5436 165.144 19.5511C168.419 21.5586 171.188 24.3256 173.227 27.6291C173.338 27.8097 173.449 27.9925 173.555 28.1754C173.663 28.3606 173.767 28.5457 173.871 28.7332C175.92 32.4604 176.994 36.6659 176.988 40.9424Z" fill="#EBF2ED"/>
<path d="M153.593 24.6323C149.586 25.6844 145.48 26.2909 141.347 26.4412C140.722 26.476 140.095 26.4717 139.47 26.4281C138.098 26.31 136.922 25.8685 135.613 25.6272C134.983 25.5115 134.282 25.427 133.648 25.302C133.795 25.1161 133.944 24.9324 134.096 24.7511C135.462 24.8692 136.85 25.256 138.233 25.4357C140.583 25.7416 143.217 25.4002 144.999 24.5583C145.864 24.1497 146.526 23.6399 147.388 23.2295C147.505 23.1679 147.632 23.1281 147.763 23.1119C148.011 23.1043 148.257 23.1694 148.47 23.2997C149.915 24.0465 152.014 24.6534 153.962 24.3195C154.107 24.4358 153.831 24.5682 153.593 24.6323Z" fill="white"/>
<path d="M162.212 27.2603C162.23 27.2569 162.247 27.2543 162.265 27.2512C162.19 27.2037 162.12 27.1494 162.055 27.0889L162.212 27.2603Z" fill="white"/>
<path d="M173.873 28.7341C173.06 28.8007 172.242 28.8502 171.42 28.8827C170.795 28.9173 170.168 28.9129 169.543 28.8697C168.171 28.7509 166.995 28.31 165.686 28.0688C164.486 27.848 163.028 27.7417 162.266 27.2517C164.235 26.9029 166.275 27.613 168.306 27.8773C169.948 28.084 171.613 27.9998 173.228 27.6285C173.453 27.9904 173.668 28.359 173.873 28.7341Z" fill="white"/>
<path d="M149.881 51.8529C153.922 51.8529 157.199 48.425 157.199 44.1965C157.199 39.9679 153.922 36.54 149.881 36.54C145.839 36.54 142.562 39.9679 142.562 44.1965C142.562 48.425 145.839 51.8529 149.881 51.8529Z" fill="#FFBFB6"/>
<path d="M164.034 62.9788C163.839 63.0876 163.642 63.1917 163.446 63.2912C163.375 63.326 163.303 63.3607 163.233 63.3977C163.174 63.4255 163.115 63.4556 163.057 63.4834C163.039 63.4926 163.023 63.4996 163.007 63.5088C162.957 63.532 162.91 63.5551 162.86 63.5783C162.806 63.6037 162.751 63.6292 162.699 63.6546C162.638 63.6824 162.579 63.7102 162.518 63.7356C162.292 63.8398 162.064 63.9393 161.835 64.0342C161.017 64.3776 160.18 64.6744 159.33 64.923C159.291 64.9346 159.25 64.9462 159.21 64.9577C158.846 65.0619 158.479 65.1568 158.111 65.2424C157.466 65.3952 156.815 65.5202 156.159 65.6174H156.154C156.075 65.629 155.998 65.6405 155.919 65.6521C155.912 65.6521 155.906 65.6544 155.896 65.6544C155.896 65.6567 155.896 65.6567 155.894 65.6544C155.808 65.666 155.72 65.6776 155.634 65.6891C155.628 65.6909 155.622 65.6917 155.616 65.6914C155.535 65.703 155.451 65.7123 155.37 65.7215C155.281 65.7308 155.193 65.7401 155.105 65.7493C155.037 65.7563 154.969 65.7632 154.901 65.7701C154.896 65.7722 154.889 65.773 154.883 65.7724C154.822 65.7771 154.761 65.784 154.7 65.7887H154.691C154.639 65.7933 154.585 65.7979 154.533 65.8026C153.902 65.8535 153.269 65.8766 152.626 65.8766C151.932 65.8766 151.242 65.8488 150.561 65.7887H150.555C150.408 65.7748 150.263 65.7609 150.118 65.747C150.08 65.7424 150.044 65.74 150.005 65.7354C149.998 65.7354 149.989 65.7331 149.982 65.7331C149.971 65.7308 149.96 65.7308 149.946 65.7285C149.94 65.7287 149.934 65.7279 149.928 65.7262C149.878 65.7215 149.829 65.7146 149.777 65.71L149.607 65.6891C149.55 65.6822 149.494 65.6729 149.437 65.666C149.424 65.6637 149.413 65.6637 149.399 65.6614C149.358 65.6567 149.318 65.6498 149.277 65.6428C149.256 65.6405 149.236 65.6382 149.218 65.6359C149.177 65.629 149.139 65.6243 149.098 65.6174H149.096C147.855 65.4345 146.63 65.1521 145.432 64.7726C145.369 64.7517 145.306 64.7332 145.242 64.7124C145.534 63.3187 146.135 62.0123 146.999 60.8942C147.863 59.7761 148.967 58.8762 150.224 58.2641C149.913 57.9608 149.698 57.5689 149.607 57.1392C149.548 56.8622 149.544 56.5761 149.593 56.2972C149.643 56.0184 149.746 55.7523 149.897 55.5144C150.19 55.0532 150.65 54.7302 151.177 54.6163L154.528 53.8988C155.068 53.7912 155.627 53.9059 156.084 54.2179C156.542 54.53 156.86 55.0142 156.971 55.5653C157.005 55.7343 157.02 55.9067 157.016 56.0791C160.243 58.2779 162.566 60.5578 164.034 62.9788Z" fill="#FFC33D"/>
<path d="M169.456 40.8763C168.212 39.3917 167.62 37.422 166.626 35.7362C165.631 34.0504 163.901 32.5415 162.073 32.9339C160.812 33.2043 159.839 34.3424 159.345 35.6113C158.853 36.8801 158.76 38.2794 158.674 39.6502C158.704 36.8331 156.891 34.1021 154.393 33.2032C151.895 32.3044 148.905 33.307 147.335 35.5702C146.65 34.9204 145.756 34.5504 144.822 34.5304C143.889 34.5103 142.98 34.8416 142.269 35.4614C140.865 36.7456 140.554 39.1901 141.587 40.8282C142.619 42.4663 144.856 43.0766 146.497 42.168L147.077 42.7142C146.75 43.8831 147.384 45.2638 148.448 45.7038C149.311 46.0607 150.53 46.0013 150.853 46.9284C151.079 47.5761 150.657 48.2676 150.208 48.7654C149.759 49.2631 149.226 49.7772 149.172 50.466C149.091 51.5053 150.14 52.2334 151.094 52.4527C153.395 52.9814 155.947 51.8912 157.273 49.8136C157.299 49.7735 157.326 49.7334 157.356 49.6932C158.1 48.7197 158.642 47.6012 158.95 46.406C159.257 45.2108 159.323 43.964 159.143 42.7419C159.069 42.2617 159.144 41.9045 159.467 41.7908C160.865 41.2992 164.783 42.3309 165.968 43.2633C167.154 44.1956 168.104 45.4296 169.245 46.4221C170.388 47.4147 171.843 48.1803 173.293 47.91C174.454 47.6935 175.442 46.8307 176.107 45.7899C176.771 44.7491 177.154 43.5359 177.496 42.3303C174.928 43.8485 171.414 43.213 169.456 40.8763Z" fill="#401F00"/>
<path d="M19.2344 25.4346C19.2344 25.997 19.2525 26.5595 19.2909 27.1173C19.3316 27.7839 19.4018 28.4458 19.4967 29.1032C19.816 31.3164 20.4261 33.4754 21.3105 35.5214C21.3557 35.6232 21.401 35.7251 21.4462 35.8269L21.5141 35.9797C21.5367 36.0306 21.5616 36.0815 21.5842 36.1301C21.6158 36.1972 21.6452 36.262 21.6769 36.3269C21.7153 36.4079 21.7538 36.4889 21.7945 36.5699C21.799 36.5791 21.8035 36.5907 21.8103 36.6023C21.8443 36.6717 21.8759 36.7388 21.9121 36.8083C21.9188 36.8234 21.9263 36.8381 21.9347 36.8523C21.9732 36.9309 22.0139 37.012 22.0546 37.0906C22.0998 37.174 22.1428 37.2596 22.188 37.3429C22.2966 37.5489 22.4096 37.7526 22.525 37.9563C22.5589 38.0165 22.5928 38.0767 22.629 38.1368C22.6607 38.1924 22.6923 38.2479 22.7263 38.3035C22.7489 38.3405 22.7715 38.3799 22.7941 38.4169C22.8303 38.4794 22.8665 38.5396 22.9049 38.6021C22.9886 38.7386 23.0745 38.8752 23.1582 39.0117H23.1605C23.1989 39.0742 23.2396 39.1367 23.2803 39.1969V39.1992C23.4002 39.3844 23.5246 39.5695 23.649 39.7524C23.6493 39.7524 23.6496 39.7524 23.6499 39.7525C23.6501 39.7526 23.6504 39.7528 23.6506 39.753C23.6508 39.7533 23.651 39.7535 23.6511 39.7538C23.6512 39.7541 23.6513 39.7544 23.6513 39.7547C23.7508 39.9028 23.8548 40.0463 23.9566 40.1898V40.1921C24.0244 40.2824 24.09 40.375 24.1578 40.4652C24.2121 40.5393 24.2687 40.6157 24.3252 40.6898C24.3365 40.7059 24.3501 40.7198 24.3614 40.7361V40.7384C24.3772 40.7592 24.393 40.7777 24.4089 40.7985C24.6486 41.1133 24.8959 41.4212 25.1507 41.722L25.1914 41.7707C25.205 41.7869 25.2208 41.8031 25.2344 41.8216C25.257 41.847 25.2773 41.8725 25.2999 41.898C25.3203 41.9234 25.3429 41.9489 25.3655 41.9743C26.6938 43.5056 28.1998 44.865 29.8502 46.0225C30.0696 46.1776 30.2935 46.328 30.5174 46.4738C30.5739 46.5108 30.6305 46.5479 30.687 46.5826C30.7028 46.5942 30.7209 46.6057 30.7368 46.6173C30.7684 46.6358 30.7978 46.6544 30.8295 46.6752C30.8589 46.6937 30.8883 46.7122 30.9199 46.7307C31.0398 46.8071 31.1619 46.8812 31.2841 46.9552C31.3135 46.9738 31.3451 46.9923 31.3768 47.0108C31.4062 47.027 31.4378 47.0455 31.4695 47.064C31.4695 47.0664 31.4695 47.0663 31.4718 47.0663H31.474V47.0687H31.4763C31.6278 47.1589 31.7816 47.2469 31.9376 47.3325C32.0213 47.3788 32.1073 47.4274 32.1932 47.4714C32.3877 47.5802 32.5845 47.6843 32.7812 47.7839C32.8513 47.8186 32.9237 47.8533 32.9938 47.8903C33.0526 47.9181 33.1114 47.9482 33.1702 47.976C33.1883 47.9852 33.2041 47.9922 33.22 48.0014C33.2697 48.0246 33.3172 48.0477 33.367 48.0709C33.4212 48.0963 33.4755 48.1218 33.5275 48.1472C33.5886 48.175 33.6474 48.2028 33.7085 48.2282C33.9346 48.3324 34.163 48.4319 34.3915 48.5268C35.21 48.8702 36.0466 49.167 36.8973 49.4156C36.9357 49.4272 36.9764 49.4388 37.0171 49.4503C37.3813 49.5545 37.7477 49.6494 38.1163 49.735C38.7608 49.8878 39.4114 50.0128 40.068 50.11H40.0725C40.1517 50.1215 40.2286 50.1331 40.3077 50.1447C40.3145 50.1447 40.3213 50.147 40.3304 50.147C40.3304 50.1493 40.3304 50.1493 40.3326 50.147C40.4186 50.1586 40.5068 50.1701 40.5927 50.1817C40.5986 50.1835 40.6047 50.1843 40.6108 50.184C40.6922 50.1956 40.7759 50.2049 40.8573 50.2141C40.9455 50.2234 41.0337 50.2326 41.1219 50.2419C41.1898 50.2488 41.2576 50.2558 41.3255 50.2627C41.3313 50.2648 41.3374 50.2656 41.3435 50.265C41.4046 50.2697 41.4657 50.2766 41.5267 50.2812H41.5358C41.5878 50.2859 41.6421 50.2905 41.6941 50.2951C42.3251 50.3461 42.9583 50.3692 43.6006 50.3692C44.2949 50.3692 44.9847 50.3414 45.6654 50.2812H45.6722C45.8192 50.2674 45.9639 50.2535 46.1087 50.2396C46.1471 50.235 46.1833 50.2326 46.2218 50.228C46.2285 50.228 46.2376 50.2257 46.2444 50.2257C46.2557 50.2234 46.267 50.2234 46.2806 50.2211C46.2867 50.2213 46.2928 50.2205 46.2987 50.2188C46.3484 50.2141 46.3982 50.2072 46.4502 50.2026L46.6198 50.1817C46.6763 50.1748 46.7329 50.1655 46.7894 50.1586C46.803 50.1563 46.8143 50.1563 46.8279 50.1539C46.8686 50.1493 46.9093 50.1424 46.95 50.1354C46.9703 50.1331 46.9907 50.1308 47.0088 50.1285C47.0495 50.1216 47.0879 50.1169 47.1286 50.11H47.1309C48.3719 49.9271 49.5969 49.6447 50.7947 49.2652C50.858 49.2443 50.9213 49.2258 50.9846 49.205C50.9869 49.205 50.9892 49.2027 50.9914 49.2027C51.0095 49.1957 51.0299 49.1911 51.048 49.1842C51.2176 49.1286 51.3849 49.0708 51.5523 49.0106C51.783 48.9319 52.0114 48.8462 52.2398 48.7583C52.3009 48.7328 52.3619 48.7097 52.423 48.6842C52.5474 48.6356 52.6695 48.5847 52.7916 48.5338C52.9997 48.4481 53.2078 48.3579 53.4136 48.2653C53.6058 48.1773 53.7958 48.0894 53.9857 47.9968C53.9903 47.9945 53.997 47.9945 54.0016 47.9899C54.0445 47.969 54.0875 47.9482 54.1282 47.9274H54.1305C55.172 47.4158 56.1764 46.8287 57.1361 46.1706C57.4437 45.96 57.7467 45.7424 58.0453 45.5179C58.285 45.3351 58.5202 45.1499 58.7554 44.9601C59.9157 44.0155 60.9899 42.965 61.9646 41.8216V41.8193C62.0347 41.7406 62.1003 41.6596 62.1681 41.5786C62.1794 41.567 62.1885 41.5554 62.1975 41.5462C62.2405 41.4929 62.2812 41.442 62.3242 41.3911V41.3888C62.3807 41.3216 62.4372 41.2522 62.4915 41.1828C62.5051 41.1666 62.5164 41.1527 62.5277 41.1388V41.1365C62.5729 41.0809 62.6159 41.0254 62.6611 40.9675C62.6837 40.9398 62.7041 40.912 62.7267 40.8842V40.8819C62.8601 40.7106 62.9891 40.5393 63.118 40.3634C63.1519 40.3171 63.1858 40.2685 63.222 40.2199C63.3848 39.9954 63.5431 39.7663 63.6969 39.5371V39.5348C63.7557 39.4492 63.8123 39.3612 63.8711 39.2756C63.9276 39.1876 63.9841 39.0997 64.0407 39.0117C64.0972 38.9192 64.156 38.8289 64.2126 38.7363L64.2194 38.7224C64.2759 38.6345 64.3324 38.5419 64.3867 38.4516C64.4297 38.3775 64.4726 38.3058 64.5156 38.234C64.5428 38.1854 64.5722 38.1368 64.5993 38.0859C64.6099 38.0703 64.6197 38.054 64.6287 38.0373C64.692 37.9239 64.7553 37.8105 64.8187 37.6971C64.8933 37.5652 64.9657 37.4309 65.038 37.2967C65.0652 37.2411 65.0946 37.1856 65.124 37.13C65.1353 37.1115 65.1443 37.093 65.1534 37.0745C65.1873 37.0097 65.2212 36.9426 65.2529 36.8754C65.2868 36.8106 65.3207 36.7435 65.3547 36.6764C65.3863 36.6116 65.4202 36.5444 65.4519 36.4773C65.4768 36.4264 65.4994 36.3755 65.5243 36.3246C65.526 36.3204 65.5283 36.3165 65.5311 36.313C65.5424 36.2875 65.5537 36.2644 65.5627 36.2412C65.5655 36.2377 65.5678 36.2338 65.5695 36.2297C65.5944 36.1787 65.617 36.1255 65.6419 36.0746C65.6735 36.0075 65.7029 35.938 65.7346 35.8709C65.755 35.8246 65.7776 35.776 65.7979 35.7274C65.8273 35.6603 65.859 35.5932 65.8861 35.5237C65.9178 35.4543 65.9472 35.3848 65.9766 35.3131C65.9851 35.2958 65.9926 35.278 65.9992 35.2599C66.015 35.2275 66.0264 35.1951 66.0399 35.1627C66.0761 35.077 66.1123 34.9891 66.1462 34.9034C66.1869 34.8062 66.2254 34.7067 66.2616 34.6095C66.2977 34.5192 66.3317 34.4266 66.3656 34.334L66.3792 34.3016C66.9061 32.8812 67.3058 31.4147 67.5733 29.9202V29.9179C67.7241 29.0646 67.8321 28.204 67.8967 27.3395C67.8989 27.2909 67.9035 27.2446 67.9057 27.1983C67.9464 26.6127 67.9645 26.0248 67.9645 25.4346C67.9645 25.1731 67.96 24.9138 67.9532 24.6546C67.7953 19.2331 65.9063 14.0138 62.5752 9.79521C62.5028 9.70263 62.4305 9.61004 62.3558 9.51746C62.2812 9.42488 62.2043 9.33461 62.1297 9.24435C59.6504 6.27297 56.5237 3.93934 53.0016 2.43158C49.4794 0.923831 45.6604 0.284148 41.8523 0.564099C38.0443 0.844051 34.3538 2.0358 31.0783 4.04328C27.8029 6.05077 25.0342 8.8178 22.9954 12.1213C22.8846 12.3019 22.7738 12.4847 22.6675 12.6676C22.5589 12.8527 22.4549 13.0379 22.3509 13.2254C20.302 16.9525 19.2285 21.1581 19.2344 25.4346Z" fill="#EBF2ED"/>
<path d="M42.6285 9.12447C46.635 10.1766 50.7408 10.7831 54.8745 10.9334C55.4996 10.9682 56.1262 10.9638 56.7507 10.9203C58.1233 10.8022 59.299 10.3607 60.6084 10.1194C61.2378 10.0037 61.939 9.91916 62.5727 9.79418C62.4263 9.60825 62.2772 9.42461 62.1255 9.24324C60.759 9.36139 59.3713 9.74817 57.9884 9.92787C55.6376 10.2338 53.0037 9.89242 51.2217 9.05048C50.3571 8.64194 49.6948 8.13204 48.8332 7.72164C48.716 7.66007 48.5891 7.62028 48.4583 7.60412C48.2099 7.59649 47.9645 7.66164 47.7511 7.7919C46.3056 8.53871 44.207 9.14561 42.2591 8.8117C42.1139 8.92798 42.3897 9.06042 42.6285 9.12447Z" fill="white"/>
<path d="M34.0066 11.7534C33.9888 11.7501 33.9709 11.7475 33.9531 11.7443C34.028 11.6969 34.0984 11.6426 34.1636 11.582L34.0066 11.7534Z" fill="white"/>
<path d="M22.3516 13.2263C23.1651 13.2929 23.9829 13.3424 24.805 13.3749C25.4301 13.4095 26.0567 13.4051 26.6813 13.3619C28.0538 13.2431 29.2295 12.8022 30.5389 12.561C31.7389 12.3402 33.1971 12.2339 33.959 11.7439C31.9898 11.395 29.9495 12.1052 27.9189 12.3694C26.2764 12.5761 24.6114 12.492 22.9968 12.1207C22.772 12.4826 22.5569 12.8512 22.3516 13.2263Z" fill="white"/>
<path d="M32.1875 47.471C32.382 47.5798 32.5788 47.6839 32.7755 47.7834C32.8456 47.8182 32.918 47.8529 32.9881 47.8899C33.0469 47.9177 33.1057 47.9478 33.1645 47.9755C33.1826 47.9848 33.1984 47.9918 33.2143 48.001C33.264 48.0242 33.3115 48.0473 33.3613 48.0704C33.4155 48.0959 33.4698 48.1214 33.5218 48.1468C33.5829 48.1746 33.6417 48.2024 33.7028 48.2278C33.9289 48.332 34.1573 48.4315 34.3857 48.5264C35.2043 48.8698 36.0409 49.1665 36.8916 49.4152C36.93 49.4268 36.9707 49.4383 37.0114 49.4499C37.3756 49.5541 37.7419 49.649 38.1106 49.7346C38.7551 49.8874 39.4057 50.0124 40.0623 50.1096H40.0668C40.146 50.1211 40.2229 50.1327 40.302 50.1443C40.3088 50.1443 40.3156 50.1466 40.3247 50.1466C40.3247 50.1489 40.3246 50.1489 40.3269 50.1466C40.4129 50.1582 40.501 50.1697 40.587 50.1813C40.5929 50.1831 40.599 50.1839 40.6051 50.1836C40.6865 50.1952 40.7702 50.2045 40.8516 50.2137C40.9398 50.223 41.028 50.2322 41.1162 50.2415C41.1841 50.2484 41.2519 50.2554 41.3197 50.2623C41.3256 50.2644 41.3317 50.2652 41.3378 50.2646C41.3989 50.2693 41.46 50.2762 41.521 50.2808H41.5301C41.5821 50.2855 41.6364 50.2901 41.6884 50.2947C42.3194 50.3457 42.9526 50.3688 43.5949 50.3688C44.2892 50.3688 44.979 50.341 45.6597 50.2808H45.6665C45.8135 50.267 45.9582 50.2531 46.103 50.2392C46.1414 50.2345 46.1776 50.2322 46.216 50.2276C46.2228 50.2276 46.2319 50.2253 46.2387 50.2253C46.25 50.223 46.2613 50.223 46.2748 50.2207C46.281 50.2209 46.2871 50.2201 46.2929 50.2183C46.3427 50.2137 46.3925 50.2068 46.4445 50.2021L46.6141 50.1813C46.6706 50.1744 46.7272 50.1651 46.7837 50.1582C46.7973 50.1559 46.8086 50.1559 46.8221 50.1535C46.8629 50.1489 46.9036 50.142 46.9443 50.135C46.9646 50.1327 46.985 50.1304 47.0031 50.1281C47.0438 50.1211 47.0822 50.1165 47.1229 50.1096H47.1252C48.3662 49.9267 49.5912 49.6443 50.7889 49.2648C50.8523 49.2439 50.9156 49.2254 50.9789 49.2046C50.6869 47.8109 50.0857 46.5045 49.2219 45.3864C48.358 44.2683 47.2545 43.3684 45.9967 42.7563C46.3078 42.4529 46.5229 42.0611 46.6141 41.6314C46.6728 41.3544 46.6775 41.0682 46.6278 40.7894C46.5781 40.5106 46.4751 40.2445 46.3246 40.0066C46.0311 39.5454 45.5707 39.2224 45.0446 39.1085L41.6929 38.391C41.1534 38.2834 40.5941 38.398 40.1367 38.7101C39.6793 39.0222 39.3608 39.5064 39.2504 40.0575C39.2162 40.2264 39.201 40.3988 39.2052 40.5713C35.9779 42.7701 33.6553 45.05 32.1875 47.471Z" fill="#0B5E22"/>
<path d="M45.4473 36.0756C49.9529 36.0756 53.6055 32.3374 53.6055 27.7263C53.6055 23.1151 49.9529 19.377 45.4473 19.377C40.9416 19.377 37.2891 23.1151 37.2891 27.7263C37.2891 32.3374 40.9416 36.0756 45.4473 36.0756Z" fill="#FFCFBF"/>
<path d="M44.2919 35.6296C42.2495 36.1941 39.9979 35.4436 38.404 34.0199C36.8101 32.5962 35.813 30.5788 35.2385 28.4951C34.8178 26.969 34.6183 25.2749 35.2823 23.8422C35.9462 22.4095 37.7331 21.4428 39.1118 22.1665C38.2613 21.1525 38.6862 19.4753 39.6795 18.6078C40.6727 17.7403 42.0367 17.4915 43.3357 17.3556C45.2209 17.1583 47.1683 17.1362 48.9622 17.7613C50.7561 18.3863 52.3861 19.7529 52.9476 21.6053C53.521 21.8785 54.1668 21.9494 54.7838 21.8068C55.4008 21.6643 55.9542 21.3163 56.3572 20.8174C56.4612 21.3904 56.3777 21.9824 56.1197 22.502C55.8618 23.0215 55.4437 23.4395 54.9303 23.6914L57.6789 22.7794C58.1516 23.8034 57.3233 25.0708 56.2641 25.3987C55.2049 25.7267 54.0615 25.3682 53.0563 24.8945C52.0512 24.4207 51.0771 23.8217 49.9853 23.637C48.8935 23.4522 47.611 23.8112 47.106 24.819C46.8415 25.3468 46.8277 25.965 46.6741 26.5369C46.5205 27.1089 46.1315 27.702 45.5537 27.7488C45.1886 27.7783 44.8312 27.5793 44.4672 27.62C44.2438 27.6651 44.0381 27.7758 43.8752 27.9386C43.7123 28.1015 43.5994 28.3094 43.5503 28.5369C43.4596 28.9935 43.4585 29.464 43.547 29.921L44.2452 35.3829L44.2919 35.6296Z" fill="#2F2E41"/>
</svg>
