<svg width="1920" height="1080" viewBox="0 0 1920 1080" fill="none" xmlns="http://www.w3.org/2000/svg">
<rect width="1920" height="1079.5" fill="#EBF2ED"/>
<path d="M0 0H1920L0 1079.5V0Z" fill="white"/>
<g opacity="0.1">
<path d="M387.776 265.755H383.797V478.616H387.776V265.755Z" fill="#3F3D56"/>
<path d="M387.776 541.979H383.797V729.275H387.776V541.979Z" fill="#3F3D56"/>
<path d="M686.249 759.115H377.828V763.094H686.249V759.115Z" fill="#3F3D56"/>
<path d="M250.48 812.828H246.5V981.924H250.48V812.828Z" fill="#3F3D56"/>
<path d="M749.922 1011.76H282.316V1015.74H749.922V1011.76Z" fill="#3F3D56"/>
<path d="M1139.92 130.479H1135.95V331.404H1139.92V130.479Z" fill="#3F3D56"/>
<path d="M1106.1 363.233H813.527V367.212H1106.1V363.233Z" fill="#3F3D56"/>
<path d="M783.749 395.063H779.77V663.627H783.749V395.063Z" fill="#3F3D56"/>
<path d="M385.788 544.265C379.097 544.265 372.557 542.282 366.995 538.566C361.432 534.85 357.096 529.568 354.536 523.388C351.976 517.208 351.306 510.409 352.611 503.848C353.916 497.288 357.138 491.262 361.869 486.532C366.599 481.803 372.627 478.582 379.188 477.277C385.75 475.972 392.552 476.642 398.733 479.201C404.914 481.761 410.197 486.096 413.914 491.657C417.631 497.219 419.615 503.757 419.615 510.446C419.605 519.412 416.037 528.009 409.696 534.349C403.354 540.689 394.756 544.255 385.788 544.265ZM385.788 480.606C379.885 480.606 374.114 482.356 369.206 485.635C364.297 488.914 360.472 493.574 358.213 499.027C355.953 504.479 355.362 510.479 356.514 516.268C357.666 522.056 360.508 527.373 364.683 531.546C368.857 535.72 374.175 538.562 379.965 539.713C385.755 540.864 391.756 540.274 397.21 538.015C402.664 535.756 407.325 531.932 410.605 527.024C413.884 522.117 415.635 516.348 415.635 510.446C415.626 502.535 412.479 494.95 406.883 489.355C401.288 483.761 393.701 480.614 385.788 480.606Z" fill="#3F3D56"/>
<path d="M250.479 1047.57C243.789 1047.57 237.249 1045.59 231.686 1041.87C226.123 1038.16 221.788 1032.88 219.227 1026.7C216.667 1020.52 215.997 1013.72 217.302 1007.16C218.608 1000.6 221.829 994.57 226.56 989.84C231.291 985.11 237.318 981.889 243.88 980.584C250.442 979.279 257.243 979.949 263.424 982.509C269.605 985.069 274.888 989.403 278.605 994.965C282.322 1000.53 284.306 1007.06 284.306 1013.75C284.296 1022.72 280.729 1031.32 274.387 1037.66C268.046 1044 259.448 1047.56 250.479 1047.57ZM250.479 983.913C244.576 983.913 238.805 985.663 233.897 988.942C228.989 992.221 225.163 996.882 222.904 1002.33C220.645 1007.79 220.054 1013.79 221.205 1019.58C222.357 1025.36 225.2 1030.68 229.374 1034.85C233.548 1039.03 238.866 1041.87 244.656 1043.02C250.446 1044.17 256.447 1043.58 261.901 1041.32C267.355 1039.06 272.017 1035.24 275.296 1030.33C278.576 1025.42 280.326 1019.66 280.326 1013.75C280.318 1005.84 277.17 998.257 271.575 992.663C265.979 987.069 258.392 983.922 250.479 983.913Z" fill="#3F3D56"/>
<path d="M387.774 792.935C405.358 792.935 419.611 778.684 419.611 761.105C419.611 743.526 405.358 729.275 387.774 729.275C370.191 729.275 355.938 743.526 355.938 761.105C355.938 778.684 370.191 792.935 387.774 792.935Z" fill="#0B5E22"/>
<path d="M1539.88 508.456H1209.57V512.435H1539.88V508.456Z" fill="#3F3D56"/>
<path d="M1179.72 541.979H1175.74V729.275H1179.72V541.979Z" fill="#3F3D56"/>
<path d="M1143.91 759.115H879.262V763.094H1143.91V759.115Z" fill="#3F3D56"/>
<path d="M1619.47 777.02H1344.88V780.998H1619.47V777.02Z" fill="#3F3D56"/>
<path d="M1317.02 812.828H1313.04V981.924H1317.02V812.828Z" fill="#3F3D56"/>
<path d="M1281.2 1011.76H813.598V1015.74H1281.2V1011.76Z" fill="#3F3D56"/>
<path d="M783.749 858.584H779.77V981.924H783.749V858.584Z" fill="#3F3D56"/>
<path d="M1177.73 542.276C1195.31 542.276 1209.57 528.025 1209.57 510.446C1209.57 492.867 1195.31 478.616 1177.73 478.616C1160.15 478.616 1145.89 492.867 1145.89 510.446C1145.89 528.025 1160.15 542.276 1177.73 542.276Z" fill="#0B5E22"/>
<path d="M1137.94 397.052C1131.25 397.052 1124.71 395.069 1119.14 391.353C1113.58 387.637 1109.24 382.355 1106.68 376.175C1104.12 369.996 1103.45 363.196 1104.76 356.635C1106.06 350.075 1109.29 344.049 1114.02 339.319C1118.75 334.59 1124.78 331.369 1131.34 330.064C1137.9 328.759 1144.7 329.429 1150.88 331.988C1157.06 334.548 1162.35 338.883 1166.06 344.444C1169.78 350.006 1171.76 356.544 1171.76 363.233C1171.75 372.199 1168.19 380.796 1161.84 387.136C1155.5 393.476 1146.9 397.042 1137.94 397.052ZM1137.94 333.393C1132.03 333.393 1126.26 335.143 1121.35 338.422C1116.45 341.701 1112.62 346.361 1110.36 351.814C1108.1 357.266 1107.51 363.266 1108.66 369.055C1109.81 374.843 1112.66 380.16 1116.83 384.334C1121.01 388.507 1126.32 391.349 1132.11 392.5C1137.9 393.652 1143.9 393.061 1149.36 390.802C1154.81 388.544 1159.47 384.719 1162.75 379.812C1166.03 374.904 1167.78 369.135 1167.78 363.233C1167.77 355.322 1164.63 347.737 1159.03 342.143C1153.44 336.548 1145.85 333.402 1137.94 333.393Z" fill="#3F3D56"/>
<path d="M781.76 397.052C775.07 397.052 768.53 395.069 762.967 391.353C757.404 387.637 753.069 382.355 750.509 376.175C747.948 369.996 747.278 363.196 748.584 356.635C749.889 350.075 753.11 344.049 757.841 339.319C762.572 334.59 768.599 331.369 775.161 330.064C781.723 328.759 788.524 329.429 794.705 331.988C800.886 334.548 806.169 338.883 809.886 344.444C813.603 350.006 815.587 356.544 815.587 363.233C815.577 372.199 812.01 380.796 805.668 387.136C799.327 393.476 790.729 397.042 781.76 397.052ZM781.76 333.393C775.857 333.393 770.086 335.143 765.178 338.422C760.27 341.701 756.444 346.361 754.185 351.814C751.926 357.266 751.335 363.266 752.487 369.055C753.638 374.843 756.481 380.16 760.655 384.334C764.829 388.507 770.148 391.349 775.938 392.5C781.727 393.652 787.729 393.061 793.182 390.802C798.636 388.544 803.298 384.719 806.577 379.812C809.857 374.904 811.607 369.135 811.607 363.233C811.599 355.322 808.451 347.737 802.856 342.143C797.26 336.548 789.674 333.402 781.76 333.393Z" fill="#3F3D56"/>
<path d="M1313.04 814.818C1306.35 814.818 1299.81 812.834 1294.24 809.118C1288.68 805.402 1284.35 800.12 1281.79 793.941C1279.23 787.761 1278.56 780.961 1279.86 774.401C1281.17 767.841 1284.39 761.815 1289.12 757.085C1293.85 752.355 1299.88 749.134 1306.44 747.83C1313 746.525 1319.8 747.194 1325.98 749.754C1332.16 752.314 1337.45 756.648 1341.16 762.21C1344.88 767.771 1346.86 774.31 1346.86 780.999C1346.85 789.965 1343.29 798.561 1336.95 804.901C1330.6 811.242 1322.01 814.808 1313.04 814.818ZM1313.04 751.158C1307.13 751.158 1301.36 752.909 1296.46 756.187C1291.55 759.466 1287.72 764.127 1285.46 769.579C1283.2 775.032 1282.61 781.032 1283.76 786.82C1284.92 792.609 1287.76 797.926 1291.93 802.099C1296.11 806.272 1301.43 809.114 1307.21 810.266C1313 811.417 1319.01 810.826 1324.46 808.568C1329.91 806.309 1334.58 802.484 1337.85 797.577C1341.13 792.67 1342.88 786.901 1342.88 780.999C1342.88 773.087 1339.73 765.502 1334.13 759.908C1328.54 754.314 1320.95 751.167 1313.04 751.158Z" fill="#3F3D56"/>
<path d="M1313.04 1045.58C1330.62 1045.58 1344.87 1031.33 1344.87 1013.75C1344.87 996.174 1330.62 981.924 1313.04 981.924C1295.45 981.924 1281.2 996.174 1281.2 1013.75C1281.2 1031.33 1295.45 1045.58 1313.04 1045.58Z" fill="#0B5E22"/>
<path d="M781.76 1047.57C775.07 1047.57 768.53 1045.59 762.967 1041.87C757.404 1038.16 753.069 1032.88 750.509 1026.7C747.948 1020.52 747.278 1013.72 748.584 1007.16C749.889 1000.6 753.11 994.57 757.841 989.84C762.572 985.11 768.599 981.889 775.161 980.584C781.723 979.279 788.524 979.949 794.705 982.509C800.886 985.069 806.169 989.403 809.886 994.965C813.603 1000.53 815.587 1007.06 815.587 1013.75C815.577 1022.72 812.01 1031.32 805.668 1037.66C799.327 1044 790.729 1047.56 781.76 1047.57ZM781.76 983.913C775.857 983.913 770.086 985.663 765.178 988.942C760.27 992.221 756.444 996.882 754.185 1002.33C751.926 1007.79 751.335 1013.79 752.487 1019.58C753.638 1025.36 756.481 1030.68 760.655 1034.85C764.829 1039.03 770.148 1041.87 775.938 1043.02C781.727 1044.17 787.729 1043.58 793.182 1041.32C798.636 1039.06 803.298 1035.24 806.577 1030.33C809.857 1025.42 811.607 1019.66 811.607 1013.75C811.599 1005.84 808.451 998.257 802.856 992.663C797.26 987.069 789.674 983.922 781.76 983.913Z" fill="#3F3D56"/>
<path d="M1175.74 794.924C1169.05 794.924 1162.51 792.941 1156.95 789.225C1151.38 785.509 1147.05 780.227 1144.49 774.047C1141.93 767.868 1141.26 761.068 1142.56 754.507C1143.87 747.947 1147.09 741.921 1151.82 737.192C1156.55 732.462 1162.58 729.241 1169.14 727.936C1175.7 726.631 1182.5 727.301 1188.69 729.86C1194.87 732.42 1200.15 736.755 1203.87 742.316C1207.58 747.878 1209.57 754.416 1209.57 761.105C1209.56 770.072 1205.99 778.668 1199.65 785.008C1193.31 791.348 1184.71 794.914 1175.74 794.924ZM1175.74 731.265C1169.84 731.265 1164.07 733.015 1159.16 736.294C1154.25 739.573 1150.42 744.233 1148.17 749.686C1145.91 755.138 1145.32 761.138 1146.47 766.927C1147.62 772.715 1150.46 778.032 1154.64 782.206C1158.81 786.379 1164.13 789.221 1169.92 790.372C1175.71 791.524 1181.71 790.933 1187.16 788.674C1192.62 786.416 1197.28 782.591 1200.56 777.684C1203.84 772.776 1205.59 767.007 1205.59 761.105C1205.58 753.194 1202.43 745.609 1196.84 740.015C1191.24 734.42 1183.65 731.274 1175.74 731.265Z" fill="#3F3D56"/>
<path d="M250.48 713.36C242.609 713.36 234.915 715.694 228.37 720.066C221.826 724.438 216.725 730.652 213.713 737.922C210.701 745.192 209.913 753.192 211.448 760.91C212.984 768.628 216.774 775.717 222.34 781.281C227.905 786.846 234.996 790.635 242.716 792.17C250.436 793.705 258.437 792.918 265.709 789.906C272.981 786.895 279.196 781.795 283.569 775.252C287.942 768.709 290.276 761.017 290.276 753.148C290.245 742.605 286.042 732.503 278.586 725.048C271.129 717.593 261.025 713.391 250.48 713.36ZM250.48 725.297C252.841 725.297 255.149 725.997 257.113 727.308C259.076 728.62 260.606 730.484 261.51 732.665C262.413 734.846 262.65 737.246 262.189 739.561C261.729 741.877 260.592 744.004 258.922 745.673C257.252 747.342 255.125 748.479 252.809 748.939C250.493 749.4 248.093 749.164 245.911 748.26C243.729 747.357 241.865 745.827 240.553 743.864C239.241 741.901 238.541 739.593 238.541 737.233C238.551 734.07 239.813 731.04 242.049 728.804C244.286 726.568 247.317 725.307 250.48 725.297ZM250.48 782.758C245.763 782.737 241.124 781.565 236.963 779.345C232.802 777.125 229.245 773.924 226.602 770.019C226.793 762.061 242.521 757.681 250.48 757.681C258.439 757.681 274.166 762.061 274.358 770.019C271.711 773.921 268.154 777.12 263.994 779.34C259.834 781.559 255.195 782.733 250.48 782.758Z" fill="#3F3D56"/>
<path d="M387.777 170.266C379.906 170.266 372.212 172.599 365.667 176.971C359.123 181.343 354.022 187.557 351.01 194.827C347.998 202.097 347.21 210.097 348.745 217.815C350.281 225.533 354.071 232.622 359.637 238.187C365.202 243.751 372.293 247.54 380.013 249.075C387.733 250.611 395.734 249.823 403.006 246.811C410.278 243.8 416.493 238.7 420.866 232.157C425.239 225.614 427.573 217.922 427.573 210.053C427.542 199.51 423.339 189.408 415.883 181.953C408.426 174.498 398.322 170.296 387.777 170.266ZM387.777 182.202C390.138 182.202 392.446 182.902 394.41 184.213C396.373 185.525 397.903 187.389 398.807 189.57C399.71 191.751 399.947 194.151 399.486 196.467C399.025 198.782 397.888 200.909 396.219 202.578C394.549 204.247 392.422 205.384 390.106 205.845C387.79 206.305 385.389 206.069 383.208 205.165C381.026 204.262 379.162 202.732 377.85 200.769C376.538 198.806 375.838 196.499 375.838 194.138C375.848 190.976 377.11 187.946 379.346 185.709C381.583 183.473 384.614 182.212 387.777 182.202ZM387.777 239.664C383.06 239.642 378.421 238.471 374.26 236.251C370.099 234.031 366.542 230.829 363.899 226.924C364.09 218.967 379.817 214.586 387.777 214.586C395.736 214.586 411.463 218.967 411.654 226.924C409.008 230.826 405.451 234.025 401.291 236.245C397.131 238.465 392.492 239.638 387.777 239.664Z" fill="#3F3D56"/>
<path d="M1137.93 33C1130.06 33 1122.37 35.3335 1115.82 39.7054C1109.28 44.0772 1104.18 50.2911 1101.17 57.5613C1098.15 64.8314 1097.37 72.8313 1098.9 80.5493C1100.44 88.2672 1104.23 95.3566 1109.79 100.921C1115.36 106.485 1122.45 110.275 1130.17 111.81C1137.89 113.345 1145.89 112.557 1153.16 109.546C1160.43 106.534 1166.65 101.435 1171.02 94.8917C1175.4 88.3488 1177.73 80.6563 1177.73 72.7872C1177.7 62.2444 1173.5 52.1423 1166.04 44.6875C1158.58 37.2326 1148.48 33.0309 1137.93 33ZM1137.93 44.9362C1140.29 44.9362 1142.6 45.6362 1144.57 46.9478C1146.53 48.2593 1148.06 50.1235 1148.96 52.3045C1149.87 54.4856 1150.1 56.8856 1149.64 59.2009C1149.18 61.5163 1148.04 63.6431 1146.37 65.3124C1144.71 66.9817 1142.58 68.1185 1140.26 68.5791C1137.95 69.0397 1135.55 68.8033 1133.36 67.8999C1131.18 66.9965 1129.32 65.4666 1128.01 63.5037C1126.69 61.5408 1125.99 59.2331 1125.99 56.8723C1126 53.7099 1127.27 50.68 1129.5 48.4438C1131.74 46.2077 1134.77 44.9467 1137.93 44.9362ZM1137.93 102.398C1133.22 102.377 1128.58 101.205 1124.42 98.985C1120.25 96.765 1116.7 93.5636 1114.06 89.6585C1114.25 81.701 1129.97 77.3206 1137.93 77.3206C1145.89 77.3206 1161.62 81.701 1161.81 89.6585C1159.16 93.5606 1155.61 96.7598 1151.45 98.9794C1147.29 101.199 1142.65 102.372 1137.93 102.398Z" fill="#3F3D56"/>
<path d="M1595.59 468.67C1587.72 468.67 1580.03 471.003 1573.48 475.375C1566.94 479.747 1561.84 485.961 1558.83 493.231C1555.81 500.501 1555.03 508.501 1556.56 516.219C1558.1 523.937 1561.89 531.027 1567.45 536.591C1573.02 542.155 1580.11 545.945 1587.83 547.48C1595.55 549.015 1603.55 548.227 1610.82 545.216C1618.09 542.204 1624.31 537.105 1628.68 530.562C1633.06 524.019 1635.39 516.326 1635.39 508.457C1635.36 497.914 1631.16 487.812 1623.7 480.357C1616.24 472.903 1606.14 468.701 1595.59 468.67ZM1595.59 480.606C1597.95 480.606 1600.26 481.306 1602.23 482.618C1604.19 483.929 1605.72 485.793 1606.62 487.974C1607.53 490.155 1607.76 492.555 1607.3 494.871C1606.84 497.186 1605.7 499.313 1604.03 500.982C1602.37 502.652 1600.24 503.788 1597.92 504.249C1595.61 504.71 1593.21 504.473 1591.02 503.57C1588.84 502.666 1586.98 501.137 1585.67 499.174C1584.35 497.211 1583.65 494.903 1583.65 492.542C1583.66 489.38 1584.93 486.35 1587.16 484.114C1589.4 481.878 1592.43 480.617 1595.59 480.606ZM1595.59 538.068C1590.88 538.046 1586.24 536.875 1582.08 534.655C1577.91 532.435 1574.36 529.233 1571.72 525.328C1571.91 517.371 1587.63 512.991 1595.59 512.991C1603.55 512.991 1619.28 517.371 1619.47 525.328C1616.82 529.231 1613.27 532.43 1609.11 534.649C1604.95 536.869 1600.31 538.042 1595.59 538.068Z" fill="#3F3D56"/>
<path d="M1671.2 737.233C1663.33 737.233 1655.64 739.567 1649.09 743.939C1642.55 748.311 1637.45 754.525 1634.44 761.795C1631.42 769.065 1630.64 777.065 1632.17 784.783C1633.71 792.501 1637.5 799.59 1643.06 805.154C1648.63 810.719 1655.72 814.508 1663.44 816.043C1671.16 817.578 1679.16 816.791 1686.43 813.779C1693.7 810.768 1699.92 805.668 1704.29 799.125C1708.66 792.582 1711 784.89 1711 777.021C1710.97 766.478 1706.77 756.376 1699.31 748.921C1691.85 741.466 1681.75 737.264 1671.2 737.233ZM1671.2 749.17C1673.56 749.17 1675.87 749.87 1677.84 751.181C1679.8 752.493 1681.33 754.357 1682.23 756.538C1683.14 758.719 1683.37 761.119 1682.91 763.434C1682.45 765.75 1681.31 767.877 1679.64 769.546C1677.97 771.215 1675.85 772.352 1673.53 772.812C1671.22 773.273 1668.82 773.037 1666.63 772.133C1664.45 771.23 1662.59 769.7 1661.28 767.737C1659.96 765.774 1659.26 763.466 1659.26 761.106C1659.27 757.943 1660.54 754.913 1662.77 752.677C1665.01 750.441 1668.04 749.18 1671.2 749.17ZM1671.2 806.631C1666.49 806.61 1661.85 805.438 1657.69 803.218C1653.52 800.998 1649.97 797.797 1647.32 793.892C1647.52 785.934 1663.24 781.554 1671.2 781.554C1679.16 781.554 1694.89 785.934 1695.08 793.892C1692.43 797.794 1688.88 800.993 1684.72 803.213C1680.56 805.432 1675.92 806.606 1671.2 806.631Z" fill="#3F3D56"/>
<path d="M784.3 736.569L780.223 752.912C784.845 754.064 799.092 758.763 801.4 749.514C803.806 739.872 788.922 737.721 784.3 736.569Z" fill="#0B5E22"/>
<path d="M778.169 761.16L773.672 779.18C779.221 780.558 796.34 786.053 798.871 775.887C801.515 765.288 783.718 762.545 778.169 761.16Z" fill="#0B5E22"/>
<path d="M802.73 687.92C788.414 684.351 773.36 685.107 759.473 690.091C745.586 695.076 733.489 704.066 724.712 715.924C715.935 727.782 710.872 741.976 710.164 756.71C709.456 771.445 713.134 786.059 720.733 798.704C728.332 811.349 739.511 821.457 752.856 827.75C766.201 834.043 781.113 836.238 795.706 834.058C810.299 831.878 823.918 825.421 834.84 815.503C845.762 805.585 853.498 792.652 857.068 778.338C859.44 768.834 859.916 758.956 858.469 749.268C857.022 739.58 853.68 730.272 848.634 721.875C843.588 713.479 836.937 706.158 829.061 700.332C821.185 694.506 812.237 690.288 802.73 687.92ZM817.578 749.664C816.502 756.931 812.474 760.45 807.124 761.681C814.468 765.503 818.207 771.367 814.645 781.533C810.228 794.156 799.728 795.222 785.769 792.58L782.381 806.155L774.193 804.116L777.535 790.722C775.355 790.182 773.18 789.618 771.011 789.031L767.656 802.487L759.478 800.446L762.867 786.847C760.954 786.357 759.012 785.836 757.03 785.341L746.377 782.683L750.44 773.315C750.44 773.315 756.473 774.92 756.392 774.801C756.766 774.921 757.16 774.966 757.551 774.933C757.943 774.9 758.324 774.79 758.672 774.609C759.021 774.428 759.33 774.18 759.583 773.879C759.835 773.578 760.025 773.23 760.142 772.855L765.497 751.396C765.798 751.47 766.09 751.541 766.361 751.611C766.084 751.502 765.8 751.411 765.511 751.339L769.329 736.019C769.443 734.884 769.107 733.75 768.394 732.86C767.681 731.971 766.647 731.396 765.515 731.26C765.644 731.172 759.569 729.782 759.569 729.782L761.748 721.039L773.04 723.858L773.03 723.899C774.728 724.321 776.477 724.721 778.26 725.127L781.615 711.685L789.797 713.724L786.509 726.903C788.706 727.405 790.917 727.91 793.07 728.445L796.335 715.353L804.521 717.392L801.168 730.84C811.503 734.399 819.063 739.735 817.578 749.664Z" fill="#0B5E22"/>
</g>
</svg>
