<svg width="1502" height="1015" viewBox="0 0 1502 1015" fill="none" xmlns="http://www.w3.org/2000/svg">
<g opacity="0.1">
<path d="M178.776 232.755H174.797V445.616H178.776V232.755Z" fill="#3F3D56"/>
<path d="M178.776 508.979H174.797V696.275H178.776V508.979Z" fill="#3F3D56"/>
<path d="M477.249 726.115H168.828V730.094H477.249V726.115Z" fill="#3F3D56"/>
<path d="M41.4796 779.828H37.5V948.924H41.4796V779.828Z" fill="#3F3D56"/>
<path d="M540.922 978.764H73.3164V982.742H540.922V978.764Z" fill="#3F3D56"/>
<path d="M930.925 97.4785H926.945V298.404H930.925V97.4785Z" fill="#3F3D56"/>
<path d="M897.097 330.233H604.527V334.212H897.097V330.233Z" fill="#3F3D56"/>
<path d="M574.749 362.063H570.77V630.627H574.749V362.063Z" fill="#3F3D56"/>
<path d="M176.788 511.265C170.097 511.265 163.557 509.282 157.995 505.566C152.432 501.85 148.096 496.568 145.536 490.388C142.976 484.208 142.306 477.409 143.611 470.848C144.916 464.288 148.138 458.262 152.869 453.532C157.599 448.803 163.627 445.582 170.188 444.277C176.75 442.972 183.552 443.642 189.733 446.201C195.914 448.761 201.197 453.096 204.914 458.657C208.631 464.219 210.615 470.757 210.615 477.446C210.605 486.412 207.037 495.009 200.696 501.349C194.354 507.689 185.756 511.255 176.788 511.265ZM176.788 447.606C170.885 447.606 165.114 449.356 160.206 452.635C155.297 455.914 151.472 460.574 149.213 466.027C146.953 471.479 146.362 477.479 147.514 483.268C148.666 489.056 151.508 494.373 155.683 498.546C159.857 502.72 165.175 505.562 170.965 506.713C176.755 507.864 182.756 507.274 188.21 505.015C193.664 502.756 198.325 498.932 201.605 494.024C204.884 489.117 206.635 483.348 206.635 477.446C206.626 469.535 203.479 461.95 197.883 456.355C192.288 450.761 184.701 447.614 176.788 447.606Z" fill="#3F3D56"/>
<path d="M41.4792 1014.57C34.7889 1014.57 28.2488 1012.59 22.686 1008.87C17.1232 1005.16 12.7876 999.875 10.2273 993.696C7.66701 987.516 6.99711 980.716 8.30233 974.156C9.60754 967.596 12.8293 961.57 17.56 956.84C22.2908 952.11 28.3181 948.889 34.8798 947.584C41.4416 946.279 48.2431 946.949 54.4241 949.509C60.6051 952.069 65.8882 956.403 69.6051 961.965C73.322 967.526 75.3059 974.065 75.3059 980.754C75.2959 989.72 71.7288 998.316 65.3872 1004.66C59.0457 1011 50.4475 1014.56 41.4792 1014.57ZM41.4792 950.913C35.576 950.913 29.8053 952.663 24.897 955.942C19.9886 959.221 16.163 963.882 13.9039 969.334C11.6449 974.787 11.0538 980.787 12.2055 986.575C13.3572 992.364 16.1998 997.681 20.374 1001.85C24.5482 1006.03 29.8665 1008.87 35.6563 1010.02C41.446 1011.17 47.4473 1010.58 52.9011 1008.32C58.355 1006.06 63.0165 1002.24 66.2962 997.332C69.5758 992.425 71.3263 986.656 71.3263 980.754C71.3175 972.842 68.1701 965.257 62.5746 959.663C56.979 954.069 49.3924 950.922 41.4792 950.913Z" fill="#3F3D56"/>
<path d="M178.776 759.935C196.359 759.935 210.613 745.684 210.613 728.105C210.613 710.526 196.359 696.275 178.776 696.275C161.193 696.275 146.939 710.526 146.939 728.105C146.939 745.684 161.193 759.935 178.776 759.935Z" fill="#0B5E22"/>
<path d="M1330.88 475.456H1000.57V479.435H1330.88V475.456Z" fill="#3F3D56"/>
<path d="M970.722 508.979H966.742V696.275H970.722V508.979Z" fill="#3F3D56"/>
<path d="M934.904 726.115H670.26V730.094H934.904V726.115Z" fill="#3F3D56"/>
<path d="M1410.47 744.02H1135.88V747.998H1410.47V744.02Z" fill="#3F3D56"/>
<path d="M1108.02 779.828H1104.04V948.924H1108.02V779.828Z" fill="#3F3D56"/>
<path d="M1072.2 978.764H604.596V982.742H1072.2V978.764Z" fill="#3F3D56"/>
<path d="M574.749 825.584H570.77V948.924H574.749V825.584Z" fill="#3F3D56"/>
<path d="M968.731 509.276C986.315 509.276 1000.57 495.025 1000.57 477.446C1000.57 459.867 986.315 445.616 968.731 445.616C951.148 445.616 936.895 459.867 936.895 477.446C936.895 495.025 951.148 509.276 968.731 509.276Z" fill="#0B5E22"/>
<path d="M928.936 364.052C922.246 364.052 915.706 362.069 910.143 358.353C904.58 354.637 900.245 349.355 897.684 343.175C895.124 336.996 894.454 330.196 895.759 323.635C897.065 317.075 900.286 311.049 905.017 306.319C909.748 301.59 915.775 298.369 922.337 297.064C928.899 295.759 935.7 296.429 941.881 298.988C948.062 301.548 953.345 305.883 957.062 311.444C960.779 317.006 962.763 323.544 962.763 330.233C962.753 339.199 959.186 347.796 952.844 354.136C946.503 360.476 937.904 364.042 928.936 364.052ZM928.936 300.393C923.033 300.393 917.262 302.143 912.354 305.422C907.446 308.701 903.62 313.361 901.361 318.814C899.102 324.266 898.511 330.266 899.662 336.055C900.814 341.843 903.657 347.16 907.831 351.334C912.005 355.507 917.324 358.349 923.113 359.5C928.903 360.652 934.904 360.061 940.358 357.802C945.812 355.544 950.473 351.719 953.753 346.812C957.033 341.904 958.783 336.135 958.783 330.233C958.774 322.322 955.627 314.737 950.032 309.143C944.436 303.548 936.849 300.402 928.936 300.393Z" fill="#3F3D56"/>
<path d="M572.758 364.052C566.068 364.052 559.528 362.069 553.965 358.353C548.402 354.637 544.067 349.355 541.507 343.175C538.946 336.996 538.276 330.196 539.582 323.635C540.887 317.075 544.109 311.049 548.839 306.319C553.57 301.59 559.597 298.369 566.159 297.064C572.721 295.759 579.522 296.429 585.703 298.988C591.884 301.548 597.167 305.883 600.884 311.444C604.601 317.006 606.585 323.544 606.585 330.233C606.575 339.199 603.008 347.796 596.666 354.136C590.325 360.476 581.727 364.042 572.758 364.052ZM572.758 300.393C566.855 300.393 561.085 302.143 556.176 305.422C551.268 308.701 547.442 313.361 545.183 318.814C542.924 324.266 542.333 330.266 543.485 336.055C544.636 341.843 547.479 347.16 551.653 351.334C555.828 355.507 561.146 358.349 566.936 359.5C572.725 360.652 578.727 360.061 584.18 357.802C589.634 355.544 594.296 351.719 597.575 346.812C600.855 341.904 602.606 336.135 602.606 330.233C602.597 322.322 599.449 314.737 593.854 309.143C588.258 303.548 580.672 300.402 572.758 300.393Z" fill="#3F3D56"/>
<path d="M1104.04 781.818C1097.35 781.818 1090.81 779.834 1085.24 776.118C1079.68 772.402 1075.35 767.12 1072.79 760.941C1070.23 754.761 1069.56 747.961 1070.86 741.401C1072.17 734.841 1075.39 728.815 1080.12 724.085C1084.85 719.355 1090.88 716.134 1097.44 714.83C1104 713.525 1110.8 714.194 1116.98 716.754C1123.16 719.314 1128.45 723.648 1132.16 729.21C1135.88 734.771 1137.86 741.31 1137.86 747.999C1137.85 756.965 1134.29 765.561 1127.95 771.901C1121.6 778.242 1113.01 781.808 1104.04 781.818ZM1104.04 718.158C1098.13 718.158 1092.36 719.909 1087.46 723.187C1082.55 726.466 1078.72 731.127 1076.46 736.579C1074.2 742.032 1073.61 748.032 1074.76 753.82C1075.92 759.609 1078.76 764.926 1082.93 769.099C1087.11 773.272 1092.43 776.114 1098.21 777.266C1104 778.417 1110.01 777.826 1115.46 775.568C1120.91 773.309 1125.58 769.484 1128.85 764.577C1132.13 759.67 1133.88 753.901 1133.88 747.999C1133.88 740.087 1130.73 732.502 1125.13 726.908C1119.54 721.314 1111.95 718.167 1104.04 718.158Z" fill="#3F3D56"/>
<path d="M1104.04 1012.58C1121.62 1012.58 1135.88 998.333 1135.88 980.754C1135.88 963.174 1121.62 948.924 1104.04 948.924C1086.46 948.924 1072.2 963.174 1072.2 980.754C1072.2 998.333 1086.46 1012.58 1104.04 1012.58Z" fill="#0B5E22"/>
<path d="M572.758 1014.57C566.068 1014.57 559.528 1012.59 553.965 1008.87C548.402 1005.16 544.067 999.875 541.507 993.696C538.946 987.516 538.276 980.716 539.582 974.156C540.887 967.596 544.109 961.57 548.839 956.84C553.57 952.11 559.597 948.889 566.159 947.584C572.721 946.279 579.522 946.949 585.703 949.509C591.884 952.069 597.167 956.403 600.884 961.965C604.601 967.526 606.585 974.065 606.585 980.754C606.575 989.72 603.008 998.316 596.666 1004.66C590.325 1011 581.727 1014.56 572.758 1014.57ZM572.758 950.913C566.855 950.913 561.085 952.663 556.176 955.942C551.268 959.221 547.442 963.882 545.183 969.334C542.924 974.787 542.333 980.787 543.485 986.575C544.636 992.364 547.479 997.681 551.653 1001.85C555.828 1006.03 561.146 1008.87 566.936 1010.02C572.725 1011.17 578.727 1010.58 584.18 1008.32C589.634 1006.06 594.296 1002.24 597.575 997.332C600.855 992.425 602.606 986.656 602.606 980.754C602.597 972.842 599.449 965.257 593.854 959.663C588.258 954.069 580.672 950.922 572.758 950.913Z" fill="#3F3D56"/>
<path d="M966.741 761.924C960.051 761.924 953.51 759.941 947.948 756.225C942.385 752.509 938.049 747.227 935.489 741.047C932.929 734.868 932.259 728.068 933.564 721.507C934.869 714.947 938.091 708.921 942.822 704.192C947.552 699.462 953.58 696.241 960.142 694.936C966.703 693.631 973.505 694.301 979.686 696.86C985.867 699.42 991.15 703.755 994.867 709.316C998.584 714.878 1000.57 721.416 1000.57 728.105C1000.56 737.072 996.99 745.668 990.649 752.008C984.307 758.348 975.709 761.914 966.741 761.924ZM966.741 698.265C960.838 698.265 955.067 700.015 950.159 703.294C945.25 706.573 941.425 711.233 939.166 716.686C936.907 722.138 936.315 728.138 937.467 733.927C938.619 739.715 941.462 745.032 945.636 749.206C949.81 753.379 955.128 756.221 960.918 757.372C966.708 758.524 972.709 757.933 978.163 755.674C983.617 753.416 988.278 749.591 991.558 744.684C994.837 739.776 996.588 734.007 996.588 728.105C996.579 720.194 993.432 712.609 987.836 707.015C982.241 701.42 974.654 698.274 966.741 698.265Z" fill="#3F3D56"/>
<path d="M41.4798 680.36C33.6089 680.36 25.9147 682.694 19.3702 687.066C12.8258 691.438 7.72496 697.652 4.71288 704.922C1.7008 712.192 0.912751 720.192 2.4483 727.91C3.98384 735.628 7.77407 742.717 13.3397 748.281C18.9053 753.846 25.9963 757.635 33.716 759.17C41.4357 760.705 49.4373 759.918 56.7091 756.906C63.9809 753.895 70.1963 748.795 74.5691 742.252C78.942 735.709 81.276 728.017 81.276 720.148C81.2451 709.605 77.0424 699.503 69.5859 692.048C62.1293 684.593 52.0249 680.391 41.4798 680.36ZM41.4798 692.297C43.8411 692.297 46.1494 692.997 48.1127 694.308C50.076 695.62 51.6062 697.484 52.5099 699.665C53.4135 701.846 53.6499 704.246 53.1892 706.561C52.7286 708.877 51.5915 711.004 49.9219 712.673C48.2522 714.342 46.1248 715.479 43.8089 715.939C41.493 716.4 39.0925 716.164 36.911 715.26C34.7294 714.357 32.8648 712.827 31.553 710.864C30.2411 708.901 29.5409 706.593 29.5409 704.233C29.5515 701.07 30.8127 698.04 33.0494 695.804C35.2861 693.568 38.3167 692.307 41.4798 692.297ZM41.4798 749.758C36.7635 749.737 32.1236 748.565 27.9627 746.345C23.8018 744.125 20.2454 740.924 17.6021 737.019C17.7934 729.061 33.5206 724.681 41.4798 724.681C49.439 724.681 65.1662 729.061 65.3575 737.019C62.7112 740.921 59.1542 744.12 54.9939 746.34C50.8336 748.559 46.1953 749.733 41.4798 749.758Z" fill="#3F3D56"/>
<path d="M178.777 137.266C170.906 137.266 163.212 139.599 156.667 143.971C150.123 148.343 145.022 154.557 142.01 161.827C138.998 169.097 138.21 177.097 139.745 184.815C141.281 192.533 145.071 199.622 150.637 205.187C156.202 210.751 163.293 214.54 171.013 216.075C178.733 217.611 186.734 216.823 194.006 213.811C201.278 210.8 207.493 205.7 211.866 199.157C216.239 192.614 218.573 184.922 218.573 177.053C218.542 166.51 214.339 156.408 206.883 148.953C199.426 141.498 189.322 137.296 178.777 137.266ZM178.777 149.202C181.138 149.202 183.446 149.902 185.41 151.213C187.373 152.525 188.903 154.389 189.807 156.57C190.71 158.751 190.947 161.151 190.486 163.467C190.025 165.782 188.888 167.909 187.219 169.578C185.549 171.247 183.422 172.384 181.106 172.845C178.79 173.305 176.389 173.069 174.208 172.165C172.026 171.262 170.162 169.732 168.85 167.769C167.538 165.806 166.838 163.499 166.838 161.138C166.848 157.976 168.11 154.946 170.346 152.709C172.583 150.473 175.614 149.212 178.777 149.202ZM178.777 206.664C174.06 206.642 169.421 205.471 165.26 203.251C161.099 201.031 157.542 197.829 154.899 193.924C155.09 185.967 170.817 181.586 178.777 181.586C186.736 181.586 202.463 185.967 202.654 193.924C200.008 197.826 196.451 201.025 192.291 203.245C188.131 205.465 183.492 206.638 178.777 206.664Z" fill="#3F3D56"/>
<path d="M928.935 0C921.064 0 913.37 2.33349 906.825 6.70536C900.281 11.0772 895.18 17.2911 892.168 24.5613C889.156 31.8314 888.368 39.8313 889.903 47.5493C891.439 55.2672 895.229 62.3566 900.795 67.921C906.36 73.4853 913.451 77.2747 921.171 78.8099C928.891 80.345 936.892 79.5571 944.164 76.5457C951.436 73.5343 957.651 68.4347 962.024 61.8917C966.397 55.3488 968.731 47.6563 968.731 39.7872C968.7 29.2444 964.498 19.1423 957.041 11.6875C949.584 4.23262 939.48 0.0308597 928.935 0ZM928.935 11.9362C931.296 11.9362 933.604 12.6362 935.568 13.9478C937.531 15.2593 939.061 17.1235 939.965 19.3045C940.869 21.4856 941.105 23.8856 940.644 26.2009C940.184 28.5163 939.047 30.6431 937.377 32.3124C935.707 33.9817 933.58 35.1185 931.264 35.5791C928.948 36.0397 926.548 35.8033 924.366 34.8999C922.184 33.9965 920.32 32.4666 919.008 30.5037C917.696 28.5408 916.996 26.2331 916.996 23.8723C917.007 20.7099 918.268 17.68 920.504 15.4438C922.741 13.2077 925.772 11.9467 928.935 11.9362ZM928.935 69.398C924.219 69.3765 919.579 68.205 915.418 65.985C911.257 63.765 907.701 60.5636 905.057 56.6585C905.249 48.701 920.976 44.3206 928.935 44.3206C936.894 44.3206 952.621 48.701 952.813 56.6585C950.166 60.5606 946.609 63.7598 942.449 65.9794C938.289 68.199 933.65 69.3724 928.935 69.398Z" fill="#3F3D56"/>
<path d="M1386.59 435.67C1378.72 435.67 1371.03 438.003 1364.48 442.375C1357.94 446.747 1352.84 452.961 1349.82 460.231C1346.81 467.501 1346.02 475.501 1347.56 483.219C1349.1 490.937 1352.89 498.027 1358.45 503.591C1364.02 509.155 1371.11 512.945 1378.83 514.48C1386.55 516.015 1394.55 515.227 1401.82 512.216C1409.09 509.204 1415.31 504.105 1419.68 497.562C1424.05 491.019 1426.39 483.326 1426.39 475.457C1426.36 464.914 1422.15 454.812 1414.7 447.357C1407.24 439.903 1397.14 435.701 1386.59 435.67ZM1386.59 447.606C1388.95 447.606 1391.26 448.306 1393.22 449.618C1395.19 450.929 1396.72 452.793 1397.62 454.974C1398.52 457.155 1398.76 459.555 1398.3 461.871C1397.84 464.186 1396.7 466.313 1395.03 467.982C1393.36 469.652 1391.24 470.788 1388.92 471.249C1386.6 471.71 1384.2 471.473 1382.02 470.57C1379.84 469.666 1377.98 468.137 1376.66 466.174C1375.35 464.211 1374.65 461.903 1374.65 459.542C1374.66 456.38 1375.92 453.35 1378.16 451.114C1380.4 448.878 1383.43 447.617 1386.59 447.606ZM1386.59 505.068C1381.87 505.046 1377.23 503.875 1373.07 501.655C1368.91 499.435 1365.36 496.233 1362.71 492.328C1362.9 484.371 1378.63 479.991 1386.59 479.991C1394.55 479.991 1410.28 484.371 1410.47 492.328C1407.82 496.231 1404.27 499.43 1400.11 501.649C1395.94 503.869 1391.31 505.042 1386.59 505.068Z" fill="#3F3D56"/>
<path d="M1462.2 704.233C1454.33 704.233 1446.64 706.567 1440.09 710.939C1433.55 715.311 1428.45 721.525 1425.44 728.795C1422.43 736.065 1421.64 744.065 1423.17 751.783C1424.71 759.501 1428.5 766.59 1434.06 772.154C1439.63 777.719 1446.72 781.508 1454.44 783.043C1462.16 784.578 1470.16 783.791 1477.43 780.779C1484.71 777.768 1490.92 772.668 1495.29 766.125C1499.67 759.582 1502 751.89 1502 744.021C1501.97 733.478 1497.77 723.376 1490.31 715.921C1482.85 708.466 1472.75 704.264 1462.2 704.233ZM1462.2 716.17C1464.57 716.17 1466.87 716.87 1468.84 718.181C1470.8 719.493 1472.33 721.357 1473.23 723.538C1474.14 725.719 1474.37 728.119 1473.91 730.434C1473.45 732.75 1472.32 734.877 1470.65 736.546C1468.98 738.215 1466.85 739.352 1464.53 739.812C1462.22 740.273 1459.82 740.037 1457.64 739.133C1455.45 738.23 1453.59 736.7 1452.28 734.737C1450.97 732.774 1450.27 730.466 1450.27 728.106C1450.28 724.943 1451.54 721.913 1453.77 719.677C1456.01 717.441 1459.04 716.18 1462.2 716.17ZM1462.2 773.631C1457.49 773.61 1452.85 772.438 1448.69 770.218C1444.53 767.998 1440.97 764.797 1438.33 760.892C1438.52 752.934 1454.25 748.554 1462.2 748.554C1470.16 748.554 1485.89 752.934 1486.08 760.892C1483.44 764.794 1479.88 767.993 1475.72 770.213C1471.56 772.432 1466.92 773.606 1462.2 773.631Z" fill="#3F3D56"/>
<path d="M575.302 703.569L571.225 719.912C575.847 721.064 590.094 725.763 592.402 716.514C594.808 706.872 579.924 704.721 575.302 703.569Z" fill="#0B5E22"/>
<path d="M569.169 728.16L564.672 746.18C570.221 747.558 587.34 753.053 589.871 742.887C592.515 732.288 574.718 729.545 569.169 728.16Z" fill="#0B5E22"/>
<path d="M593.73 654.92C579.414 651.351 564.36 652.107 550.473 657.091C536.586 662.076 524.489 671.066 515.712 682.924C506.935 694.782 501.872 708.976 501.164 723.71C500.456 738.445 504.134 753.059 511.733 765.704C519.332 778.349 530.511 788.457 543.856 794.75C557.201 801.043 572.113 803.238 586.706 801.058C601.299 798.878 614.918 792.421 625.84 782.503C636.762 772.585 644.498 759.652 648.068 745.338C650.44 735.834 650.916 725.956 649.469 716.268C648.022 706.58 644.68 697.272 639.634 688.875C634.588 680.479 627.937 673.158 620.061 667.332C612.185 661.506 603.237 657.288 593.73 654.92ZM608.578 716.664C607.502 723.931 603.474 727.45 598.124 728.681C605.468 732.503 609.207 738.367 605.645 748.533C601.228 761.156 590.728 762.222 576.769 759.58L573.381 773.155L565.193 771.116L568.535 757.722C566.355 757.182 564.18 756.618 562.011 756.031L558.656 769.487L550.478 767.446L553.867 753.847C551.954 753.357 550.012 752.836 548.03 752.341L537.377 749.683L541.44 740.315C541.44 740.315 547.473 741.92 547.392 741.801C547.766 741.921 548.16 741.966 548.551 741.933C548.943 741.9 549.324 741.79 549.672 741.609C550.021 741.428 550.33 741.18 550.583 740.879C550.835 740.578 551.025 740.23 551.142 739.855L556.497 718.396C556.798 718.47 557.09 718.541 557.361 718.611C557.084 718.502 556.8 718.411 556.511 718.339L560.329 703.019C560.443 701.884 560.107 700.75 559.394 699.86C558.681 698.971 557.647 698.396 556.515 698.26C556.644 698.172 550.569 696.782 550.569 696.782L552.748 688.039L564.04 690.858L564.03 690.899C565.728 691.321 567.477 691.721 569.26 692.127L572.615 678.685L580.797 680.724L577.509 693.903C579.706 694.405 581.917 694.91 584.07 695.445L587.335 682.353L595.521 684.392L592.168 697.84C602.503 701.399 610.063 706.735 608.578 716.664Z" fill="#0B5E22"/>
</g>
</svg>
