<svg width="24" height="31" viewBox="0 0 24 31" fill="none" xmlns="http://www.w3.org/2000/svg">
<rect width="24" height="24" rx="8" fill="#2B65C6"/>
<g clip-path="url(#clip0_6398_18601)">
<path d="M19.3546 8.33827C19.3533 8.32227 19.352 8.30627 19.3506 8.29027C19.3466 8.24694 19.3426 8.2036 19.3366 8.16094C19.332 8.1276 19.3253 8.09294 19.3193 8.06027L19.0066 7.27627L18.402 5.7656C18.2073 5.27894 17.7373 4.96094 17.214 4.96094H6.78662C6.26329 4.96094 5.79329 5.2796 5.59862 5.7656L4.99396 7.27627L4.68129 8.06027C4.67462 8.09294 4.66862 8.1276 4.66396 8.16094C4.65796 8.2036 4.65396 8.24694 4.64996 8.29027C4.64862 8.30627 4.64729 8.32227 4.64596 8.33827C4.64262 8.38627 4.64062 8.43427 4.64062 8.48294V8.48427C4.64062 8.53294 4.64262 8.5816 4.64596 8.63027L4.64929 8.67094C4.65262 8.71227 4.65729 8.75294 4.66262 8.7936L4.66596 8.81694C4.67329 8.86427 4.68196 8.91094 4.69196 8.95694L4.69996 8.99227C4.70862 9.03027 4.71862 9.0676 4.72929 9.10494L4.73729 9.13427C4.75129 9.1796 4.76596 9.22427 4.78262 9.26827L4.79196 9.29094C4.80662 9.32894 4.82262 9.36627 4.83929 9.40294L4.85196 9.43094C4.87196 9.47427 4.89329 9.51694 4.91662 9.55827L4.91996 9.56494C4.94196 9.60427 4.96529 9.64294 4.98929 9.68094L5.00529 9.7056C5.05729 9.7856 5.11462 9.8616 5.17662 9.93427L5.19396 9.95427C5.22262 9.9876 5.25262 10.0203 5.28396 10.0516L5.29196 10.0596C5.32596 10.0936 5.36062 10.1269 5.39662 10.1583L5.41396 10.1729C5.44596 10.2003 5.47796 10.2269 5.51129 10.2529L5.52862 10.2663C5.56662 10.2949 5.60596 10.3229 5.64596 10.3496L5.65996 10.3583C5.69529 10.3816 5.73196 10.4036 5.76863 10.4249L5.79396 10.4389C5.83596 10.4623 5.87862 10.4849 5.92196 10.5056C6.21596 10.6456 6.54462 10.7243 6.89196 10.7243C7.38396 10.7243 7.83862 10.5669 8.20929 10.2996C8.44196 10.1316 8.74929 10.1316 8.98196 10.2996C9.35196 10.5669 9.80729 10.7243 10.2993 10.7243C10.7913 10.7243 11.246 10.5669 11.6166 10.2996C11.8493 10.1316 12.1566 10.1316 12.3893 10.2996C12.7593 10.5669 13.2146 10.7243 13.7066 10.7243C14.1986 10.7243 14.6533 10.5669 15.024 10.2996C15.2566 10.1316 15.564 10.1316 15.7966 10.2996C16.1666 10.5669 16.622 10.7243 17.114 10.7243C17.4613 10.7243 17.7906 10.6456 18.084 10.5056C18.1273 10.4849 18.17 10.4623 18.212 10.4389L18.2366 10.4249C18.2733 10.4036 18.31 10.3816 18.3453 10.3583L18.3593 10.3496C18.3993 10.3229 18.4386 10.2949 18.4766 10.2663L18.494 10.2529C18.5273 10.2269 18.56 10.2003 18.5913 10.1729L18.6086 10.1583C18.6446 10.1263 18.68 10.0936 18.714 10.0589L18.7213 10.0509C18.752 10.0196 18.782 9.98694 18.8113 9.9536L18.8286 9.9336C18.8906 9.86094 18.9473 9.78494 19 9.70494L19.0153 9.68094C19.0393 9.64294 19.0626 9.60427 19.0846 9.56494L19.088 9.55894C19.1106 9.51694 19.132 9.47427 19.1526 9.4316L19.1653 9.4036C19.182 9.36627 19.198 9.32894 19.2126 9.29094L19.2213 9.26827C19.238 9.22427 19.2526 9.1796 19.2666 9.13427L19.2726 9.11294C19.284 9.07227 19.2953 9.0316 19.3046 8.99094L19.3126 8.9576C19.3226 8.9116 19.3313 8.86494 19.3386 8.8176L19.3406 8.80027C19.3446 8.7656 19.35 8.73094 19.3526 8.6956C19.3546 8.67427 19.3566 8.65294 19.358 8.63094C19.3613 8.58227 19.3633 8.5336 19.3633 8.48494V8.4836C19.3633 8.43494 19.3613 8.38694 19.358 8.33894L19.3546 8.33827Z" fill="white"/>
<path d="M15.6906 11.3536C15.5113 11.2656 15.3026 11.2656 15.1233 11.3536C14.6866 11.5689 14.202 11.6843 13.7033 11.6843C13.2046 11.6843 12.72 11.5689 12.2833 11.3536C12.104 11.2656 11.8953 11.2656 11.716 11.3536C11.2793 11.5689 10.7946 11.6843 10.296 11.6843C9.79729 11.6843 9.31262 11.5689 8.87596 11.3536C8.69662 11.2656 8.48796 11.2656 8.30862 11.3536C7.87196 11.5689 7.38729 11.6843 6.88862 11.6843C6.55063 11.6843 6.22529 11.6316 5.91862 11.5343V17.7309C5.91862 18.4536 6.49329 19.0416 7.19862 19.0416H16.7986C17.504 19.0416 18.0786 18.4536 18.0786 17.7309V11.5343C17.7726 11.6309 17.4466 11.6843 17.1086 11.6843C16.61 11.6843 16.1253 11.5689 15.6886 11.3536H15.6906ZM15.2 15.8416C15.2 16.1951 14.9134 16.4816 14.56 16.4816H9.43996C9.0865 16.4816 8.79996 16.1951 8.79996 15.8416V13.9216C8.79996 13.5681 9.0865 13.2816 9.43996 13.2816H14.56C14.9134 13.2816 15.2 13.5681 15.2 13.9216V15.8416Z" fill="white"/>
</g>
<path d="M12.866 30.5C12.4811 31.1667 11.5189 31.1667 11.134 30.5L7.66987 24.5C7.28497 23.8333 7.7661 23 8.5359 23H15.4641C16.2339 23 16.715 23.8333 16.3301 24.5L12.866 30.5Z" fill="#2B65C6"/>
<defs>
<clipPath id="clip0_6398_18601">
<rect width="16" height="16" fill="white" transform="translate(4 4)"/>
</clipPath>
</defs>
</svg>
