<svg width="312" height="200" viewBox="0 0 312 200" fill="none" xmlns="http://www.w3.org/2000/svg">
<path d="M45.6831 29.6065C46.8629 29.6065 47.8194 28.6496 47.8194 27.4693C47.8194 26.2889 46.8629 25.332 45.6831 25.332C44.5033 25.332 43.5469 26.2889 43.5469 27.4693C43.5469 28.6496 44.5033 29.6065 45.6831 29.6065Z" fill="white"/>
<path d="M53.7925 29.6065C54.9723 29.6065 55.9288 28.6496 55.9288 27.4693C55.9288 26.2889 54.9723 25.332 53.7925 25.332C52.6127 25.332 51.6562 26.2889 51.6562 27.4693C51.6562 28.6496 52.6127 29.6065 53.7925 29.6065Z" fill="white"/>
<path d="M61.898 29.6065C63.0778 29.6065 64.0342 28.6496 64.0342 27.4693C64.0342 26.2889 63.0778 25.332 61.898 25.332C60.7181 25.332 59.7617 26.2889 59.7617 27.4693C59.7617 28.6496 60.7181 29.6065 61.898 29.6065Z" fill="white"/>
<path d="M311.767 32.4922H40.4922V34.0006H311.767V32.4922Z" fill="white"/>
<path d="M312 0.175781H0.132812V199.999H312V0.175781Z" fill="#E6E6E6"/>
<path d="M311.867 0H0V13.2553H311.867V0Z" fill="#0B5E22"/>
<path d="M303.34 23.9453H9.30859V100.12H303.34V23.9453Z" fill="white"/>
<path d="M303.528 112.641H9.49609V188.815H303.528V112.641Z" fill="white"/>
<path d="M267.728 40.7969H108.598V47.8923H267.728V40.7969Z" fill="#E6E6E6"/>
<path d="M165.335 58.5352H108.598V65.6306H165.335V58.5352Z" fill="#E6E6E6"/>
<path d="M221.629 76.2734H108.598V83.3689H221.629V76.2734Z" fill="#E6E6E6"/>
<path d="M96.6308 150.335C96.6393 155.501 95.1361 160.556 92.3068 164.877C91.7139 165.789 91.0642 166.662 90.3614 167.491C88.7135 169.444 86.794 171.151 84.6616 172.558C84.0817 172.943 83.4856 173.303 82.8732 173.638C79.6862 175.402 76.1684 176.485 72.5418 176.821C71.7176 176.902 70.8795 176.94 70.0341 176.94C67.717 176.942 65.4097 176.64 63.1711 176.042C61.9022 175.709 60.6609 175.277 59.4584 174.753C58.8438 174.487 58.2431 174.198 57.6563 173.886C56.2447 173.145 54.9038 172.276 53.6502 171.29C53.067 170.836 52.5047 170.357 51.9633 169.854C48.7243 166.851 46.2837 163.089 44.8617 158.906C43.4398 154.724 43.0813 150.253 43.8187 145.897C44.556 141.541 46.366 137.437 49.0852 133.956C51.8044 130.476 55.3472 127.727 59.3939 125.959C63.4406 124.19 67.8638 123.458 72.2641 123.828C76.6645 124.198 80.9035 125.658 84.5986 128.077C88.2937 130.496 91.3286 133.797 93.4292 137.683C95.5299 141.569 96.6302 145.917 96.6308 150.335V150.335Z" fill="#0B5E22"/>
<path d="M71.6666 137.914H68.4062V162.748H71.6666V137.914Z" fill="white"/>
<path d="M82.4475 148.699H57.625V151.961H82.4475V148.699Z" fill="white"/>
<path d="M263.74 129.488H104.609V136.584H263.74V129.488Z" fill="#E6E6E6"/>
<path d="M161.347 147.227H104.609V154.322H161.347V147.227Z" fill="#E6E6E6"/>
<path d="M217.641 164.965H104.609V172.06H217.641V164.965Z" fill="#E6E6E6"/>
<path d="M20.6253 8.78772C21.8357 8.78772 22.817 7.80602 22.817 6.59503C22.817 5.38404 21.8357 4.40234 20.6253 4.40234C19.4148 4.40234 18.4336 5.38404 18.4336 6.59503C18.4336 7.80602 19.4148 8.78772 20.6253 8.78772Z" fill="white"/>
<path d="M28.9456 8.78772C30.156 8.78772 31.1373 7.80602 31.1373 6.59503C31.1373 5.38404 30.156 4.40234 28.9456 4.40234C27.7352 4.40234 26.7539 5.38404 26.7539 6.59503C26.7539 7.80602 27.7352 8.78772 28.9456 8.78772Z" fill="white"/>
<path d="M12.2854 8.78772C13.4959 8.78772 14.4771 7.80602 14.4771 6.59503C14.4771 5.38404 13.4959 4.40234 12.2854 4.40234C11.075 4.40234 10.0938 5.38404 10.0938 6.59503C10.0938 7.80602 11.075 8.78772 12.2854 8.78772Z" fill="white"/>
<path d="M85.9796 83.4336C83.6551 82.208 81.2288 81.1865 78.7278 80.3804L78.409 76.8511L65.4757 75.457L63.832 79.9681L59.1906 81.7106C59.0245 81.7736 58.8664 81.856 58.7195 81.9561H58.7145C58.4555 82.1312 58.2349 82.3574 58.0662 82.6207C57.8974 82.884 57.7842 83.179 57.7332 83.4876C57.6837 83.7944 57.6954 84.1081 57.7677 84.4104L58.013 85.4167C58.3662 85.6277 58.7294 85.829 59.0923 86.0204L59.323 86.1382C59.853 86.4131 60.3927 86.6733 60.9471 86.9138C61.0599 86.9629 61.1826 87.012 61.2954 87.061C61.3052 87.066 61.31 87.066 61.3199 87.0709C61.58 87.1788 61.84 87.2819 62.1049 87.3801C62.9753 87.7127 63.863 87.9978 64.7642 88.2342C67.0642 88.8475 69.4344 89.1577 71.8147 89.157C72.6832 89.157 73.5418 89.1178 74.3906 89.0343C76.3301 88.8552 78.2447 88.4685 80.1017 87.8808C80.1065 87.8808 80.1116 87.8759 80.1164 87.8759C81.2894 87.502 82.4354 87.0477 83.5461 86.5162C83.5508 86.5113 83.5607 86.5113 83.5657 86.5064C83.8158 86.3886 84.0563 86.2609 84.3016 86.1382L84.4193 86.0793C84.6155 85.9762 84.8119 85.8732 85.0081 85.7652C85.4988 85.4952 85.9796 85.2105 86.4554 84.9061C86.5879 84.8276 86.7156 84.7442 86.848 84.6558C87.0344 84.5331 87.2208 84.4055 87.4024 84.2729C86.9461 83.9784 86.4703 83.6986 85.9796 83.4336Z" fill="#2E3252"/>
<path d="M61.7058 85.6062L60.8962 81.9492H58.7816C58.7603 81.9495 58.739 81.9512 58.7178 81.9541H58.7128C57.9529 82.0185 57.221 82.2716 56.5835 82.6904C56.1511 82.9666 55.7667 83.3114 55.4453 83.7114C56.0732 84.1876 56.7258 84.6293 57.3981 85.0515L57.4275 85.0662C57.6187 85.184 57.8151 85.3018 58.0114 85.4147C58.3645 85.6258 58.7277 85.827 59.0906 86.0185L59.3213 86.1363C59.8513 86.4112 60.391 86.6713 60.9454 86.9119C61.0582 86.9609 61.1809 87.01 61.2937 87.0591C61.3035 87.064 61.3084 87.064 61.3182 87.0689C61.5784 87.1769 61.8383 87.28 62.1033 87.3782L61.7058 85.6062Z" fill="#3F3D56"/>
<path d="M71.4357 73.2236C76.58 73.2236 80.7504 69.0514 80.7504 63.9048C80.7504 58.7581 76.58 54.5859 71.4357 54.5859C66.2914 54.5859 62.1211 58.7581 62.1211 63.9048C62.1211 69.0514 66.2914 73.2236 71.4357 73.2236Z" fill="#D7D8DF"/>
<path d="M65.1824 59.3676C66.1466 60.5092 67.7784 60.8314 69.2837 60.9634C72.803 61.1579 76.3324 60.8696 79.7736 60.1065C79.9868 62.1741 79.4054 64.4034 80.6227 66.1042C81.1933 64.0451 81.5251 61.9272 81.6116 59.7922C81.7024 58.8762 81.5829 57.9515 81.262 57.0888C81.0905 56.6564 80.8012 56.2809 80.4269 56.0048C80.0526 55.7288 79.6085 55.5633 79.1449 55.5272C79.8389 55.0005 80.6517 54.6529 81.5118 54.5149L78.5542 53.0279L79.3137 52.2478L73.9591 51.92L75.51 50.9343C73.1758 50.6134 70.8144 50.5388 68.4646 50.7118C67.3734 50.7922 66.2326 50.9458 65.3485 51.5783C64.4645 52.2108 63.9536 53.468 64.5024 54.3966C63.8153 54.5095 63.1683 54.796 62.6229 55.229C62.0774 55.662 61.6514 56.2272 61.3853 56.871C61.0489 57.8943 60.9677 58.9844 61.1487 60.0463C61.3505 61.75 61.7462 63.4251 62.3283 65.0389L65.1824 59.3676Z" fill="#151830"/>
<path d="M97.6278 53.8052C96.3209 50.049 94.2107 46.6232 91.4445 43.7668C88.6783 40.9103 85.3225 38.692 81.6112 37.2663C77.9 35.8407 73.9226 35.2422 69.9563 35.5124C65.9901 35.7827 62.1305 36.9153 58.6468 38.8312C55.163 40.7471 52.1389 43.4002 49.7853 46.6055C47.4318 49.8108 45.8054 53.4912 45.0197 57.39C44.2339 61.2887 44.3077 65.312 45.2359 69.1794C46.164 73.0467 47.9242 76.6648 50.3937 79.7816C50.6391 80.0909 50.8942 80.4001 51.1544 80.6996C51.174 80.7192 51.1886 80.7388 51.2083 80.7585C51.8478 81.4957 52.5276 82.1971 53.2444 82.8594C53.431 83.0312 53.6272 83.2079 53.8234 83.3748C54.1962 83.7086 54.579 84.0276 54.9765 84.332C55.1334 84.4547 55.2855 84.5774 55.4475 84.6952C56.0754 85.1713 56.728 85.6131 57.4002 86.0353L57.4297 86.05C57.6209 86.1678 57.8173 86.2856 58.0135 86.3985C58.3667 86.6096 58.7299 86.8108 59.0928 87.0023L59.3235 87.1201C59.8535 87.3949 60.3932 87.6551 60.9476 87.8956C61.0604 87.9447 61.1831 87.9938 61.2959 88.0429C61.3057 88.0478 61.3106 88.0478 61.3204 88.0527C61.5805 88.1607 61.8405 88.2638 62.1054 88.3619C62.9758 88.6945 63.8635 88.9796 64.7647 89.216C67.0647 89.8293 69.4349 90.1396 71.8153 90.1389C72.6837 90.1389 73.5423 90.0996 74.3911 90.0161C76.3306 89.837 78.2452 89.4503 80.1023 88.8626C80.107 88.8626 80.1121 88.8577 80.1169 88.8577C81.29 88.4838 82.4359 88.0295 83.5466 87.498C83.5514 87.4931 83.5612 87.4931 83.5662 87.4882C83.8163 87.3704 84.0568 87.2428 84.3022 87.1201L84.4198 87.0612C84.616 86.9581 84.8124 86.855 85.0087 86.747C85.4993 86.477 85.9801 86.1923 86.4559 85.888C86.5884 85.8094 86.7161 85.726 86.8486 85.6377C87.0349 85.5149 87.2213 85.3873 87.4029 85.2548C87.6432 85.0879 87.8837 84.9161 88.1193 84.7394C88.1928 84.6854 88.2714 84.6314 88.3449 84.5725C92.9416 81.0819 96.3156 76.2249 97.9832 70.6978C99.6508 65.1707 99.5263 59.2572 97.6278 53.8052ZM87.4422 83.3797C87.2802 83.5073 87.1135 83.63 86.9465 83.7429C86.7845 83.8656 86.6228 83.9834 86.4559 84.0914C86.3136 84.1945 86.1712 84.2927 86.0241 84.3859L85.9801 84.4154C85.872 84.489 85.7642 84.5577 85.6562 84.6265C85.2489 84.8817 84.8368 85.1271 84.4198 85.3628C84.3757 85.3873 84.3313 85.4119 84.2873 85.4364C84.1009 85.5395 83.9145 85.6376 83.7281 85.7358C83.7034 85.7506 83.674 85.7604 83.6495 85.7751L83.6201 85.7898C83.3846 85.9125 83.144 86.0303 82.9037 86.1432C81.976 86.5902 81.0205 86.9772 80.0433 87.3017C79.9156 87.3459 79.7881 87.39 79.6607 87.4293C77.903 87.9886 76.0903 88.3572 74.2538 88.5289C73.4491 88.6025 72.6345 88.6418 71.8152 88.6418C69.5638 88.6464 67.3217 88.3526 65.1475 87.768C64.0316 87.4766 62.938 87.1059 61.8749 86.6587C61.8208 86.6341 61.7619 86.6145 61.708 86.5899C61.6493 86.5654 61.5951 86.5458 61.5412 86.5212C61.4823 86.4967 61.4284 86.4721 61.3694 86.4427C60.9083 86.2414 60.4519 86.0205 60.0056 85.7898L59.7897 85.6769C59.2449 85.3922 58.7102 85.0879 58.1901 84.7639C58.038 84.6706 57.881 84.5725 57.7337 84.4694C57.6947 84.4449 57.6602 84.4203 57.6209 84.3958C57.2725 84.165 56.9242 83.9245 56.5857 83.6742C56.3552 83.5024 56.1245 83.3306 55.8988 83.1539C55.521 82.8692 55.1578 82.5648 54.8047 82.2507C54.6183 82.0936 54.4367 81.9218 54.2601 81.7598C53.5645 81.1172 52.9059 80.4354 52.2878 79.7178C52.0817 79.4822 51.8805 79.2466 51.6891 79.0012C51.6456 78.9526 51.6046 78.9018 51.5664 78.849C48.3786 74.8245 46.4611 69.9413 46.0586 64.8221C45.656 59.7029 46.7867 54.5797 49.3063 50.106C51.8259 45.6323 55.6203 42.0108 60.2056 39.7033C64.7908 37.3958 69.9592 36.5069 75.0514 37.15C80.1437 37.7931 84.9291 39.939 88.7974 43.3141C92.6657 46.6892 95.4415 51.1404 96.7708 56.1002C98.1002 61.06 97.9228 66.3035 96.2614 71.1621C94.5999 76.0206 91.5297 80.2739 87.4422 83.3797Z" fill="#3F3D56"/>
</svg>
