<svg width="104" height="160" viewBox="0 0 104 160" fill="none" xmlns="http://www.w3.org/2000/svg">
<g clip-path="url(#clip0_6871_121623)">
<path d="M50.867 159.821C55.4383 159.821 59.1441 156.109 59.1441 151.531C59.1441 146.952 55.4383 143.24 50.867 143.24C46.2956 143.24 42.5898 146.952 42.5898 151.531C42.5898 156.109 46.2956 159.821 50.867 159.821Z" fill="#0B5E22"/>
<path d="M51.8596 102.281C80.0587 102.281 102.918 79.3849 102.918 51.1407C102.918 22.8965 80.0587 0 51.8596 0C23.6606 0 0.800781 22.8965 0.800781 51.1407C0.800781 79.3849 23.6606 102.281 51.8596 102.281Z" fill="#0B5E22"/>
<path d="M52.3594 134.276L36.2285 106.677L20.0977 79.0772L52.0268 78.8848L83.9559 78.6924L68.1577 106.484L52.3594 134.276Z" fill="#0B5E22"/>
<path d="M52.2684 69.1677C62.3858 69.1677 70.5875 60.9528 70.5875 50.8192C70.5875 40.6856 62.3858 32.4707 52.2684 32.4707C42.151 32.4707 33.9492 40.6856 33.9492 50.8192C33.9492 60.9528 42.151 69.1677 52.2684 69.1677Z" fill="white"/>
</g>
<defs>
<clipPath id="clip0_6871_121623">
<rect width="102.4" height="160" fill="white" transform="translate(0.800781)"/>
</clipPath>
</defs>
</svg>
