<svg width="280" height="274" viewBox="0 0 280 274" fill="none" xmlns="http://www.w3.org/2000/svg">
<g clip-path="url(#clip0_1045_27858)">
<path d="M177.755 61.7576H102.308C100.588 61.7597 98.94 62.4441 97.7243 63.6607C96.5086 64.8773 95.8246 66.5268 95.8225 68.2473V236.05L94.9579 236.314L76.4493 241.986C75.5721 242.253 74.6247 242.162 73.8149 241.731C73.0052 241.3 72.3993 240.566 72.1303 239.688L17.0758 59.7285C16.8079 58.8507 16.8992 57.9024 17.3297 57.0919C17.7602 56.2814 18.4946 55.6752 19.3716 55.4064L47.8932 46.6669L130.579 21.3397L159.1 12.6002C159.534 12.4665 159.99 12.4198 160.442 12.4627C160.894 12.5056 161.334 12.6374 161.735 12.8504C162.136 13.0633 162.491 13.3534 162.78 13.7039C163.069 14.0545 163.286 14.4586 163.419 14.8932L177.492 60.8923L177.755 61.7576Z" fill="#EFEFF2"/>
<path d="M194.219 60.8924L177.258 5.45289C176.976 4.52916 176.515 3.67013 175.901 2.92489C175.287 2.17964 174.532 1.56279 173.68 1.10957C172.827 0.656352 171.894 0.375652 170.933 0.283521C169.972 0.191389 169.003 0.28963 168.08 0.572621L127.98 12.8555L45.2992 38.187L5.19952 50.4742C3.3367 51.0466 1.77694 52.3353 0.862596 54.0573C-0.0517462 55.7794 -0.245965 57.7941 0.322578 59.6593L58.291 249.129C58.7528 250.634 59.6847 251.952 60.95 252.889C62.2152 253.826 63.7471 254.332 65.321 254.333C66.0494 254.334 66.7737 254.224 67.4696 254.009L94.9579 245.59L95.8225 245.321V244.417L94.9579 244.681L67.2146 253.183C65.5703 253.684 63.7943 253.513 62.2762 252.706C60.7582 251.899 59.622 250.522 59.1168 248.878L1.15285 59.4041C0.902564 58.5894 0.815332 57.7332 0.896148 56.8847C0.976964 56.0362 1.22423 55.212 1.62381 54.4593C2.02339 53.7066 2.56743 53.0401 3.22476 52.4981C3.88209 51.9561 4.63981 51.5491 5.45452 51.3006L45.5542 39.0134L128.235 13.6862L168.335 1.39899C168.953 1.21027 169.595 1.11404 170.241 1.11344C171.628 1.11655 172.977 1.56389 174.091 2.38993C175.205 3.21597 176.026 4.3773 176.433 5.70383L193.316 60.8924L193.584 61.7577H194.483L194.219 60.8924Z" fill="#3F3D56"/>
<path d="M53.04 55.5475C52.2068 55.5469 51.3956 55.2791 50.7255 54.7834C50.0555 54.2876 49.5618 53.59 49.317 52.793L43.7483 34.5907C43.5986 34.1018 43.5467 33.5881 43.5955 33.0791C43.6442 32.5701 43.7927 32.0756 44.0325 31.624C44.2722 31.1724 44.5985 30.7725 44.9927 30.4471C45.3869 30.1218 45.8413 29.8773 46.3299 29.7276L122.396 6.42361C123.382 6.12229 124.448 6.22506 125.359 6.70936C126.271 7.19367 126.952 8.01994 127.255 9.00682L132.824 27.2093C133.125 28.1968 133.022 29.2633 132.538 30.1751C132.054 31.0868 131.229 31.7692 130.243 32.0726L54.1768 55.3766C53.8085 55.4897 53.4254 55.5473 53.04 55.5475Z" fill="#0B5E22"/>
<path d="M82.2113 19.6965C86.9868 19.6965 90.8581 15.8225 90.8581 11.0436C90.8581 6.26468 86.9868 2.39062 82.2113 2.39062C77.4357 2.39062 73.5644 6.26468 73.5644 11.0436C73.5644 15.8225 77.4357 19.6965 82.2113 19.6965Z" fill="#0B5E22"/>
<path d="M82.2112 16.5211C85.2352 16.5211 87.6867 14.068 87.6867 11.0418C87.6867 8.01567 85.2352 5.5625 82.2112 5.5625C79.1872 5.5625 76.7358 8.01567 76.7358 11.0418C76.7358 14.068 79.1872 16.5211 82.2112 16.5211Z" fill="white"/>
<path d="M260.545 252.122H114.413C113.439 252.121 112.505 251.733 111.816 251.044C111.127 250.354 110.74 249.42 110.738 248.445V73.2224C110.739 72.2474 111.127 71.3127 111.816 70.6232C112.505 69.9338 113.439 69.546 114.413 69.5449H260.545C261.519 69.546 262.453 69.9339 263.142 70.6233C263.831 71.3127 264.218 72.2474 264.22 73.2224V248.445C264.218 249.42 263.831 250.354 263.142 251.044C262.453 251.733 261.519 252.121 260.545 252.122Z" fill="#EFEFF2"/>
<path d="M193.316 60.8926H102.308C100.359 60.8953 98.4914 61.6711 97.1136 63.0499C95.7359 64.4286 94.9606 66.2978 94.9579 68.2476V244.681L95.8225 244.417V68.2476C95.8246 66.5271 96.5086 64.8776 97.7243 63.661C98.94 62.4444 100.588 61.76 102.308 61.7579H193.584L193.316 60.8926ZM272.65 60.8926H102.308C100.359 60.8953 98.4914 61.6711 97.1136 63.0499C95.7359 64.4286 94.9606 66.2978 94.9579 68.2476V266.4C94.9606 268.35 95.7359 270.219 97.1136 271.598C98.4914 272.977 100.359 273.752 102.308 273.755H272.65C274.599 273.752 276.466 272.977 277.844 271.598C279.222 270.219 279.997 268.35 280 266.4V68.2476C279.997 66.2978 279.222 64.4286 277.844 63.0499C276.466 61.6711 274.599 60.8953 272.65 60.8926ZM279.135 266.4C279.133 268.121 278.449 269.77 277.234 270.987C276.018 272.203 274.37 272.888 272.65 272.89H102.308C100.588 272.888 98.94 272.203 97.7243 270.987C96.5086 269.77 95.8246 268.121 95.8225 266.4V68.2476C95.8246 66.5271 96.5086 64.8776 97.7243 63.661C98.94 62.4444 100.588 61.76 102.308 61.7579H272.65C274.37 61.76 276.018 62.4444 277.234 63.661C278.449 64.8776 279.133 66.5271 279.135 68.2476V266.4Z" fill="#3F3D56"/>
<path d="M227.254 79.9277H147.704C146.672 79.9265 145.683 79.5159 144.954 78.7859C144.224 78.0559 143.814 77.0662 143.813 76.0338V56.9973C143.814 55.965 144.224 54.9753 144.954 54.2453C145.683 53.5153 146.672 53.1047 147.704 53.1035H227.254C228.286 53.1047 229.275 53.5153 230.005 54.2453C230.734 54.9753 231.144 55.965 231.146 56.9973V76.0338C231.144 77.0662 230.734 78.0559 230.005 78.7859C229.275 79.5159 228.286 79.9265 227.254 79.9277Z" fill="#0B5E22"/>
<path d="M187.479 54.4016C192.254 54.4016 196.126 50.5275 196.126 45.7487C196.126 40.9698 192.254 37.0957 187.479 37.0957C182.703 37.0957 178.832 40.9698 178.832 45.7487C178.832 50.5275 182.703 54.4016 187.479 54.4016Z" fill="#0B5E22"/>
<path d="M187.479 51.0194C190.388 51.0194 192.746 48.6598 192.746 45.749C192.746 42.8382 190.388 40.4785 187.479 40.4785C184.57 40.4785 182.212 42.8382 182.212 45.749C182.212 48.6598 184.57 51.0194 187.479 51.0194Z" fill="white"/>
</g>
<defs>
<clipPath id="clip0_1045_27858">
<rect width="280" height="273.509" fill="white" transform="translate(0 0.246094)"/>
</clipPath>
</defs>
</svg>
