<svg width="80" height="80" viewBox="0 0 80 80" fill="none" xmlns="http://www.w3.org/2000/svg">
<path d="M40 80C62.0914 80 80 62.0914 80 40C80 17.9086 62.0914 0 40 0C17.9086 0 0 17.9086 0 40C0 62.0914 17.9086 80 40 80Z" fill="#F9EBEB"/>
<path d="M40.0009 72.2079C57.7889 72.2079 72.2089 57.7879 72.2089 39.9999C72.2089 22.212 57.7889 7.79199 40.0009 7.79199C22.213 7.79199 7.79297 22.212 7.79297 39.9999C7.79297 57.7879 22.213 72.2079 40.0009 72.2079Z" fill="#B60809"/>
<path d="M25.8025 22.4085L22.0312 26.1797L53.6154 57.7638L57.3866 53.9926L25.8025 22.4085Z" fill="white"/>
<path d="M57.3884 26.1804L53.6172 22.4092L22.0331 53.9933L25.8043 57.7645L57.3884 26.1804Z" fill="white"/>
</svg>
