<svg width="120" height="120" viewBox="0 0 120 120" fill="none" xmlns="http://www.w3.org/2000/svg">
<g id="Group 27">
<path id="Ellipse 95" d="M60 120C93.1371 120 120 93.1371 120 60C120 26.8629 93.1371 0 60 0C26.8629 0 0 26.8629 0 60C0 93.1371 26.8629 120 60 120Z" fill="#EBF2ED"/>
<path id="Ellipse 96" d="M59.9994 108.311C86.6814 108.311 108.311 86.6814 108.311 59.9994C108.311 33.3175 86.6814 11.6875 59.9994 11.6875C33.3175 11.6875 11.6875 33.3175 11.6875 59.9994C11.6875 86.6814 33.3175 108.311 59.9994 108.311Z" fill="#0B5E22"/>
<path id="Path 616" d="M49.6849 83.6693L32.6582 61.7787L42.5598 54.0775L50.6208 64.4423L77.8537 35.6953L86.9608 44.3221L49.6849 83.6693Z" fill="white"/>
</g>
</svg>
