<svg width="222" height="202" viewBox="0 0 222 202" fill="none" xmlns="http://www.w3.org/2000/svg">
<g id="illustration" clip-path="url(#clip0_1336_13888)">
<path id="Vector" d="M112 200.514C194.29 200.514 261 199.184 261 197.544C261 195.903 194.29 194.573 112 194.573C29.7096 194.573 -37 195.903 -37 197.544C-37 199.184 29.7096 200.514 112 200.514Z" fill="#E6E6E6"/>
<path id="Vector_2" d="M116.163 198.125C163.246 198.125 201.414 159.974 201.414 112.912C201.414 65.8502 163.246 27.6992 116.163 27.6992C69.0803 27.6992 30.9121 65.8502 30.9121 112.912C30.9121 159.974 69.0803 198.125 116.163 198.125Z" fill="#3F3D56"/>
<path id="Vector_3" d="M116.163 191.071C159.348 191.071 194.357 156.078 194.357 112.913C194.357 69.7467 159.348 34.7539 116.163 34.7539C72.9773 34.7539 37.9688 69.7467 37.9688 112.913C37.9688 156.078 72.9773 191.071 116.163 191.071Z" fill="white"/>
<path id="Vector_4" d="M115.881 123.635C121.65 123.635 126.326 118.961 126.326 113.195C126.326 107.429 121.65 102.755 115.881 102.755C110.113 102.755 105.437 107.429 105.437 113.195C105.437 118.961 110.113 123.635 115.881 123.635Z" fill="#3F3D56"/>
<path id="Vector_5" d="M118.139 38.7041H113.622V47.1689H118.139V38.7041Z" fill="#3F3D56"/>
<path id="Vector_6" d="M118.139 179.22H113.622V187.685H118.139V179.22Z" fill="#3F3D56"/>
<path id="Vector_7" d="M49.8252 115.452V110.938H41.3565V115.452H49.8252Z" fill="#3F3D56"/>
<path id="Vector_8" d="M190.405 115.452V110.938H181.937V115.452H190.405Z" fill="#3F3D56"/>
<path id="Vector_9" d="M112.87 117.726L116.73 108.904L165.096 135.679L112.87 117.726Z" fill="#3F3D56"/>
<path id="Vector_10" d="M127.172 7.10156H105.153V32.4961H127.172V7.10156Z" fill="#3F3D56"/>
<path id="Vector_11" d="M116.163 14.1559C130.194 14.1559 141.569 10.9977 141.569 7.10188C141.569 3.20605 130.194 0.0478516 116.163 0.0478516C102.131 0.0478516 90.7568 3.20605 90.7568 7.10188C90.7568 10.9977 102.131 14.1559 116.163 14.1559Z" fill="#3F3D56"/>
</g>
<defs>
<clipPath id="clip0_1336_13888">
<rect width="221" height="202" fill="white" transform="translate(0.5)"/>
</clipPath>
</defs>
</svg>
