<svg width="24" height="24" viewBox="0 0 24 24" fill="none" xmlns="http://www.w3.org/2000/svg">
<path d="M22.268 20.91L16.022 14.664C17.3101 13.0297 17.9251 10.965 17.7412 8.89221C17.5574 6.81944 16.5886 4.89522 15.033 3.51308C13.4774 2.13094 11.4525 1.39532 9.37254 1.45668C7.29254 1.51803 5.31456 2.37171 3.84314 3.84314C2.37171 5.31456 1.51803 7.29254 1.45668 9.37254C1.39532 11.4525 2.13094 13.4774 3.51308 15.033C4.89522 16.5886 6.81944 17.5574 8.89221 17.7412C10.965 17.9251 13.0297 17.3101 14.664 16.022L20.91 22.268C20.9992 22.3572 21.1051 22.4279 21.2216 22.4762C21.3381 22.5244 21.4629 22.5493 21.589 22.5493C21.7151 22.5493 21.84 22.5244 21.9565 22.4762C22.073 22.4279 22.1789 22.3572 22.268 22.268C22.3572 22.1789 22.4279 22.073 22.4762 21.9565C22.5244 21.84 22.5493 21.7151 22.5493 21.589C22.5493 21.4629 22.5244 21.3381 22.4762 21.2216C22.4279 21.1051 22.3572 20.9992 22.268 20.91ZM14.132 10.292C13.9519 10.4719 13.7077 10.573 13.453 10.573H10.573V13.453C10.573 13.7076 10.4719 13.9518 10.2919 14.1319C10.1118 14.3119 9.86764 14.413 9.61303 14.413C9.35842 14.413 9.11424 14.3119 8.93421 14.1319C8.75417 13.9518 8.65303 13.7076 8.65303 13.453V10.573H5.77303C5.51842 10.573 5.27424 10.4719 5.09421 10.2919C4.91417 10.1118 4.81303 9.86764 4.81303 9.61303C4.81303 9.35842 4.91417 9.11424 5.09421 8.93421C5.27424 8.75417 5.51842 8.65303 5.77303 8.65303H8.65303V5.77303C8.65303 5.51842 8.75417 5.27424 8.93421 5.09421C9.11424 4.91417 9.35842 4.81303 9.61303 4.81303C9.86764 4.81303 10.1118 4.91417 10.2919 5.09421C10.4719 5.27424 10.573 5.51842 10.573 5.77303V8.65303H13.453C13.643 8.65296 13.8286 8.70922 13.9866 8.8147C14.1445 8.92019 14.2676 9.07014 14.3403 9.2456C14.413 9.42107 14.432 9.61414 14.3949 9.80041C14.3578 9.98668 14.2664 10.1578 14.132 10.292Z" fill="#0B5E22"/>
</svg>
