<svg width="24" height="24" viewBox="0 0 24 24" fill="none" xmlns="http://www.w3.org/2000/svg">
<path d="M22.268 20.91L16.022 14.664C17.3101 13.0297 17.9251 10.965 17.7412 8.89221C17.5574 6.81944 16.5886 4.89522 15.033 3.51308C13.4774 2.13094 11.4525 1.39532 9.37254 1.45668C7.29254 1.51803 5.31456 2.37171 3.84314 3.84314C2.37171 5.31456 1.51803 7.29254 1.45668 9.37254C1.39532 11.4525 2.13094 13.4774 3.51308 15.033C4.89522 16.5886 6.81944 17.5574 8.89221 17.7412C10.965 17.9251 13.0297 17.3101 14.664 16.022L20.91 22.268C20.9992 22.3572 21.1051 22.4279 21.2216 22.4762C21.3381 22.5244 21.4629 22.5493 21.589 22.5493C21.7151 22.5493 21.84 22.5244 21.9565 22.4762C22.073 22.4279 22.1789 22.3572 22.268 22.268C22.3572 22.1789 22.4279 22.073 22.4762 21.9565C22.5244 21.84 22.5493 21.7151 22.5493 21.589C22.5493 21.4629 22.5244 21.3381 22.4762 21.2216C22.4279 21.1051 22.3572 20.9992 22.268 20.91ZM14.413 9.61003C14.413 9.86464 14.3119 10.1088 14.1319 10.2889C13.9518 10.4689 13.7076 10.57 13.453 10.57H5.77303C5.51842 10.57 5.27424 10.4689 5.09421 10.2889C4.91417 10.1088 4.81303 9.86464 4.81303 9.61003C4.81303 9.35542 4.91417 9.11124 5.09421 8.93121C5.27424 8.75117 5.51842 8.65003 5.77303 8.65003H13.453C13.7076 8.65003 13.9518 8.75117 14.1319 8.93121C14.3119 9.11124 14.413 9.35542 14.413 9.61003Z" fill="#0B5E22"/>
</svg>
