<svg width="32" height="32" viewBox="0 0 32 32" fill="none" xmlns="http://www.w3.org/2000/svg">
<path d="M9.81255 12.3746C9.81255 13.3173 10.5765 14.0813 11.5192 14.0813H27.7325C28.6752 14.0813 29.4392 13.3173 29.4392 12.3746V5.97458H9.81255V12.3746ZM26.0259 9.81458C26.4965 9.81458 26.8792 10.1973 26.8792 10.6679C26.8792 11.1386 26.4965 11.5213 26.0259 11.5213C25.5552 11.5213 25.1725 11.1386 25.1725 10.6679C25.1725 10.1973 25.5552 9.81458 26.0259 9.81458ZM13.2259 9.81458H19.1992C19.6699 9.81458 20.0525 10.1973 20.0525 10.6679C20.0525 11.1386 19.6699 11.5213 19.1992 11.5213H13.2259C12.7552 11.5213 12.3725 11.1386 12.3725 10.6679C12.3725 10.1973 12.7539 9.81458 13.2259 9.81458Z" fill="#000720"/>
<path d="M27.7325 1.28125H11.5192C10.5765 1.28125 9.81255 2.04525 9.81255 2.98792V4.26792H29.4392V2.98792C29.4392 2.04525 28.6752 1.28125 27.7325 1.28125Z" fill="#000720"/>
<path d="M4.96455 21.2266C4.58988 20.6599 3.81388 20.5306 3.27655 20.9453L3.01521 21.1466C2.72855 21.3679 2.56055 21.7093 2.56055 22.0719V29.4759C2.56055 29.8973 2.76321 30.3053 3.12455 30.5226C3.31121 30.6359 3.52055 30.6919 3.72855 30.6919C3.95521 30.6919 4.18188 30.6266 4.37655 30.4959L8.06988 28.0346C8.60588 27.6773 8.75121 26.9546 8.39655 26.4173L4.96455 21.2266Z" fill="#000720"/>
<path d="M26.8552 16.4199C26.4339 16.4199 26.0139 16.5799 25.6592 16.7359L25.6499 16.7399C25.6272 16.7479 25.6045 16.7572 25.5819 16.7679L23.1125 17.8693C22.6685 18.0679 22.4032 18.5186 22.4219 19.0053C22.4659 20.0972 22.0725 21.2026 21.2405 22.0346C20.4592 22.8159 19.4499 23.2773 18.4725 23.3013L18.3139 23.3053L14.2739 22.2946C13.6472 22.1386 13.2672 21.5039 13.4232 20.8773C13.5792 20.2506 14.2139 19.8706 14.8405 20.0266L18.5459 20.9533C18.8272 20.9132 19.1312 20.7693 19.4045 20.5466C19.7379 20.2759 20.0605 19.7066 20.0872 19.2786C20.1179 18.7799 19.9379 18.3053 19.5885 17.9546C19.3379 17.7039 19.0845 17.6346 18.3872 17.4719L18.1725 17.4212L10.8219 15.5759C10.5459 15.5066 10.2539 15.5666 10.0285 15.7399L6.98988 18.0826C6.50455 18.4573 6.39121 19.1413 6.72855 19.6533L10.4459 25.2493C10.7992 25.7813 11.3539 26.1452 11.9819 26.2572L18.7165 27.4599C19.0232 27.5146 19.3392 27.4452 19.5939 27.2652L28.3152 21.1373C29.0192 20.6546 29.4405 19.8573 29.4405 19.0039C29.4405 17.5786 28.2805 16.4199 26.8552 16.4199Z" fill="#000720"/>
</svg>
