<svg width="24" height="24" viewBox="0 0 24 24" xmlns="http://www.w3.org/2000/svg">
<path d="M8.9999 11.9998L15.1089 18.1088C15.1981 18.198 15.2689 18.3038 15.3171 18.4203C15.3654 18.5368 15.3903 18.6617 15.3903 18.7878C15.3903 18.9139 15.3654 19.0388 15.3171 19.1553C15.2689 19.2718 15.1981 19.3777 15.1089 19.4668C14.9289 19.6466 14.6849 19.7477 14.4304 19.7477C14.176 19.7477 13.9319 19.6466 13.7519 19.4668L6.9669 12.6788C6.8777 12.5897 6.80695 12.4838 6.75867 12.3673C6.71039 12.2508 6.68555 12.1259 6.68555 11.9998C6.68555 11.8737 6.71039 11.7488 6.75867 11.6323C6.80695 11.5158 6.8777 11.41 6.9669 11.3208L13.7549 4.53281C13.9349 4.35297 14.179 4.25195 14.4334 4.25195C14.6879 4.25195 14.9319 4.35297 15.1119 4.53281C15.2011 4.62196 15.2719 4.72781 15.3201 4.84432C15.3684 4.96082 15.3933 5.0857 15.3933 5.21181C15.3933 5.33792 15.3684 5.4628 15.3201 5.5793C15.2719 5.69581 15.2011 5.80166 15.1119 5.89081L8.9999 11.9998Z"/>
</svg>
