<svg width="24" height="24" viewBox="0 0 24 24" fill="none" xmlns="http://www.w3.org/2000/svg">
<g clip-path="url(#clip0_5679_277)">
<mask id="mask0_5679_277" style="mask-type:alpha" maskUnits="userSpaceOnUse" x="0" y="0" width="24" height="24">
<path d="M16.92 13.107C17.4502 13.107 17.88 12.6772 17.88 12.147C17.88 11.6168 17.4502 11.187 16.92 11.187C16.3898 11.187 15.96 11.6168 15.96 12.147C15.96 12.6772 16.3898 13.107 16.92 13.107Z" fill="#000720"/>
<path d="M14.1 11.187C13.9917 11.1867 13.8842 11.1681 13.782 11.132C11.8717 10.5062 9.81199 10.5034 7.9 11.124C7.66328 11.2102 7.40216 11.2 7.17296 11.0954C6.94375 10.9908 6.76484 10.8003 6.67482 10.565C6.58479 10.3297 6.59087 10.0685 6.69174 9.83763C6.79261 9.60678 6.98018 9.42482 7.214 9.33102C9.54849 8.5414 12.0773 8.53789 14.414 9.32102C14.628 9.396 14.8085 9.54429 14.9236 9.73964C15.0388 9.93499 15.081 10.1648 15.0429 10.3883C15.0048 10.6118 14.8889 10.8146 14.7155 10.9608C14.5422 11.107 14.3227 11.1872 14.096 11.187H14.1Z" fill="#000720"/>
<path d="M23.039 12.571C23.0278 12.3511 22.9414 12.1418 22.7943 11.978C22.6473 11.8141 22.4484 11.7058 22.231 11.671C21.9341 11.6248 21.644 11.5426 21.367 11.426C21.1189 11.0795 20.8889 10.7204 20.678 10.35C20.502 10.05 20.332 9.76202 20.141 9.48902C20.5304 8.92826 20.9815 8.41303 21.486 7.95302C21.5816 7.85755 21.6559 7.74299 21.7042 7.61683C21.7524 7.49066 21.7735 7.35573 21.7661 7.22086C21.7586 7.08598 21.7228 6.9542 21.6609 6.83412C21.599 6.71404 21.5125 6.60837 21.407 6.52402L21.376 6.50002C19.71 5.15202 17.742 5.23702 15.792 6.72502C15.427 6.62502 15.048 6.52502 14.658 6.44502C14.752 6.08182 14.7997 5.70819 14.8 5.33302C14.8117 4.1854 14.3673 3.08008 13.5643 2.26006C12.7613 1.44003 11.6656 0.972422 10.518 0.960022C9.95029 0.965899 9.38931 1.08359 8.86711 1.30638C8.34492 1.52917 7.87174 1.85268 7.47463 2.25843C7.07752 2.66417 6.76427 3.1442 6.55276 3.67107C6.34126 4.19794 6.23566 4.76132 6.242 5.32902C6.24098 5.83001 6.32553 6.3275 6.492 6.80002C5.76101 7.0642 5.06463 7.41575 4.418 7.84702C2.77975 8.81785 1.5764 10.3802 1.056 12.212C0.874807 13.1448 0.891929 14.1052 1.10625 15.0309C1.32058 15.9566 1.72731 16.8268 2.3 17.585C2.439 18.638 2.955 21.712 4.325 22.825C4.4964 22.964 4.71033 23.0399 4.931 23.04H6.912C7.04984 23.0399 7.18604 23.0101 7.31134 22.9527C7.43664 22.8952 7.5481 22.8115 7.63814 22.7071C7.72818 22.6028 7.79469 22.4802 7.83315 22.3479C7.8716 22.2155 7.8811 22.0764 7.861 21.94C7.81978 21.5926 7.79974 21.2429 7.801 20.893C9.38706 21.2929 11.0309 21.4117 12.658 21.244L13.376 22.544C13.4585 22.6949 13.5799 22.8209 13.7277 22.9088C13.8754 22.9968 14.0441 23.0434 14.216 23.044H16.361C16.5004 23.0439 16.6381 23.0134 16.7645 22.9547C16.891 22.896 17.0031 22.8105 17.0932 22.7042C17.1833 22.5978 17.2492 22.4731 17.2863 22.3387C17.3234 22.2044 17.3308 22.0635 17.308 21.926C17.2153 21.3166 17.1925 20.6986 17.24 20.084C18.1804 19.5737 19.071 18.9765 19.9 18.3C20.1117 18.1266 20.3081 17.9352 20.487 17.728C20.758 17.428 20.839 17.337 21.739 17.396C21.9906 17.4115 22.2382 17.3279 22.4289 17.163C22.6195 16.9982 22.738 16.7652 22.759 16.514C23.05 12.805 23.042 12.635 23.039 12.571ZM8.866 3.58202C9.08018 3.36085 9.33658 3.18493 9.62001 3.06468C9.90344 2.94444 10.2081 2.88233 10.516 2.88202C11.1539 2.89594 11.7603 3.16194 12.2026 3.62183C12.6449 4.08173 12.887 4.69807 12.876 5.33602C12.8757 5.50117 12.8596 5.66592 12.828 5.82802C12.477 5.81402 12.128 5.80602 11.777 5.80602C10.6022 5.80569 9.42869 5.88655 8.265 6.04802C8.19715 5.81478 8.16347 5.57293 8.165 5.33002C8.15962 4.67783 8.41149 4.04979 8.866 3.58202ZM20.911 15.488C20.5514 15.506 20.1999 15.601 19.8802 15.7667C19.5605 15.9323 19.2801 16.1646 19.058 16.448C18.9489 16.5776 18.8285 16.6971 18.698 16.805C17.8399 17.5038 16.9084 18.1073 15.92 18.605C15.792 18.6714 15.6807 18.7658 15.5941 18.881C15.5076 18.9963 15.4481 19.1296 15.42 19.271C15.3099 19.8804 15.2716 20.5007 15.306 21.119H14.784L14.025 19.749C13.9313 19.5784 13.7877 19.4404 13.6135 19.3536C13.4393 19.2667 13.2427 19.2351 13.05 19.263C11.161 19.5328 9.23558 19.3746 7.416 18.8L7.168 18.73C7.03456 18.6932 6.89474 18.6856 6.7581 18.7078C6.62147 18.73 6.49124 18.7815 6.37634 18.8587C6.26144 18.9359 6.16457 19.037 6.09237 19.1551C6.02016 19.2732 5.97433 19.4056 5.958 19.543C5.8973 20.0654 5.87257 20.5913 5.884 21.117H5.335C4.69312 19.8741 4.29881 18.5183 4.174 17.125C4.1558 16.9669 4.09877 16.8158 4.008 16.685C3.55199 16.1287 3.21943 15.4818 3.03238 14.7872C2.84532 14.0926 2.80804 13.3661 2.923 12.656C3.32727 11.3342 4.20782 10.2096 5.394 9.50002C5.418 9.48702 5.442 9.47202 5.466 9.45602C9.3 6.85702 14.674 8.37202 15.712 8.70002C15.8687 8.75016 16.0356 8.7591 16.1968 8.726C16.3579 8.6929 16.5078 8.61886 16.632 8.51102C16.9554 8.1444 17.3626 7.86144 17.819 7.68627C18.2754 7.5111 18.7674 7.44891 19.253 7.50502C18.9698 7.82343 18.7101 8.16199 18.476 8.51802C18.388 8.64902 18.286 8.79802 18.157 8.97802C18.0265 9.16299 17.9654 9.3881 17.9846 9.61367C18.0038 9.83924 18.1021 10.0508 18.262 10.211C18.5585 10.5508 18.8149 10.9236 19.026 11.322C19.2955 11.8012 19.5961 12.2622 19.926 12.702C19.9565 12.7418 19.9899 12.7793 20.026 12.814C20.3296 13.0689 20.6842 13.2557 21.066 13.362C21.041 13.793 20.992 14.459 20.911 15.488Z" fill="#000720"/>
</mask>
<g mask="url(#mask0_5679_277)">
<rect width="24" height="24"/>
</g>
</g>
<defs>
<clipPath id="clip0_5679_277">
<rect width="24" height="24"/>
</clipPath>
</defs>
</svg>
