<svg width="56" height="56" viewBox="0 0 56 56" fill="none" xmlns="http://www.w3.org/2000/svg">
<path d="M28 56C43.464 56 56 43.464 56 28C56 12.536 43.464 0 28 0C12.536 0 0 12.536 0 28C0 43.464 12.536 56 28 56Z" fill="#EBF2ED"/>
<path d="M27.9997 50.5452C40.4512 50.5452 50.5452 40.4512 50.5452 27.9997C50.5452 15.5481 40.4512 5.4541 27.9997 5.4541C15.5481 5.4541 5.4541 15.5481 5.4541 27.9997C5.4541 40.4512 15.5481 50.5452 27.9997 50.5452Z" fill="#0B5E22"/>
<path d="M23.1863 39.0461L15.2405 28.8304L19.8612 25.2365L23.623 30.0735L36.3317 16.6582L40.5817 20.684L23.1863 39.0461Z" fill="white"/>
</svg>
