<svg width="20" height="20" viewBox="0 0 20 20" xmlns="http://www.w3.org/2000/svg">
<g clip-path="url(#clip0_2511_23578)">
<path d="M9.99981 0.800049C8.18022 0.800049 6.4015 1.33962 4.88856 2.35053C3.37563 3.36144 2.19644 4.79828 1.50012 6.47936C0.803791 8.16044 0.6216 10.0103 0.976584 11.7949C1.33157 13.5795 2.20778 15.2188 3.49443 16.5054C4.78107 17.7921 6.42035 18.6683 8.20498 19.0233C9.9896 19.3783 11.8394 19.1961 13.5205 18.4997C15.2016 17.8034 16.6384 16.6242 17.6493 15.1113C18.6602 13.5984 19.1998 11.8196 19.1998 10C19.1998 8.79189 18.9618 7.59556 18.4995 6.47936C18.0372 5.36317 17.3595 4.34897 16.5052 3.49467C15.6509 2.64037 14.6367 1.9627 13.5205 1.50036C12.4043 1.03801 11.208 0.800049 9.99981 0.800049V0.800049ZM15.1998 7.53172L8.56564 14.1667C8.49135 14.241 8.40314 14.3 8.30605 14.3402C8.20896 14.3805 8.1049 14.4012 7.99981 14.4012C7.89472 14.4012 7.79065 14.3805 7.69357 14.3402C7.59648 14.3 7.50827 14.241 7.43398 14.1667L4.79981 11.5317C4.72548 11.4574 4.66651 11.3692 4.62628 11.2721C4.58605 11.175 4.56535 11.071 4.56535 10.9659C4.56535 10.8608 4.58605 10.7567 4.62628 10.6596C4.66651 10.5626 4.72548 10.4743 4.79981 10.4V10.4C4.8741 10.3257 4.96231 10.2668 5.0594 10.2265C5.15649 10.1863 5.26055 10.1656 5.36564 10.1656C5.47074 10.1656 5.5748 10.1863 5.67189 10.2265C5.76897 10.2668 5.85718 10.3257 5.93148 10.4L7.99981 12.4684L14.0681 6.40005C14.1424 6.32572 14.2306 6.26675 14.3277 6.22652C14.4248 6.18629 14.5289 6.16559 14.634 6.16559C14.7391 6.16559 14.8431 6.18629 14.9402 6.22652C15.0373 6.26675 15.1255 6.32572 15.1998 6.40005C15.2741 6.47434 15.3331 6.56255 15.3733 6.65964C15.4136 6.75673 15.4343 6.86079 15.4343 6.96588C15.4343 7.07098 15.4136 7.17504 15.3733 7.27213C15.3331 7.36921 15.2741 7.45742 15.1998 7.53172V7.53172Z" />
</g>
<defs>
<clipPath id="clip0_2511_23578">
<rect width="20" height="20"/>
</clipPath>
</defs>
</svg>
