<svg width="24" height="24" viewBox="0 0 24 24" xmlns="http://www.w3.org/2000/svg">
<path d="M15.0001 11.9998L8.88707 5.89081C8.79787 5.80166 8.72711 5.69581 8.67884 5.5793C8.63056 5.4628 8.60571 5.33792 8.60571 5.21181C8.60571 5.0857 8.63056 4.96082 8.67884 4.84432C8.72711 4.72781 8.79787 4.62196 8.88707 4.53281C9.06708 4.35297 9.31112 4.25195 9.56557 4.25195C9.82002 4.25195 10.0641 4.35297 10.2441 4.53281L17.0321 11.3208C17.1213 11.41 17.192 11.5158 17.2403 11.6323C17.2886 11.7488 17.3134 11.8737 17.3134 11.9998C17.3134 12.1259 17.2886 12.2508 17.2403 12.3673C17.192 12.4838 17.1213 12.5897 17.0321 12.6788L10.2441 19.4668C10.0641 19.6466 9.82002 19.7477 9.56557 19.7477C9.31112 19.7477 9.06708 19.6466 8.88707 19.4668C8.79787 19.3777 8.72711 19.2718 8.67884 19.1553C8.63056 19.0388 8.60571 18.9139 8.60571 18.7878C8.60571 18.6617 8.63056 18.5368 8.67884 18.4203C8.72711 18.3038 8.79787 18.198 8.88707 18.1088L15.0001 11.9998Z" />
</svg>
