<svg width="32" height="32" viewBox="0 0 32 32" xmlns="http://www.w3.org/2000/svg">
<path d="M11.9999 15.9999L20.1452 24.1452C20.2641 24.2641 20.3585 24.4052 20.4228 24.5606C20.4872 24.7159 20.5203 24.8824 20.5203 25.0506C20.5203 25.2187 20.4872 25.3852 20.4228 25.5406C20.3585 25.6959 20.2641 25.837 20.1452 25.9559C19.9052 26.1957 19.5798 26.3304 19.2405 26.3304C18.9013 26.3304 18.5759 26.1957 18.3359 25.9559L9.2892 16.9052C9.17027 16.7864 9.07593 16.6452 9.01156 16.4899C8.94719 16.3346 8.91406 16.1681 8.91406 15.9999C8.91406 15.8318 8.94719 15.6653 9.01156 15.5099C9.07593 15.3546 9.17027 15.2134 9.2892 15.0946L18.3399 6.04391C18.5799 5.80412 18.9053 5.66943 19.2445 5.66943C19.5838 5.66943 19.9092 5.80412 20.1492 6.04391C20.2681 6.16277 20.3625 6.30391 20.4268 6.45925C20.4912 6.61459 20.5243 6.78109 20.5243 6.94924C20.5243 7.11739 20.4912 7.28389 20.4268 7.43923C20.3625 7.59457 20.2681 7.73571 20.1492 7.85457L11.9999 15.9999Z"/>
</svg>
