<svg width="16" height="16" viewBox="0 0 16 16" xmlns="http://www.w3.org/2000/svg">
<path d="M8.90521 7.99988L13.1999 12.2945C13.2593 12.354 13.3065 12.4245 13.3387 12.5022C13.3709 12.5799 13.3874 12.6631 13.3874 12.7472C13.3874 12.8313 13.3709 12.9145 13.3387 12.9922C13.3065 13.0699 13.2593 13.1404 13.1999 13.1999C13.1404 13.2593 13.0699 13.3065 12.9922 13.3387C12.9145 13.3709 12.8313 13.3874 12.7472 13.3874C12.6631 13.3874 12.5799 13.3709 12.5022 13.3387C12.4245 13.3065 12.354 13.2593 12.2945 13.1999L7.99988 8.90521L3.70521 13.1999C3.64577 13.2593 3.57521 13.3065 3.49754 13.3387C3.41987 13.3709 3.33662 13.3874 3.25254 13.3874C3.16847 13.3874 3.08522 13.3709 3.00755 13.3387C2.92988 13.3065 2.85931 13.2593 2.79987 13.1999C2.74041 13.1404 2.69324 13.0699 2.66105 12.9922C2.62887 12.9145 2.6123 12.8313 2.6123 12.7472C2.6123 12.6631 2.62887 12.5799 2.66105 12.5022C2.69324 12.4245 2.74041 12.354 2.79987 12.2945L7.09454 7.99988L2.79987 3.70521C2.74041 3.64577 2.69324 3.57521 2.66105 3.49754C2.62887 3.41987 2.6123 3.33662 2.6123 3.25254C2.6123 3.16847 2.62887 3.08522 2.66105 3.00755C2.69324 2.92988 2.74041 2.85931 2.79987 2.79987C2.85931 2.74041 2.92988 2.69324 3.00755 2.66105C3.08522 2.62887 3.16847 2.6123 3.25254 2.6123C3.33662 2.6123 3.41987 2.62887 3.49754 2.66105C3.57521 2.69324 3.64577 2.74041 3.70521 2.79987L7.99988 7.09454L12.2945 2.79987C12.354 2.74041 12.4245 2.69324 12.5022 2.66105C12.5799 2.62887 12.6631 2.6123 12.7472 2.6123C12.8313 2.6123 12.9145 2.62887 12.9922 2.66105C13.0699 2.69324 13.1404 2.74041 13.1999 2.79987C13.2593 2.85931 13.3065 2.92988 13.3387 3.00755C13.3709 3.08522 13.3874 3.16847 13.3874 3.25254C13.3874 3.33662 13.3709 3.41987 13.3387 3.49754C13.3065 3.57521 13.2593 3.64577 13.1999 3.70521L8.90521 7.99988Z"/>
</svg>
