<svg width="12" height="12" viewBox="0 0 32 32" xmlns="http://www.w3.org/2000/svg">
<path d="M15.9998 1.27979C13.0884 1.27979 10.2425 2.1431 7.8218 3.76055C5.40111 5.37801 3.51441 7.67696 2.40029 10.3667C1.28616 13.0564 0.994658 16.0161 1.56263 18.8715C2.13061 21.7269 3.53255 24.3498 5.59118 26.4084C7.64981 28.467 10.2727 29.869 13.1281 30.4369C15.9835 31.0049 18.9432 30.7134 21.6329 29.5993C24.3226 28.4852 26.6216 26.5985 28.239 24.1778C29.8565 21.7571 30.7198 18.9111 30.7198 15.9998C30.7198 14.0667 30.339 12.1526 29.5993 10.3667C28.8595 8.58077 27.7753 6.95805 26.4084 5.59117C25.0415 4.22429 23.4188 3.14003 21.6329 2.40028C19.847 1.66053 17.9328 1.27979 15.9998 1.27979ZM20.4798 20.4798C20.3609 20.5987 20.2198 20.6931 20.0644 20.7574C19.9091 20.8218 19.7426 20.8549 19.5745 20.8549C19.4063 20.8549 19.2398 20.8218 19.0845 20.7574C18.9291 20.6931 18.788 20.5987 18.6691 20.4798L15.0945 16.9051C14.9756 16.7862 14.8814 16.6451 14.8171 16.4897C14.7528 16.3344 14.7197 16.1679 14.7198 15.9998V7.67979C14.7198 7.34031 14.8546 7.01474 15.0947 6.77469C15.3347 6.53464 15.6603 6.39979 15.9998 6.39979C16.3393 6.39979 16.6648 6.53464 16.9049 6.77469C17.1449 7.01474 17.2798 7.34031 17.2798 7.67979V15.4665L20.4798 18.6665C20.5991 18.7854 20.6938 18.9267 20.7584 19.0823C20.823 19.2378 20.8563 19.4047 20.8563 19.5731C20.8563 19.7416 20.823 19.9084 20.7584 20.064C20.6938 20.2196 20.5991 20.3609 20.4798 20.4798Z" />
</svg>
