<svg width="32" height="32" viewBox="0 0 32 32" xmlns="http://www.w3.org/2000/svg">
<g clip-path="url(#clip0_1202_20488)">
<path d="M18 7.33333C19.4667 7.33333 20.6667 6.13333 20.6667 4.66667C20.6667 3.2 19.4667 2 18 2C16.5333 2 15.3333 3.2 15.3333 4.66667C15.3333 6.13333 16.5333 7.33333 18 7.33333ZM13.0667 11.8667L9.65333 29.08C9.48 29.8933 10.12 30.6667 10.96 30.6667H11.0667C11.6933 30.6667 12.2267 30.24 12.3733 29.6267L14.5333 20L17.3333 22.6667V29.3333C17.3333 30.0667 17.9333 30.6667 18.6667 30.6667C19.4 30.6667 20 30.0667 20 29.3333V21.8133C20 21.08 19.7067 20.3867 19.1733 19.88L17.2 18L18 14C19.4267 15.6533 21.4933 16.84 23.8133 17.2133C24.6133 17.3333 25.3333 16.6933 25.3333 15.88C25.3333 15.2267 24.8533 14.68 24.2 14.5733C22.1733 14.24 20.4933 13.04 19.6 11.4667L18.2667 9.33333C17.52 8.14667 16.0267 7.66667 14.7333 8.21333L9.62667 10.3733C8.64 10.8 8 11.76 8 12.84V16C8 16.7333 8.6 17.3333 9.33333 17.3333C10.0667 17.3333 10.6667 16.7333 10.6667 16V12.8L13.0667 11.8667Z" />
</g>
<defs>
<clipPath id="clip0_1202_20488">
<rect width="32" height="32" />
</clipPath>
</defs>
</svg>
