<svg width="90" height="80" viewBox="0 0 90 80" fill="none" xmlns="http://www.w3.org/2000/svg">
<g clip-path="url(#clip0_4339_89591)">
<path d="M88.7781 30.5936C88.7461 30.5936 88.715 30.5839 88.6888 30.5656L45.449 0.452175C45.3175 0.360961 45.1611 0.312215 45.001 0.312488C44.8409 0.312761 44.6847 0.36204 44.5534 0.453702L1.62508 30.5653C1.59113 30.5891 1.54911 30.5985 1.50826 30.5913C1.46741 30.5841 1.43108 30.561 1.40726 30.5271C1.38344 30.4931 1.37409 30.4511 1.38126 30.4102C1.38843 30.3694 1.41153 30.3331 1.44549 30.3092L44.3738 0.19765C44.5576 0.0693416 44.7763 0.000369863 45.0005 1.48338e-06C45.2246 -0.000366897 45.4435 0.0678852 45.6278 0.195588L88.8675 30.3089C88.8948 30.328 88.9154 30.3552 88.9261 30.3867C88.9369 30.4182 88.9373 30.4524 88.9273 30.4841C88.9173 30.5159 88.8975 30.5436 88.8706 30.5633C88.8438 30.583 88.8114 30.5936 88.7781 30.5936Z" fill="#3F3D56"/>
<path d="M4.07812 31.6612L45.0435 1.30078L86.3197 33.8214L47.1542 57.0393L25.8907 52.1925L4.07812 31.6612Z" fill="#E6E6E6"/>
<path d="M27.6846 71.3793H7.44672C7.32245 71.3794 7.19937 71.3551 7.08452 71.3077C6.96966 71.2602 6.86529 71.1906 6.77736 71.1028C6.68943 71.015 6.61968 70.9107 6.57209 70.7959C6.5245 70.6811 6.5 70.5581 6.5 70.4338C6.5 70.3095 6.5245 70.1865 6.57209 70.0717C6.61968 69.9569 6.68943 69.8526 6.77736 69.7648C6.86529 69.677 6.96966 69.6073 7.08452 69.5599C7.19937 69.5125 7.32245 69.4881 7.44672 69.4883H27.6846C27.8089 69.4881 27.932 69.5125 28.0468 69.5599C28.1617 69.6073 28.266 69.677 28.354 69.7648C28.4419 69.8526 28.5117 69.9569 28.5592 70.0717C28.6068 70.1865 28.6313 70.3095 28.6313 70.4338C28.6313 70.5581 28.6068 70.6811 28.5592 70.7959C28.5117 70.9107 28.4419 71.015 28.354 71.1028C28.266 71.1906 28.1617 71.2602 28.0468 71.3077C27.932 71.3551 27.8089 71.3794 27.6846 71.3793Z" fill="#0B5E22"/>
<path d="M14.7076 67.3129H7.44672C7.32245 67.313 7.19937 67.2887 7.08452 67.2413C6.96966 67.1938 6.86529 67.1242 6.77736 67.0364C6.68943 66.9486 6.61968 66.8443 6.57209 66.7295C6.5245 66.6147 6.5 66.4916 6.5 66.3674C6.5 66.2431 6.5245 66.1201 6.57209 66.0053C6.61968 65.8905 6.68943 65.7862 6.77736 65.6984C6.86529 65.6106 6.96966 65.5409 7.08452 65.4935C7.19937 65.4461 7.32245 65.4217 7.44672 65.4219H14.7076C14.8319 65.4217 14.955 65.4461 15.0698 65.4935C15.1847 65.5409 15.2891 65.6106 15.377 65.6984C15.4649 65.7862 15.5347 65.8905 15.5823 66.0053C15.6298 66.1201 15.6543 66.2431 15.6543 66.3674C15.6543 66.4916 15.6298 66.6147 15.5823 66.7295C15.5347 66.8443 15.4649 66.9486 15.377 67.0364C15.2891 67.1242 15.1847 67.1938 15.0698 67.2413C14.955 67.2887 14.8319 67.313 14.7076 67.3129Z" fill="#0B5E22"/>
<path d="M45.6194 48.5728C45.4656 48.5729 45.3132 48.5431 45.1709 48.4849L19.9062 38.0019V5.1882C19.9066 4.89803 20.022 4.61985 20.2272 4.41468C20.4323 4.2095 20.7105 4.09409 21.0007 4.09375H69.469C69.7591 4.09409 70.0373 4.2095 70.2425 4.41468C70.4477 4.61985 70.5631 4.89803 70.5634 5.1882V38.0248L70.5159 38.0451L46.0816 48.4798C45.9353 48.5413 45.7782 48.5729 45.6194 48.5728Z" fill="white"/>
<path d="M45.6195 48.6509C45.4555 48.6511 45.293 48.6193 45.1411 48.5573L19.8281 38.0541V5.18824C19.8285 4.87735 19.9521 4.5793 20.172 4.35947C20.3918 4.13963 20.6899 4.01598 21.0007 4.01562H69.469C69.7799 4.01598 70.078 4.13963 70.2978 4.35947C70.5176 4.5793 70.6413 4.87735 70.6416 5.18824V38.0764L46.1124 48.5517C45.9563 48.6173 45.7888 48.6511 45.6195 48.6509ZM20.1408 37.8452L45.2604 48.2682C45.4947 48.3633 45.7571 48.3617 45.9902 48.2638L70.3289 37.87V5.18824C70.3287 4.96026 70.238 4.7417 70.0768 4.58049C69.9156 4.41928 69.697 4.32859 69.469 4.32832H21.0007C20.7728 4.32859 20.5542 4.41928 20.393 4.58049C20.2318 4.7417 20.1411 4.96026 20.1408 5.18824L20.1408 37.8452Z" fill="#3F3D56"/>
<path d="M88.466 30.2812H88.4347L70.4859 37.9455L45.9281 48.4318C45.8322 48.4722 45.7292 48.4933 45.6251 48.4938C45.521 48.4943 45.4178 48.4743 45.3214 48.435L19.9851 37.9236L1.59525 30.2938L1.56715 30.2812H1.53585C1.24569 30.2816 0.967495 30.397 0.762316 30.6022C0.557138 30.8073 0.441728 31.0855 0.441406 31.3757V78.9059C0.441729 79.196 0.557138 79.4742 0.762316 79.6794C0.967495 79.8846 1.24569 80 1.53585 80.0003H88.466C88.7562 80 89.0344 79.8846 89.2396 79.6794C89.4448 79.4742 89.5602 79.196 89.5605 78.9059V31.3757C89.5602 31.0855 89.4448 30.8073 89.2396 30.6022C89.0344 30.397 88.7562 30.2816 88.466 30.2812ZM89.2478 78.9059C89.2477 79.1132 89.1653 79.312 89.0187 79.4586C88.8721 79.6052 88.6734 79.6875 88.466 79.6876H1.53585C1.32854 79.6875 1.12975 79.6052 0.983165 79.4586C0.836578 79.312 0.754188 79.1132 0.754105 78.9059V31.3757C0.754388 31.1735 0.832805 30.9793 0.972959 30.8336C1.11311 30.6879 1.30416 30.6021 1.50615 30.5939L19.9851 38.2613L45.2011 48.7242C45.4741 48.8353 45.7799 48.8336 46.0517 48.7195L70.4859 38.2848L88.4973 30.5939C88.699 30.6027 88.8895 30.6888 89.0293 30.8344C89.1691 30.98 89.2473 31.1739 89.2478 31.3757V78.9059Z" fill="#3F3D56"/>
<path d="M45.3682 39.2665C44.4355 39.2683 43.5275 38.9667 42.7812 38.4072L42.735 38.3725L32.9927 30.9134C32.5415 30.5677 32.1628 30.1366 31.8783 29.6445C31.5937 29.1525 31.4089 28.6092 31.3343 28.0457C31.2597 27.4822 31.2968 26.9096 31.4436 26.3604C31.5903 25.8113 31.8437 25.2965 32.1894 24.8453C32.5351 24.3941 32.9663 24.0154 33.4584 23.7309C33.9504 23.4463 34.4937 23.2615 35.0572 23.1869C35.6206 23.1123 36.1933 23.1494 36.7424 23.2961C37.2916 23.4429 37.8064 23.6963 38.2576 24.042L44.5679 28.8807L59.4802 9.4329C59.826 8.98183 60.2573 8.6033 60.7495 8.31892C61.2416 8.03455 61.785 7.84989 62.3485 7.7755C62.912 7.70112 63.4846 7.73846 64.0337 7.88539C64.5828 8.03232 65.0976 8.28596 65.5486 8.63184L65.4559 8.75773L65.551 8.63367C66.4609 9.33295 67.0562 10.3646 67.2064 11.5023C67.3566 12.6399 67.0493 13.7907 66.3521 14.7021L48.8117 37.5774C48.406 38.1045 47.8843 38.5311 47.2871 38.824C46.69 39.117 46.0333 39.2684 45.3682 39.2665Z" fill="#0B5E22"/>
</g>
<defs>
<clipPath id="clip0_4339_89591">
<rect width="89.1191" height="80" fill="white" transform="translate(0.441406)"/>
</clipPath>
</defs>
</svg>
