<svg width="32" height="32" viewBox="0 0 32 32" xmlns="http://www.w3.org/2000/svg">
<path d="M16.0535 1.33325C7.92416 1.33325 1.3335 7.92392 1.3335 16.0533C1.3335 24.1826 7.92416 30.7733 16.0535 30.7733C24.1828 30.7733 30.7735 24.1826 30.7735 16.0533C30.7735 7.92392 24.1828 1.33325 16.0535 1.33325ZM15.4508 12.8653C16.1162 12.8653 16.6562 13.4053 16.6562 14.0706C16.6562 14.7359 16.1162 15.2759 15.4508 15.2759H11.1322C11.1015 15.5319 11.0828 15.7906 11.0828 16.0546C11.0828 16.3186 11.1002 16.5773 11.1322 16.8333H15.4508C16.1162 16.8333 16.6562 17.3733 16.6562 18.0386C16.6562 18.7039 16.1162 19.2439 15.4508 19.2439H11.9375C13.0442 21.1653 15.1175 22.4613 17.4895 22.4613C18.6002 22.4613 19.6455 22.1773 20.5562 21.6773C20.9828 21.4439 21.3802 21.1626 21.7415 20.8413C22.1828 20.4493 22.8468 20.4493 23.3002 20.8279C23.8668 21.2999 23.8828 22.1679 23.3295 22.6559C23.0682 22.8866 22.7935 23.1026 22.5055 23.3013C21.0815 24.2893 19.3535 24.8693 17.4882 24.8693C13.7442 24.8693 10.5482 22.5346 9.2695 19.2426H7.01616C6.35083 19.2426 5.81083 18.7026 5.81083 18.0373C5.81083 17.3719 6.35083 16.8319 7.01616 16.8319H8.7095C8.68683 16.5746 8.6735 16.3159 8.6735 16.0533C8.6735 15.7906 8.68683 15.5319 8.7095 15.2746H7.01616C6.35083 15.2746 5.81083 14.7346 5.81083 14.0693C5.81083 13.4039 6.35083 12.8639 7.01616 12.8639H9.2695C10.5482 9.57192 13.7442 7.23725 17.4882 7.23725C19.3522 7.23725 21.0802 7.81725 22.5055 8.80525C22.7935 9.00392 23.0682 9.21992 23.3295 9.45059C23.8828 9.93859 23.8668 10.8066 23.3002 11.2786C22.8468 11.6559 22.1815 11.6573 21.7415 11.2653C21.3802 10.9439 20.9828 10.6639 20.5562 10.4293C19.6442 9.93059 18.6002 9.64525 17.4895 9.64525C15.1175 9.64525 13.0442 10.9426 11.9375 12.8626H15.4508V12.8653Z" />
</svg>
