<svg width="20" height="20" viewBox="0 0 20 20" xmlns="http://www.w3.org/2000/svg">
<g clip-path="url(#clip0_2511_23574)">
<path d="M9.99981 0.800049C8.18022 0.800049 6.4015 1.33962 4.88856 2.35053C3.37563 3.36144 2.19644 4.79828 1.50012 6.47936C0.803791 8.16044 0.6216 10.0103 0.976584 11.7949C1.33157 13.5795 2.20778 15.2188 3.49443 16.5054C4.78107 17.7921 6.42035 18.6683 8.20498 19.0233C9.9896 19.3783 11.8394 19.1961 13.5205 18.4997C15.2016 17.8034 16.6384 16.6242 17.6493 15.1113C18.6602 13.5984 19.1998 11.8196 19.1998 10C19.1998 8.79189 18.9618 7.59556 18.4995 6.47936C18.0372 5.36317 17.3595 4.34897 16.5052 3.49467C15.6509 2.64037 14.6367 1.9627 13.5205 1.50036C12.4043 1.03801 11.208 0.800049 9.99981 0.800049ZM9.63731 3.20005H10.3623C10.4702 3.20007 10.5769 3.22189 10.6761 3.26422C10.7753 3.30654 10.8649 3.36848 10.9396 3.44632C11.0142 3.52417 11.0724 3.6163 11.1105 3.71718C11.1486 3.81807 11.166 3.92562 11.1615 4.03338L10.8331 11.2367C10.8235 11.4423 10.7351 11.6362 10.5863 11.7783C10.4375 11.9204 10.2397 11.9998 10.034 12H9.96231C9.75712 11.999 9.56016 11.9192 9.41208 11.7772C9.264 11.6351 9.17608 11.4417 9.16648 11.2367L8.83981 4.03672C8.83486 3.92882 8.85181 3.82105 8.88963 3.71988C8.92745 3.61872 8.98537 3.52626 9.05989 3.44808C9.13441 3.3699 9.22399 3.30762 9.32323 3.26499C9.42246 3.22236 9.5293 3.20027 9.63731 3.20005ZM9.99981 16.8001C9.68336 16.8001 9.37402 16.7062 9.1109 16.5304C8.84778 16.3546 8.6427 16.1047 8.5216 15.8123C8.4005 15.52 8.36882 15.1983 8.43055 14.8879C8.49229 14.5775 8.64467 14.2924 8.86844 14.0687C9.0922 13.8449 9.37729 13.6925 9.68766 13.6308C9.99803 13.5691 10.3197 13.6007 10.6121 13.7218C10.9045 13.8429 11.1543 14.048 11.3302 14.3111C11.506 14.5743 11.5998 14.8836 11.5998 15.2001C11.5998 15.6244 11.4312 16.0314 11.1312 16.3314C10.8311 16.6315 10.4242 16.8001 9.99981 16.8001Z"/>
</g>
<defs>
<clipPath id="clip0_2511_23574">
<rect width="20" height="20"/>
</clipPath>
</defs>
</svg>
