<svg width="24" height="24" viewBox="0 0 32 32" xmlns="http://www.w3.org/2000/svg">
<path d="M18.3665 30.2986L11.9665 24.8133C11.8263 24.6931 11.7138 24.544 11.6366 24.3762C11.5595 24.2085 11.5197 24.026 11.5198 23.8413V14.5933C11.5197 14.3308 11.4387 14.0748 11.2878 13.86L3.96918 3.40396C3.83506 3.21209 3.75613 2.98712 3.74097 2.75351C3.72581 2.51991 3.775 2.28662 3.8832 2.07903C3.99139 1.87144 4.15445 1.69749 4.35462 1.57612C4.55479 1.45474 4.78441 1.39058 5.01851 1.39063H26.9812C27.2153 1.39058 27.4449 1.45474 27.6451 1.57612C27.8452 1.69749 28.0083 1.87144 28.1165 2.07903C28.2247 2.28662 28.2739 2.51991 28.2587 2.75351C28.2436 2.98712 28.1646 3.21209 28.0305 3.40396L20.7118 13.8666C20.561 14.0814 20.48 14.3375 20.4798 14.6V29.3333C20.4787 29.5776 20.4076 29.8165 20.275 30.0217C20.1424 30.2269 19.9539 30.3898 19.7317 30.4914C19.5095 30.5929 19.2628 30.6287 19.0209 30.5945C18.779 30.5603 18.5519 30.4577 18.3665 30.2986Z" />
</svg>
