<svg width="32" height="32" viewBox="0 0 32 32" xmlns="http://www.w3.org/2000/svg">
<path d="M9.81352 12.3731C9.81352 13.3158 10.5775 14.0798 11.5202 14.0798H27.7335C28.6762 14.0798 29.4402 13.3158 29.4402 12.3731V5.97312H9.81352V12.3731ZM26.0269 9.81312C26.4975 9.81312 26.8802 10.1958 26.8802 10.6665C26.8802 11.1371 26.4975 11.5198 26.0269 11.5198C25.5562 11.5198 25.1735 11.1371 25.1735 10.6665C25.1735 10.1958 25.5562 9.81312 26.0269 9.81312ZM13.2269 9.81312H19.2002C19.6709 9.81312 20.0535 10.1958 20.0535 10.6665C20.0535 11.1371 19.6709 11.5198 19.2002 11.5198H13.2269C12.7562 11.5198 12.3735 11.1371 12.3735 10.6665C12.3735 10.1958 12.7549 9.81312 13.2269 9.81312Z" />
<path d="M27.7335 1.27979H11.5202C10.5775 1.27979 9.81352 2.04379 9.81352 2.98645V4.26645H29.4402V2.98645C29.4402 2.04379 28.6762 1.27979 27.7335 1.27979Z" />
<path d="M4.96552 21.2251C4.59086 20.6585 3.81486 20.5291 3.27752 20.9438L3.01619 21.1451C2.72952 21.3665 2.56152 21.7078 2.56152 22.0705V29.4745C2.56152 29.8958 2.76419 30.3038 3.12552 30.5211C3.31219 30.6345 3.52152 30.6905 3.72952 30.6905C3.95619 30.6905 4.18286 30.6251 4.37752 30.4945L8.07086 28.0331C8.60686 27.6758 8.75219 26.9531 8.39752 26.4158L4.96552 21.2251Z" />
<path d="M26.8562 16.4185C26.4349 16.4185 26.0149 16.5785 25.6602 16.7345L25.6509 16.7385C25.6282 16.7465 25.6055 16.7558 25.5829 16.7665L23.1135 17.8678C22.6695 18.0665 22.4042 18.5171 22.4229 19.0038C22.4669 20.0958 22.0735 21.2011 21.2415 22.0331C20.4602 22.8145 19.4509 23.2758 18.4735 23.2998L18.3149 23.3038L14.2749 22.2931C13.6482 22.1371 13.2682 21.5025 13.4242 20.8758C13.5802 20.2491 14.2149 19.8691 14.8415 20.0251L18.5469 20.9518C18.8282 20.9118 19.1322 20.7678 19.4055 20.5451C19.7389 20.2745 20.0615 19.7051 20.0882 19.2771C20.1189 18.7785 19.9389 18.3038 19.5895 17.9531C19.3389 17.7025 19.0855 17.6331 18.3882 17.4705L18.1735 17.4198L10.8229 15.5745C10.5469 15.5051 10.2549 15.5651 10.0295 15.7385L6.99086 18.0811C6.50552 18.4558 6.39219 19.1398 6.72952 19.6518L10.4469 25.2478C10.8002 25.7798 11.3549 26.1438 11.9829 26.2558L18.7175 27.4585C19.0242 27.5131 19.3402 27.4438 19.5949 27.2638L28.3162 21.1358C29.0202 20.6531 29.4415 19.8558 29.4415 19.0025C29.4415 17.5771 28.2815 16.4185 26.8562 16.4185Z" />
</svg>
