<svg width="24" height="24" viewBox="0 0 24 24" xmlns="http://www.w3.org/2000/svg">
<g clip-path="url(#clip0_1201_3218)">
<path d="M2.39996 3.83984C2.11516 3.83984 1.83675 3.9243 1.59994 4.08253C1.36313 4.24076 1.17857 4.46565 1.06958 4.72878C0.960585 4.99191 0.932068 5.28144 0.987631 5.56077C1.04319 5.84011 1.18034 6.09669 1.38173 6.29808C1.58312 6.49947 1.8397 6.63661 2.11903 6.69217C2.39836 6.74774 2.6879 6.71922 2.95103 6.61023C3.21415 6.50124 3.43905 6.31667 3.59728 6.07986C3.75551 5.84306 3.83996 5.56465 3.83996 5.27984C3.83996 4.89793 3.68825 4.53166 3.4182 4.26161C3.14814 3.99156 2.78187 3.83984 2.39996 3.83984Z" />
<path d="M22.08 4.31984H6.71996C6.18977 4.31984 5.75996 4.74965 5.75996 5.27984C5.75996 5.81004 6.18977 6.23984 6.71996 6.23984H22.08C22.6102 6.23984 23.04 5.81004 23.04 5.27984C23.04 4.74965 22.6102 4.31984 22.08 4.31984Z" />
<path d="M2.39996 10.5598C2.11516 10.5598 1.83675 10.6443 1.59994 10.8025C1.36313 10.9608 1.17857 11.1857 1.06958 11.4488C0.960585 11.7119 0.932068 12.0014 0.987631 12.2808C1.04319 12.5601 1.18034 12.8167 1.38173 13.0181C1.58312 13.2195 1.8397 13.3566 2.11903 13.4122C2.39836 13.4677 2.6879 13.4392 2.95103 13.3302C3.21415 13.2212 3.43905 13.0367 3.59728 12.7999C3.75551 12.5631 3.83996 12.2846 3.83996 11.9998C3.83996 11.6179 3.68825 11.2517 3.4182 10.9816C3.14814 10.7116 2.78187 10.5598 2.39996 10.5598Z" />
<path d="M22.08 11.0398H6.71996C6.18977 11.0398 5.75996 11.4697 5.75996 11.9998C5.75996 12.53 6.18977 12.9598 6.71996 12.9598H22.08C22.6102 12.9598 23.04 12.53 23.04 11.9998C23.04 11.4697 22.6102 11.0398 22.08 11.0398Z" />
<path d="M2.39996 17.2798C2.11516 17.2798 1.83675 17.3643 1.59994 17.5225C1.36313 17.6808 1.17857 17.9057 1.06958 18.1688C0.960585 18.4319 0.932068 18.7214 0.987631 19.0008C1.04319 19.2801 1.18034 19.5367 1.38173 19.7381C1.58312 19.9395 1.8397 20.0766 2.11903 20.1322C2.39836 20.1877 2.6879 20.1592 2.95103 20.0502C3.21415 19.9412 3.43905 19.7567 3.59728 19.5199C3.75551 19.2831 3.83996 19.0046 3.83996 18.7198C3.83996 18.5307 3.80271 18.3435 3.73035 18.1688C3.65798 17.9941 3.55191 17.8353 3.4182 17.7016C3.28448 17.5679 3.12573 17.4618 2.95103 17.3895C2.77632 17.3171 2.58907 17.2798 2.39996 17.2798Z" />
<path d="M22.08 17.7598H6.71996C6.18977 17.7598 5.75996 18.1896 5.75996 18.7198C5.75996 19.25 6.18977 19.6798 6.71996 19.6798H22.08C22.6102 19.6798 23.04 19.25 23.04 18.7198C23.04 18.1896 22.6102 17.7598 22.08 17.7598Z" />
<g mask="url(#mask0_1201_3218)">
<rect width="24" height="24" />
</g>
</g>
<defs>
<clipPath id="clip0_1201_3218">
<rect width="24" height="24" />
</clipPath>
</defs>
</svg>
