<svg width="32" height="32" viewBox="0 0 32 32" fill="#0B5E22" xmlns="http://www.w3.org/2000/svg">
<g clip-path="url(#clip0_574_12837)">
<mask id="mask0_574_12837" style="mask-type:alpha" maskUnits="userSpaceOnUse" x="0" y="0" width="32" height="32">
<path d="M28.16 3.84003H3.84C3.16104 3.84003 2.5099 4.10974 2.02981 4.58983C1.54971 5.06993 1.28 5.72107 1.28 6.40003V25.6C1.28 26.279 1.54971 26.9301 2.02981 27.4102C2.5099 27.8903 3.16104 28.16 3.84 28.16H28.16C28.839 28.16 29.4901 27.8903 29.9702 27.4102C30.4503 26.9301 30.72 26.279 30.72 25.6V6.40003C30.72 5.72107 30.4503 5.06993 29.9702 4.58983C29.4901 4.10974 28.839 3.84003 28.16 3.84003ZM11.456 8.97069C12.1522 8.97069 12.8327 9.17714 13.4116 9.56392C13.9905 9.9507 14.4416 10.5005 14.7081 11.1436C14.9745 11.7868 15.0442 12.4946 14.9084 13.1774C14.7725 13.8602 14.4373 14.4874 13.945 14.9797C13.4527 15.472 12.8255 15.8072 12.1427 15.9431C11.4599 16.0789 10.7521 16.0092 10.109 15.7427C9.46576 15.4763 8.91601 15.0252 8.52923 14.4463C8.14244 13.8674 7.936 13.1869 7.936 12.4907C7.936 11.5571 8.30686 10.6618 8.96698 10.0017C9.62711 9.34155 10.5224 8.97069 11.456 8.97069ZM15.7507 23.0507H7.16267C6.96214 23.0499 6.76457 23.0022 6.58578 22.9114C6.40698 22.8206 6.25191 22.6892 6.13296 22.5278C6.01402 22.3663 5.9345 22.1793 5.90076 21.9816C5.86702 21.7839 5.88 21.5811 5.93867 21.3894C6.29603 20.2041 7.02558 19.1655 8.01929 18.4272C9.013 17.6889 10.218 17.2902 11.456 17.2902C12.694 17.2902 13.899 17.6889 14.8927 18.4272C15.8864 19.1655 16.616 20.2041 16.9733 21.3894C17.0323 21.581 17.0455 21.7838 17.0119 21.9815C16.9784 22.1792 16.899 22.3663 16.7802 22.5278C16.6613 22.6893 16.5063 22.8207 16.3275 22.9115C16.1487 23.0023 15.9512 23.05 15.7507 23.0507ZM24.9333 16.64H19.8133C19.4739 16.64 19.1483 16.5052 18.9082 16.2651C18.6682 16.0251 18.5333 15.6995 18.5333 15.36C18.5333 15.0205 18.6682 14.695 18.9082 14.4549C19.1483 14.2149 19.4739 14.08 19.8133 14.08H24.9333C25.2728 14.08 25.5984 14.2149 25.8384 14.4549C26.0785 14.695 26.2133 15.0205 26.2133 15.36C26.2133 15.6995 26.0785 16.0251 25.8384 16.2651C25.5984 16.5052 25.2728 16.64 24.9333 16.64ZM24.9333 11.5307H19.8133C19.4739 11.5307 19.1483 11.3958 18.9082 11.1558C18.6682 10.9157 18.5333 10.5902 18.5333 10.2507C18.5333 9.91122 18.6682 9.58564 18.9082 9.3456C19.1483 9.10555 19.4739 8.97069 19.8133 8.97069H24.9333C25.1014 8.97069 25.2679 9.0038 25.4232 9.06813C25.5785 9.13245 25.7196 9.22674 25.8384 9.3456C25.9573 9.46446 26.0516 9.60556 26.1159 9.76086C26.1802 9.91616 26.2133 10.0826 26.2133 10.2507C26.2133 10.4188 26.1802 10.5852 26.1159 10.7405C26.0516 10.8958 25.9573 11.0369 25.8384 11.1558C25.7196 11.2746 25.5785 11.3689 25.4232 11.4333C25.2679 11.4976 25.1014 11.5307 24.9333 11.5307Z" fill="#fff"/>
</mask>
<g mask="url(#mask0_574_12837)">
<rect width="32" height="32" fill="#0B5E22"/>
</g>
</g>
<defs>
<clipPath id="clip0_574_12837">
<rect width="32" height="32" fill="#0B5E22"/>
</clipPath>
</defs>
</svg>
