<svg width="20" height="20" viewBox="0 0 20 20" xmlns="http://www.w3.org/2000/svg">
<g clip-path="url(#clip0_2511_23576)">
<path d="M9.99981 0.800049C8.18022 0.800049 6.4015 1.33962 4.88856 2.35053C3.37563 3.36144 2.19644 4.79828 1.50012 6.47936C0.803791 8.16044 0.6216 10.0103 0.976584 11.7949C1.33157 13.5795 2.20778 15.2188 3.49443 16.5054C4.78107 17.7921 6.42035 18.6683 8.20498 19.0233C9.9896 19.3783 11.8394 19.1961 13.5205 18.4997C15.2016 17.8034 16.6384 16.6242 17.6493 15.1113C18.6602 13.5984 19.1998 11.8196 19.1998 10C19.1998 8.79189 18.9618 7.59556 18.4995 6.47936C18.0372 5.36317 17.3595 4.34897 16.5052 3.49467C15.6509 2.64037 14.6367 1.9627 13.5205 1.50036C12.4043 1.03801 11.208 0.800049 9.99981 0.800049ZM11.3656 15.7659C11.2155 15.9158 11.012 16 10.7998 16.0001H9.51648C9.28218 16.0001 9.05075 15.9486 8.83855 15.8493C8.62635 15.75 8.43856 15.6052 8.28847 15.4253C8.13838 15.2454 8.02965 15.0348 7.96998 14.8082C7.9103 14.5816 7.90114 14.3447 7.94314 14.1142L8.87064 9.60005H8.39981C8.18764 9.60005 7.98415 9.51576 7.83412 9.36573C7.68409 9.21571 7.59981 9.01222 7.59981 8.80005C7.59981 8.58788 7.68409 8.38439 7.83412 8.23436C7.98415 8.08434 8.18764 8.00005 8.39981 8.00005H9.64981C9.88678 8.00005 10.1208 8.05269 10.3349 8.15416C10.5491 8.25564 10.738 8.40341 10.8881 8.58681C11.0381 8.77021 11.1456 8.98465 11.2027 9.21464C11.2598 9.44463 11.265 9.68443 11.2181 9.91672L10.3198 14.4001H10.7998C10.9581 14.4 11.1128 14.4469 11.2444 14.5348C11.376 14.6227 11.4786 14.7476 11.5392 14.8939C11.5998 15.0401 11.6156 15.201 11.5847 15.3562C11.5538 15.5114 11.4776 15.654 11.3656 15.7659ZM11.9898 6.39005C11.7608 6.61909 11.4594 6.76164 11.1371 6.7934C10.8148 6.82517 10.4914 6.74418 10.2221 6.56425C9.95276 6.38432 9.75416 6.11657 9.66012 5.80663C9.56608 5.49668 9.58241 5.16372 9.70634 4.86447C9.83028 4.56522 10.0541 4.3182 10.3398 4.1655C10.6254 4.0128 10.9552 3.96386 11.2728 4.02703C11.5905 4.0902 11.8765 4.26156 12.082 4.51192C12.2875 4.76229 12.3998 5.07615 12.3998 5.40005C12.3999 5.58392 12.3638 5.766 12.2934 5.93588C12.223 6.10576 12.1199 6.26009 11.9898 6.39005Z"/>
</g>
<defs>
<clipPath id="clip0_2511_23576">
<rect width="20" height="20"/>
</clipPath>
</defs>
</svg>
