<svg width="32" height="32" viewBox="0 0 32 32" xmlns="http://www.w3.org/2000/svg">
<path d="M3.19979 5.12012C2.82005 5.12012 2.44883 5.23272 2.13309 5.4437C1.81735 5.65467 1.57126 5.95453 1.42594 6.30536C1.28062 6.6562 1.24259 7.04225 1.31668 7.41469C1.39076 7.78713 1.57362 8.12925 1.84214 8.39776C2.11066 8.66628 2.45277 8.84914 2.82521 8.92322C3.19766 8.99731 3.5837 8.95929 3.93454 8.81397C4.28537 8.66865 4.58524 8.42255 4.79621 8.10681C5.00718 7.79107 5.11979 7.41986 5.11979 7.04012C5.11979 6.5309 4.9175 6.04254 4.55743 5.68247C4.19736 5.3224 3.709 5.12012 3.19979 5.12012Z" />
<path d="M29.4398 5.76012H8.95979C8.25286 5.76012 7.67979 6.33319 7.67979 7.04012C7.67979 7.74704 8.25286 8.32012 8.95979 8.32012H29.4398C30.1467 8.32012 30.7198 7.74704 30.7198 7.04012C30.7198 6.33319 30.1467 5.76012 29.4398 5.76012Z" />
<path d="M3.19979 14.0801C2.82005 14.0801 2.44883 14.1927 2.13309 14.4037C1.81735 14.6147 1.57126 14.9145 1.42594 15.2654C1.28062 15.6162 1.24259 16.0022 1.31668 16.3747C1.39076 16.7471 1.57362 17.0892 1.84214 17.3578C2.11066 17.6263 2.45277 17.8091 2.82521 17.8832C3.19766 17.9573 3.5837 17.9193 3.93454 17.774C4.28537 17.6286 4.58524 17.3826 4.79621 17.0668C5.00718 16.7511 5.11979 16.3799 5.11979 16.0001C5.11979 15.4909 4.9175 15.0025 4.55743 14.6425C4.19736 14.2824 3.709 14.0801 3.19979 14.0801Z" />
<path d="M29.4398 14.7201H8.95979C8.25286 14.7201 7.67979 15.2932 7.67979 16.0001C7.67979 16.707 8.25286 17.2801 8.95979 17.2801H29.4398C30.1467 17.2801 30.7198 16.707 30.7198 16.0001C30.7198 15.2932 30.1467 14.7201 29.4398 14.7201Z" />
<path d="M3.19979 23.0401C2.82005 23.0401 2.44883 23.1527 2.13309 23.3637C1.81735 23.5747 1.57126 23.8745 1.42594 24.2254C1.28062 24.5762 1.24259 24.9622 1.31668 25.3347C1.39076 25.7071 1.57362 26.0492 1.84214 26.3178C2.11066 26.5863 2.45277 26.7691 2.82521 26.8432C3.19766 26.9173 3.5837 26.8793 3.93454 26.734C4.28537 26.5886 4.58524 26.3426 4.79621 26.0268C5.00718 25.7111 5.11979 25.3399 5.11979 24.9601C5.11979 24.708 5.07012 24.4583 4.97363 24.2254C4.87715 23.9924 4.73572 23.7808 4.55743 23.6025C4.37914 23.4242 4.16748 23.2828 3.93454 23.1863C3.70159 23.0898 3.45192 23.0401 3.19979 23.0401Z" />
<path d="M29.4398 23.6801H8.95979C8.25286 23.6801 7.67979 24.2532 7.67979 24.9601C7.67979 25.667 8.25286 26.2401 8.95979 26.2401H29.4398C30.1467 26.2401 30.7198 25.667 30.7198 24.9601C30.7198 24.2532 30.1467 23.6801 29.4398 23.6801Z" />
</svg>
