<svg width="20" height="24" viewBox="0 0 20 24" fill="none" xmlns="http://www.w3.org/2000/svg">
    <path
        d="M19.12 11.983C19.12 12.2374 19.0194 12.4815 18.84 12.662L14.52 17C14.431 17.0893 14.3252 17.1601 14.2088 17.2086C14.0924 17.257 13.9675 17.282 13.8414 17.2822C13.7153 17.2824 13.5904 17.2577 13.4738 17.2097C13.3573 17.1616 13.2513 17.091 13.162 17.002C13.0727 16.9129 13.0018 16.8072 12.9534 16.6907C12.905 16.5743 12.8799 16.4495 12.8798 16.3234C12.8796 16.1973 12.9042 16.0724 12.9523 15.9558C13.0004 15.8392 13.071 15.7333 13.16 15.644L15.833 12.962H5.664C5.4094 12.962 5.16522 12.8608 4.98518 12.6808C4.80515 12.5007 4.704 12.2566 4.704 12.002C4.704 11.7474 4.80515 11.5032 4.98518 11.3231C5.16522 11.1431 5.4094 11.042 5.664 11.042H15.852L13.162 8.36196C12.9814 8.18214 12.8796 7.93794 12.879 7.68308C12.8785 7.42822 12.9792 7.18357 13.159 7.00296C13.3388 6.82235 13.583 6.72057 13.8379 6.72C14.0927 6.71944 14.3374 6.82014 14.518 6.99996L18.838 11.305C19.0181 11.4847 19.1196 11.7285 19.12 11.983Z" />
    <path
        d="M15.539 18.017C15.0893 18.4678 14.479 18.7216 13.8422 18.7224C13.2054 18.7233 12.5944 18.4711 12.1435 18.0215C11.6926 17.5718 11.4389 16.9614 11.438 16.3246C11.4372 15.6879 11.6893 15.0768 12.139 14.626L12.363 14.4H5.663C5.02649 14.4 4.41604 14.1471 3.96595 13.697C3.51586 13.2469 3.263 12.6365 3.263 12C3.263 11.3634 3.51586 10.753 3.96595 10.3029C4.41604 9.85282 5.02649 9.59996 5.663 9.59996H12.363L12.143 9.37996C11.9168 9.15815 11.7368 8.89376 11.6133 8.60205C11.4899 8.31033 11.4253 7.99705 11.4235 7.68028C11.4217 7.3635 11.4826 7.0495 11.6027 6.75639C11.7229 6.46327 11.8998 6.19683 12.1234 5.97244C12.347 5.74805 12.6128 5.57014 12.9055 5.44898C13.1982 5.32782 13.512 5.2658 13.8288 5.2665C14.1456 5.2672 14.4591 5.3306 14.7512 5.45305C15.0434 5.57551 15.3084 5.75458 15.531 5.97996L17.2 7.63896V2.87996C17.1992 2.37099 16.9967 1.88309 16.6368 1.52319C16.2769 1.16329 15.789 0.960754 15.28 0.959961H2.8C2.29103 0.960754 1.80313 1.16329 1.44324 1.52319C1.08334 1.88309 0.880798 2.37099 0.880005 2.87996V21.12C0.880798 21.6289 1.08334 22.1168 1.44324 22.4767C1.80313 22.8366 2.29103 23.0392 2.8 23.04H15.28C15.789 23.0392 16.2769 22.8366 16.6368 22.4767C16.9967 22.1168 17.1992 21.6289 17.2 21.12V16.35L15.539 18.017Z" />
</svg>