<svg width="12" height="12" viewBox="0 0 32 32" xmlns="http://www.w3.org/2000/svg">
<path d="M16 1.27979C12.9447 1.27979 10.0145 2.4935 7.85411 4.65392C5.69369 6.81433 4.47998 9.74449 4.47998 12.7998C4.47998 20.4798 12.8 30.7198 16 30.7198C19.2 30.7198 27.52 20.4798 27.52 12.7998C27.52 9.74449 26.3063 6.81433 24.1459 4.65392C21.9854 2.4935 19.0553 1.27979 16 1.27979V1.27979ZM16 17.2798C15.1139 17.2798 14.2478 17.017 13.511 16.5248C12.7743 16.0325 12.2001 15.3328 11.861 14.5142C11.5219 13.6956 11.4332 12.7948 11.6061 11.9258C11.7789 11.0567 12.2056 10.2585 12.8321 9.63195C13.4587 9.00541 14.2569 8.57873 15.126 8.40587C15.995 8.23301 16.8958 8.32172 17.7144 8.6608C18.533 8.99989 19.2327 9.5741 19.725 10.3108C20.2172 11.0476 20.48 11.9137 20.48 12.7998C20.48 13.988 20.008 15.1275 19.1678 15.9676C18.3277 16.8078 17.1882 17.2798 16 17.2798V17.2798Z"/>
</svg>
