<svg width="32" height="32" viewBox="0 0 32 32" xmlns="http://www.w3.org/2000/svg">
<path d="M12.8002 27.9547L20.4802 25.76V4L12.8002 6.19467V27.9547Z" />
<path d="M23.0403 4.64001V26.4L27.5389 27.5253C27.9164 27.6198 28.3105 27.6269 28.6911 27.5462C29.0718 27.4656 29.4291 27.2991 29.7358 27.0597C30.0425 26.8202 30.2906 26.514 30.4611 26.1642C30.6317 25.8145 30.7204 25.4305 30.7203 25.0413V8.55868C30.7202 7.98781 30.5293 7.43333 30.1781 6.9833C29.8269 6.53326 29.3354 6.21346 28.7816 6.07468L23.0403 4.64001Z" />
<path d="M10.2403 6.24002L4.46161 4.80002C4.08456 4.70568 3.69098 4.69844 3.31071 4.77884C2.93045 4.85924 2.57348 5.02517 2.26688 5.26405C1.96028 5.50293 1.7121 5.80849 1.54116 6.15755C1.37022 6.50661 1.281 6.89001 1.28027 7.27868V23.7613C1.28038 24.3322 1.47121 24.8867 1.82244 25.3367C2.17368 25.7868 2.66519 26.1066 3.21894 26.2453L10.2403 28V6.24002Z" />
</svg>
