<svg width="124" height="120" viewBox="0 0 124 120" fill="none" xmlns="http://www.w3.org/2000/svg">
<g clip-path="url(#clip0_4252_29504)">
<path d="M78.5762 26.9876H45.4505C44.6956 26.9885 43.972 27.2888 43.4382 27.8226C42.9044 28.3564 42.6041 29.0801 42.6032 29.8349V103.457L42.2236 103.573L34.0973 106.061C33.7122 106.179 33.2962 106.139 32.9407 105.95C32.5852 105.761 32.3192 105.438 32.201 105.053L8.02915 26.0973C7.91152 25.7122 7.95161 25.2961 8.14062 24.9406C8.32963 24.585 8.65208 24.319 9.03711 24.201L21.5597 20.3666L57.863 9.25451L70.3854 5.42012C70.576 5.36147 70.7763 5.34097 70.9748 5.35981C71.1733 5.37864 71.3661 5.43644 71.5422 5.52988C71.7184 5.62333 71.8744 5.75059 72.0013 5.90439C72.1282 6.05818 72.2235 6.23549 72.2818 6.42617L78.4604 26.608L78.5762 26.9876Z" fill="#F2F2F2"/>
<path d="M85.8047 26.6079L78.3581 2.2842C78.2342 1.87892 78.0316 1.50202 77.762 1.17505C77.4924 0.848081 77.161 0.577441 76.7868 0.378595C76.4125 0.179749 76.0028 0.056594 75.5809 0.0161718C75.159 -0.0242504 74.7334 0.0188524 74.3282 0.143013L56.7222 5.53204L20.4209 16.6461L2.81497 22.037C1.9971 22.2881 1.31228 22.8535 0.91083 23.6091C0.509385 24.3646 0.424112 25.2486 0.673733 26.0669L26.125 109.195C26.3278 109.856 26.7369 110.434 27.2924 110.845C27.8479 111.256 28.5205 111.478 29.2115 111.479C29.5313 111.479 29.8493 111.431 30.1549 111.336L42.2237 107.643L42.6034 107.525V107.128L42.2237 107.244L30.0429 110.974C29.321 111.194 28.5412 111.119 27.8747 110.765C27.2082 110.411 26.7094 109.807 26.4876 109.085L1.03827 25.9549C0.928379 25.5975 0.890079 25.2218 0.925562 24.8496C0.961044 24.4773 1.06961 24.1157 1.24504 23.7854C1.42048 23.4552 1.65934 23.1628 1.94795 22.925C2.23655 22.6872 2.56923 22.5086 2.92693 22.3996L20.5329 17.0086L56.8343 5.8965L74.4402 0.505575C74.7115 0.422775 74.9936 0.380557 75.2773 0.380292C75.886 0.381659 76.4784 0.577926 76.9676 0.940345C77.4567 1.30276 77.817 1.81229 77.9956 2.3943L85.408 26.6079L85.5258 26.9875H85.9206L85.8047 26.6079Z" fill="#3F3D56"/>
<path d="M23.8195 24.263C23.4536 24.2627 23.0975 24.1452 22.8033 23.9277C22.5091 23.7102 22.2924 23.4041 22.1849 23.0544L19.7399 15.0683C19.6742 14.8538 19.6514 14.6284 19.6728 14.4051C19.6942 14.1818 19.7594 13.9648 19.8647 13.7667C19.9699 13.5686 20.1132 13.3931 20.2863 13.2504C20.4593 13.1076 20.6588 13.0003 20.8734 12.9347L54.2703 2.7102C54.7036 2.578 55.1716 2.62308 55.5716 2.83557C55.9716 3.04806 56.271 3.41058 56.4041 3.84357L58.849 11.8298C58.9812 12.263 58.936 12.731 58.7236 13.131C58.5111 13.531 58.1486 13.8304 57.7157 13.9635L24.3186 24.188C24.1569 24.2376 23.9887 24.2629 23.8195 24.263Z" fill="#086B39"/>
<path d="M36.6275 8.53328C38.7242 8.53328 40.4239 6.83356 40.4239 4.73685C40.4239 2.64015 38.7242 0.94043 36.6275 0.94043C34.5308 0.94043 32.8311 2.64015 32.8311 4.73685C32.8311 6.83356 34.5308 8.53328 36.6275 8.53328Z" fill="#086B39"/>
<path d="M36.6276 7.14104C37.9553 7.14104 39.0317 6.06472 39.0317 4.73702C39.0317 3.40932 37.9553 2.33301 36.6276 2.33301C35.2999 2.33301 34.2236 3.40932 34.2236 4.73702C34.2236 6.06472 35.2999 7.14104 36.6276 7.14104Z" fill="white"/>
<path d="M114.925 110.509H50.7658C50.3381 110.508 49.9279 110.338 49.6255 110.036C49.323 109.733 49.1528 109.323 49.1523 108.895V32.0178C49.1528 31.59 49.323 31.1799 49.6254 30.8774C49.9279 30.5749 50.338 30.4048 50.7658 30.4043H114.925C115.353 30.4048 115.763 30.5749 116.066 30.8774C116.368 31.1799 116.538 31.59 116.539 32.0178V108.895C116.538 109.323 116.368 109.733 116.066 110.036C115.763 110.338 115.353 110.508 114.925 110.509Z" fill="#E6E6E6"/>
<path d="M85.408 26.6079H45.4506C44.5951 26.6091 43.775 26.9495 43.1701 27.5544C42.5652 28.1593 42.2248 28.9794 42.2236 29.8349V107.244L42.6033 107.128V29.8349C42.6042 29.08 42.9045 28.3563 43.4382 27.8225C43.972 27.2888 44.6957 26.9885 45.4506 26.9876H85.5257L85.408 26.6079ZM120.24 26.6079H45.4506C44.5951 26.6091 43.775 26.9495 43.1701 27.5544C42.5652 28.1593 42.2248 28.9794 42.2236 29.8349V116.773C42.2248 117.628 42.5652 118.449 43.1701 119.053C43.775 119.658 44.5951 119.999 45.4506 120H120.24C121.096 119.999 121.916 119.658 122.521 119.053C123.126 118.449 123.466 117.628 123.467 116.773V29.8349C123.466 28.9794 123.126 28.1593 122.521 27.5544C121.916 26.9495 121.096 26.6091 120.24 26.6079ZM123.087 116.773C123.087 117.528 122.786 118.252 122.252 118.785C121.719 119.319 120.995 119.619 120.24 119.62H45.4506C44.6957 119.619 43.972 119.319 43.4382 118.785C42.9045 118.252 42.6042 117.528 42.6033 116.773V29.8349C42.6042 29.08 42.9045 28.3563 43.4382 27.8225C43.972 27.2888 44.6957 26.9885 45.4506 26.9876H120.24C120.995 26.9885 121.719 27.2888 122.252 27.8225C122.786 28.3563 123.087 29.08 123.087 29.8349V116.773Z" fill="#3F3D56"/>
<path d="M100.309 34.9603H65.3822C64.9293 34.9598 64.495 34.7797 64.1748 34.4594C63.8545 34.1391 63.6743 33.7049 63.6738 33.2519V24.8998C63.6743 24.4469 63.8545 24.0126 64.1748 23.6923C64.495 23.3721 64.9293 23.1919 65.3822 23.1914H100.309C100.762 23.1919 101.196 23.3721 101.517 23.6923C101.837 24.0126 102.017 24.4469 102.018 24.8998V33.2519C102.017 33.7049 101.837 34.1391 101.517 34.4594C101.197 34.7797 100.762 34.9598 100.309 34.9603Z" fill="#086B39"/>
<path d="M82.8453 23.7608C84.942 23.7608 86.6417 22.0611 86.6417 19.9644C86.6417 17.8677 84.942 16.168 82.8453 16.168C80.7485 16.168 79.0488 17.8677 79.0488 19.9644C79.0488 22.0611 80.7485 23.7608 82.8453 23.7608Z" fill="#086B39"/>
<path d="M82.8456 22.2766C84.1227 22.2766 85.158 21.2413 85.158 19.9642C85.158 18.6871 84.1227 17.6519 82.8456 17.6519C81.5685 17.6519 80.5332 18.6871 80.5332 19.9642C80.5332 21.2413 81.5685 22.2766 82.8456 22.2766Z" fill="white"/>
</g>
<defs>
<clipPath id="clip0_4252_29504">
<rect width="122.935" height="120" fill="white" transform="translate(0.532227)"/>
</clipPath>
</defs>
</svg>
