<svg width="21" height="23" viewBox="0 0 21 23" xmlns="http://www.w3.org/2000/svg">
<path d="M12.959 10.56C15.875 10.56 18.239 8.196 18.239 5.28C18.239 2.364 15.875 0 12.959 0C10.043 0 7.679 2.364 7.679 5.28C7.679 8.196 10.043 10.56 12.959 10.56ZM9.056 6.036C9.056 5.782 9.262 5.577 9.515 5.577H10.16C10.151 5.479 10.146 5.38 10.146 5.28C10.146 5.18 10.151 5.081 10.16 4.983H9.515C9.261 4.983 9.056 4.777 9.056 4.524C9.056 4.271 9.262 4.065 9.515 4.065H10.374C10.861 2.81 12.079 1.921 13.506 1.921C14.217 1.921 14.875 2.142 15.418 2.519C15.528 2.595 15.632 2.677 15.732 2.765C15.943 2.951 15.937 3.282 15.721 3.462C15.548 3.606 15.295 3.606 15.127 3.457C14.989 3.335 14.838 3.228 14.675 3.139C14.328 2.949 13.929 2.84 13.506 2.84C12.602 2.84 11.812 3.334 11.39 4.066H12.729C12.983 4.066 13.188 4.272 13.188 4.525C13.188 4.778 12.982 4.984 12.729 4.984H11.083C11.071 5.081 11.064 5.18 11.064 5.281C11.064 5.382 11.071 5.48 11.083 5.578H12.729C12.983 5.578 13.188 5.784 13.188 6.037C13.188 6.29 12.982 6.496 12.729 6.496H11.39C11.812 7.228 12.602 7.722 13.506 7.722C13.929 7.722 14.328 7.614 14.675 7.423C14.838 7.334 14.989 7.227 15.127 7.105C15.295 6.956 15.549 6.956 15.721 7.1C15.937 7.28 15.943 7.611 15.732 7.797C15.632 7.885 15.528 7.967 15.418 8.043C14.875 8.419 14.217 8.641 13.506 8.641C12.079 8.641 10.861 7.751 10.374 6.497H9.515C9.261 6.497 9.056 6.291 9.056 6.038V6.036Z"/>
<path d="M1.803 14.959C1.522 14.534 0.94 14.437 0.537 14.748L0.341 14.899C0.126 15.065 0 15.321 0 15.593V21.145C0 21.461 0.152 21.767 0.423 21.93C0.563 22.015 0.72 22.057 0.876 22.057C1.046 22.057 1.216 22.008 1.362 21.91L4.132 20.064C4.534 19.796 4.643 19.254 4.377 18.851L1.804 14.958L1.803 14.959Z"/>
<path d="M18.221 11.354C17.905 11.354 17.59 11.474 17.324 11.591L17.317 11.594C17.3 11.6 17.283 11.607 17.266 11.615L15.414 12.441C15.081 12.59 14.882 12.928 14.896 13.293C14.929 14.112 14.634 14.941 14.01 15.565C13.424 16.151 12.667 16.497 11.934 16.515L11.815 16.518L8.785 15.76C8.315 15.643 8.03 15.167 8.147 14.697C8.264 14.227 8.74 13.942 9.21 14.059L11.988 14.754C12.199 14.724 12.427 14.616 12.632 14.449C12.882 14.246 13.124 13.819 13.144 13.498C13.167 13.124 13.032 12.768 12.77 12.505C12.582 12.317 12.392 12.265 11.869 12.143L11.708 12.105L6.195 10.721C5.988 10.669 5.769 10.714 5.6 10.844L3.321 12.601C2.957 12.881 2.872 13.395 3.125 13.779L5.913 17.976C6.178 18.375 6.594 18.648 7.065 18.732L12.116 19.634C12.346 19.675 12.583 19.623 12.774 19.488L19.315 14.892C19.843 14.53 20.159 13.932 20.159 13.292C20.159 12.223 19.29 11.354 18.221 11.354Z"/>
</svg>
