<svg width="16" height="16" viewBox="0 0 16 16" xmlns="http://www.w3.org/2000/svg">
<path d="M3.84003 6.39979C5.25388 6.39979 6.40003 5.25363 6.40003 3.83979C6.40003 2.42594 5.25388 1.27979 3.84003 1.27979C2.42618 1.27979 1.28003 2.42594 1.28003 3.83979C1.28003 5.25363 2.42618 6.39979 3.84003 6.39979Z" />
<path d="M12.16 14.7198C13.5739 14.7198 14.72 13.5736 14.72 12.1598C14.72 10.7459 13.5739 9.59979 12.16 9.59979C10.7462 9.59979 9.60003 10.7459 9.60003 12.1598C9.60003 13.5736 10.7462 14.7198 12.16 14.7198Z" />
<path d="M3.83936 14.2398C3.69022 14.2396 3.54409 14.1978 3.41746 14.119C3.29084 14.0402 3.18876 13.9276 3.12276 13.7938C3.05676 13.6601 3.02945 13.5106 3.04393 13.3621C3.05841 13.2137 3.11409 13.0723 3.2047 12.9538L11.5247 2.07379C11.5878 1.98851 11.6673 1.91666 11.7585 1.86239C11.8497 1.80813 11.9508 1.77255 12.0558 1.75773C12.1609 1.7429 12.2679 1.74912 12.3705 1.77603C12.4731 1.80294 12.5694 1.85 12.6537 1.91447C12.7379 1.97894 12.8086 2.05953 12.8614 2.15154C12.9142 2.24356 12.9482 2.34517 12.9614 2.45046C12.9746 2.55574 12.9667 2.6626 12.9382 2.7648C12.9097 2.86701 12.8611 2.96252 12.7954 3.04579L4.47536 13.9258C4.40063 14.0235 4.30437 14.1027 4.19406 14.1571C4.08376 14.2116 3.96238 14.2399 3.83936 14.2398Z"/>
</svg>
