<svg width="24" height="24" viewBox="0 0 24 24" xmlns="http://www.w3.org/2000/svg">
<path d="M7.56 10.12C8.97385 10.12 10.12 8.97385 10.12 7.56C10.12 6.14615 8.97385 5 7.56 5C6.14615 5 5 6.14615 5 7.56C5 8.97385 6.14615 10.12 7.56 10.12Z" />
<path d="M15.88 18.44C17.2938 18.44 18.44 17.2938 18.44 15.88C18.44 14.4662 17.2938 13.32 15.88 13.32C14.4662 13.32 13.32 14.4662 13.32 15.88C13.32 17.2938 14.4662 18.44 15.88 18.44Z" />
<path d="M7.55933 17.96C7.41019 17.9599 7.26406 17.918 7.13744 17.8392C7.01081 17.7604 6.90873 17.6478 6.84273 17.514C6.77673 17.3803 6.74942 17.2308 6.7639 17.0823C6.77838 16.9339 6.83406 16.7925 6.92467 16.674L15.2447 5.794C15.3078 5.70873 15.3873 5.63687 15.4785 5.58261C15.5697 5.52835 15.6707 5.49277 15.7758 5.47794C15.8809 5.46312 15.9878 5.46934 16.0905 5.49625C16.1931 5.52316 16.2894 5.57022 16.3736 5.63468C16.4579 5.69915 16.5285 5.77974 16.5814 5.87176C16.6342 5.96378 16.6682 6.06539 16.6814 6.17067C16.6946 6.27596 16.6867 6.38281 16.6582 6.48502C16.6297 6.58722 16.5811 6.68274 16.5153 6.766L8.19533 17.646C8.1206 17.7437 8.02434 17.8229 7.91403 17.8773C7.80373 17.9318 7.68235 17.9601 7.55933 17.96Z"/>
</svg>
