<svg width="32" height="32" viewBox="0 0 32 32" xmlns="http://www.w3.org/2000/svg">
<path d="M7.68006 12.8001C10.5078 12.8001 12.8001 10.5078 12.8001 7.68006C12.8001 4.85236 10.5078 2.56006 7.68006 2.56006C4.85236 2.56006 2.56006 4.85236 2.56006 7.68006C2.56006 10.5078 4.85236 12.8001 7.68006 12.8001Z" />
<path d="M24.3201 29.4401C27.1478 29.4401 29.4401 27.1478 29.4401 24.3201C29.4401 21.4924 27.1478 19.2001 24.3201 19.2001C21.4924 19.2001 19.2001 21.4924 19.2001 24.3201C19.2001 27.1478 21.4924 29.4401 24.3201 29.4401Z" />
<path d="M7.67872 28.4801C7.38044 28.4798 7.08818 28.3961 6.83493 28.2385C6.58168 28.0809 6.37753 27.8556 6.24552 27.5882C6.11351 27.3207 6.0589 27.0216 6.08786 26.7247C6.11682 26.4279 6.22818 26.145 6.40939 25.9081L23.0494 4.14806C23.1757 3.97752 23.3346 3.8338 23.517 3.72528C23.6994 3.61676 23.9015 3.5456 24.1116 3.51594C24.3218 3.48629 24.5357 3.49874 24.741 3.55255C24.9463 3.60637 25.1388 3.70049 25.3073 3.82943C25.4759 3.95836 25.6171 4.11954 25.7228 4.30358C25.8284 4.48761 25.8964 4.69083 25.9228 4.9014C25.9492 5.11197 25.9334 5.32568 25.8764 5.53009C25.8194 5.73451 25.7223 5.92554 25.5907 6.09206L8.95073 27.8521C8.80126 28.0475 8.60874 28.2058 8.38813 28.3147C8.16752 28.4237 7.92476 28.4802 7.67872 28.4801Z" />
</svg>
