<svg width="32" height="32" viewBox="0 0 32 32" fill="none" xmlns="http://www.w3.org/2000/svg">
<g clip-path="url(#clip0_574_12842)">
<mask id="mask0_574_12842" style="mask-type:alpha" maskUnits="userSpaceOnUse" x="0" y="0" width="32" height="32">
<path d="M16 16C19.8881 16 23.04 12.8481 23.04 8.95998C23.04 5.0719 19.8881 1.91998 16 1.91998C12.1119 1.91998 8.95997 5.0719 8.95997 8.95998C8.95997 12.8481 12.1119 16 16 16Z" fill="#fff"/>
<path d="M24.5893 30.08H7.41064C7.01503 30.0814 6.62451 29.9908 6.26987 29.8155C5.91524 29.6402 5.6062 29.3848 5.36714 29.0696C5.12808 28.7544 4.96554 28.3879 4.89233 27.9991C4.81913 27.6104 4.83726 27.2099 4.94531 26.8293C5.64822 24.4423 7.10488 22.3469 9.09749 20.8565C11.0901 19.366 13.5116 18.5606 16 18.5606C18.4883 18.5606 20.9098 19.366 22.9025 20.8565C24.8951 22.3469 26.3517 24.4423 27.0546 26.8293C27.1627 27.2099 27.1808 27.6104 27.1076 27.9991C27.0344 28.3879 26.8719 28.7544 26.6328 29.0696C26.3937 29.3848 26.0847 29.6402 25.7301 29.8155C25.3754 29.9908 24.9849 30.0814 24.5893 30.08Z" fill="#fff"/>
</mask>
<g mask="url(#mask0_574_12842)">
<rect width="32" height="32" fill="#0B5E22"/>
</g>
</g>
<defs>
<clipPath id="clip0_574_12842">
<rect width="32" height="32" fill="white"/>
</clipPath>
</defs>
</svg>
