<svg width="32" height="32" viewBox="0 0 32 32" xmlns="http://www.w3.org/2000/svg">
<path d="M29.4401 16.0001C29.4401 16.3362 29.3738 16.6691 29.2452 16.9797C29.1165 17.2903 28.928 17.5725 28.6903 17.8103C28.4525 18.048 28.1703 18.2365 27.8597 18.3652C27.5491 18.4938 27.2162 18.5601 26.8801 18.5601H18.5601V26.8801C18.5601 27.559 18.2903 28.2102 17.8103 28.6903C17.3302 29.1703 16.679 29.4401 16.0001 29.4401V29.4401C15.6639 29.4401 15.331 29.3738 15.0204 29.2452C14.7098 29.1165 14.4276 28.928 14.1899 28.6903C13.9521 28.4525 13.7636 28.1703 13.6349 27.8597C13.5063 27.5491 13.4401 27.2162 13.4401 26.8801V18.5601H5.12006C4.4411 18.5601 3.78996 18.2903 3.30987 17.8103C2.82977 17.3302 2.56006 16.679 2.56006 16.0001C2.56006 15.3211 2.82977 14.67 3.30987 14.1899C3.78996 13.7098 4.4411 13.4401 5.12006 13.4401H13.4401V5.12006C13.4401 4.4411 13.7098 3.78996 14.1899 3.30987C14.67 2.82977 15.3211 2.56006 16.0001 2.56006V2.56006C16.679 2.56006 17.3302 2.82977 17.8103 3.30987C18.2903 3.78996 18.5601 4.4411 18.5601 5.12006V13.4401H26.8801C27.559 13.4401 28.2102 13.7098 28.6903 14.1899C29.1703 14.67 29.4401 15.3211 29.4401 16.0001V16.0001Z" />
</svg>
