<svg width="32" height="32" viewBox="0 0 32 32" fill="none" xmlns="http://www.w3.org/2000/svg">
<path d="M30.7092 8.67264C30.7066 8.64064 30.7039 8.60864 30.7012 8.57664C30.6932 8.48997 30.6852 8.4033 30.6732 8.31797C30.6639 8.2513 30.6506 8.18197 30.6386 8.11664L30.0133 6.54864L28.8039 3.5273C28.4146 2.55397 27.4746 1.91797 26.4279 1.91797H5.57325C4.52658 1.91797 3.58658 2.5553 3.19725 3.5273L1.98792 6.54864L1.36258 8.11664C1.34925 8.18197 1.33725 8.2513 1.32792 8.31797C1.31592 8.4033 1.30792 8.48997 1.29992 8.57664C1.29725 8.60864 1.29458 8.64064 1.29192 8.67264C1.28525 8.76864 1.28125 8.86464 1.28125 8.96197V8.96464C1.28125 9.06197 1.28525 9.1593 1.29192 9.25664L1.29858 9.33797C1.30525 9.42064 1.31458 9.50197 1.32525 9.5833L1.33192 9.62997C1.34658 9.72464 1.36392 9.81797 1.38392 9.90997L1.39992 9.98064C1.41725 10.0566 1.43725 10.1313 1.45858 10.206L1.47458 10.2646C1.50258 10.3553 1.53192 10.4446 1.56525 10.5326L1.58392 10.578C1.61325 10.654 1.64525 10.7286 1.67858 10.802L1.70392 10.858C1.74392 10.9446 1.78658 11.03 1.83325 11.1126L1.83992 11.126C1.88392 11.2046 1.93058 11.282 1.97858 11.358L2.01058 11.4073C2.11458 11.5673 2.22925 11.7193 2.35325 11.8646L2.38792 11.9046C2.44525 11.9713 2.50525 12.0366 2.56792 12.0993L2.58392 12.1153C2.65192 12.1833 2.72125 12.25 2.79325 12.3126L2.82792 12.342C2.89192 12.3966 2.95592 12.45 3.02258 12.502L3.05725 12.5286C3.13325 12.586 3.21192 12.642 3.29192 12.6953L3.31992 12.7126C3.39058 12.7593 3.46392 12.8033 3.53725 12.846L3.58792 12.874C3.67192 12.9206 3.75725 12.966 3.84392 13.0073C4.43192 13.2873 5.08925 13.4446 5.78392 13.4446C6.76792 13.4446 7.67725 13.13 8.41858 12.5953C8.88392 12.2593 9.49858 12.2593 9.96392 12.5953C10.7039 13.13 11.6146 13.4446 12.5986 13.4446C13.5826 13.4446 14.4919 13.13 15.2332 12.5953C15.6986 12.2593 16.3132 12.2593 16.7786 12.5953C17.5186 13.13 18.4293 13.4446 19.4132 13.4446C20.3973 13.4446 21.3066 13.13 22.0479 12.5953C22.5132 12.2593 23.1279 12.2593 23.5933 12.5953C24.3333 13.13 25.2439 13.4446 26.2279 13.4446C26.9226 13.4446 27.5812 13.2873 28.1679 13.0073C28.2546 12.966 28.3399 12.9206 28.4239 12.874L28.4732 12.846C28.5466 12.8033 28.6199 12.7593 28.6906 12.7126L28.7186 12.6953C28.7986 12.642 28.8773 12.586 28.9533 12.5286L28.9879 12.502C29.0546 12.45 29.1199 12.3966 29.1826 12.342L29.2173 12.3126C29.2893 12.2486 29.3599 12.1833 29.4279 12.114L29.4426 12.098C29.5039 12.0353 29.5639 11.97 29.6226 11.9033L29.6572 11.8633C29.7812 11.718 29.8946 11.566 29.9999 11.406L30.0306 11.358C30.0786 11.282 30.1252 11.2046 30.1693 11.126L30.1759 11.114C30.2213 11.03 30.2639 10.9446 30.3053 10.8593L30.3306 10.8033C30.3639 10.7286 30.3959 10.654 30.4253 10.578L30.4426 10.5326C30.4759 10.4446 30.5052 10.3553 30.5332 10.2646L30.5452 10.222C30.5679 10.1406 30.5906 10.0593 30.6093 9.97797L30.6252 9.9113C30.6452 9.8193 30.6626 9.72597 30.6772 9.6313L30.6812 9.59664C30.6893 9.5273 30.6999 9.45797 30.7052 9.3873C30.7092 9.34464 30.7132 9.30197 30.7159 9.25797C30.7226 9.16063 30.7266 9.0633 30.7266 8.96597V8.9633C30.7266 8.86597 30.7226 8.76997 30.7159 8.67397L30.7092 8.67264Z" fill="#000720"/>
<path d="M23.3812 14.7033C23.0226 14.5273 22.6052 14.5273 22.2466 14.7033C21.3732 15.134 20.4039 15.3646 19.4066 15.3646C18.4093 15.3646 17.4399 15.134 16.5666 14.7033C16.2079 14.5273 15.7906 14.5273 15.4319 14.7033C14.5586 15.134 13.5893 15.3646 12.5919 15.3646C11.5946 15.3646 10.6252 15.134 9.75192 14.7033C9.39325 14.5273 8.97592 14.5273 8.61725 14.7033C7.74392 15.134 6.77458 15.3646 5.77725 15.3646C5.10125 15.3646 4.45058 15.2593 3.83725 15.0646V27.458C3.83725 28.9033 4.98658 30.0793 6.39725 30.0793H25.5972C27.0079 30.0793 28.1572 28.9033 28.1572 27.458V15.0646C27.5452 15.258 26.8932 15.3646 26.2173 15.3646C25.2199 15.3646 24.2506 15.134 23.3773 14.7033H23.3812ZM22.3999 23.6793C22.3999 24.3862 21.8268 24.9593 21.1199 24.9593H10.8799C10.173 24.9593 9.59992 24.3862 9.59992 23.6793V19.8393C9.59992 19.1324 10.173 18.5593 10.8799 18.5593H21.1199C21.8268 18.5593 22.3999 19.1324 22.3999 19.8393V23.6793Z" fill="#000720"/>
</svg>
