<svg width="24" height="24" viewBox="0 0 24 24" xmlns="http://www.w3.org/2000/svg">
<g clip-path="url(#clip0_1146_13377)">
<path d="M12 0.959961C5.90296 0.959961 0.959961 5.90296 0.959961 12C0.959961 18.097 5.90296 23.04 12 23.04C18.097 23.04 23.04 18.097 23.04 12C23.04 5.90296 18.097 0.959961 12 0.959961ZM12 4.49296C13.983 4.49296 15.59 6.09996 15.59 8.08296C15.59 10.066 13.983 11.673 12 11.673C10.017 11.673 8.40996 10.066 8.40996 8.08296C8.40996 6.09996 10.017 4.49296 12 4.49296ZM16.821 18.855H7.17896C6.57796 18.855 6.11896 18.308 6.23496 17.718C6.76496 15.018 9.14496 12.98 12 12.98C14.855 12.98 17.236 15.018 17.765 17.718C17.881 18.308 17.422 18.855 16.821 18.855Z"/>
</g>
<defs>
<clipPath id="clip0_1146_13377">
<rect width="24" height="24"/>
</clipPath>
</defs>
</svg>
