<svg width="24" height="24" viewBox="0 0 24 24" xmlns="http://www.w3.org/2000/svg">
<g clip-path="url(#clip0_1146_13373)">
<path d="M6.71996 5.75996V13.44H4.79996V5.75996C4.79996 5.50535 4.9011 5.26117 5.08114 5.08114C5.26117 4.9011 5.50535 4.79996 5.75996 4.79996C6.01457 4.79996 6.25875 4.9011 6.43878 5.08114C6.61882 5.26117 6.71996 5.50535 6.71996 5.75996Z"/>
<path d="M6.71996 15.36V18.24C6.71996 18.4946 6.61882 18.7388 6.43878 18.9188C6.25875 19.0988 6.01457 19.2 5.75996 19.2C5.50535 19.2 5.26117 19.0988 5.08114 18.9188C4.9011 18.7388 4.79996 18.4946 4.79996 18.24V15.36H6.71996Z" />
<path d="M15.36 5.75996V13.44H13.44V5.75996C13.44 5.50535 13.5411 5.26117 13.7211 5.08114C13.9012 4.9011 14.1454 4.79996 14.4 4.79996C14.6546 4.79996 14.8987 4.9011 15.0788 5.08114C15.2588 5.26117 15.36 5.50535 15.36 5.75996Z" />
<path d="M15.36 15.36V18.24C15.36 18.4946 15.2588 18.7388 15.0788 18.9188C14.8987 19.0988 14.6546 19.2 14.4 19.2C14.1454 19.2 13.9012 19.0988 13.7211 18.9188C13.5411 18.7388 13.44 18.4946 13.44 18.24V15.36H15.36Z" />
<path d="M19.2 5.75996V13.44H17.28V5.75996C17.28 5.50535 17.3811 5.26117 17.5611 5.08114C17.7412 4.9011 17.9854 4.79996 18.24 4.79996C18.4946 4.79996 18.7388 4.9011 18.9188 5.08114C19.0988 5.26117 19.2 5.50535 19.2 5.75996Z"/>
<path d="M19.2 15.36V18.24C19.2 18.4946 19.0988 18.7388 18.9188 18.9188C18.7388 19.0988 18.4946 19.2 18.24 19.2C17.9854 19.2 17.7412 19.0988 17.5611 18.9188C17.3811 18.7388 17.28 18.4946 17.28 18.24V15.36H19.2Z"/>
<path d="M11.52 5.75996V13.44H8.63996V5.75996C8.63996 5.50535 8.7411 5.26117 8.92114 5.08114C9.10117 4.9011 9.34535 4.79996 9.59996 4.79996H10.56C10.8146 4.79996 11.0587 4.9011 11.2388 5.08114C11.4188 5.26117 11.52 5.50535 11.52 5.75996Z"/>
<path d="M11.52 15.36V18.24C11.52 18.4946 11.4188 18.7388 11.2388 18.9188C11.0587 19.0988 10.8146 19.2 10.56 19.2H9.59996C9.34535 19.2 9.10117 19.0988 8.92114 18.9188C8.7411 18.7388 8.63996 18.4946 8.63996 18.24V15.36H11.52Z"/>
<path d="M22.08 6.71996C21.8254 6.71996 21.5812 6.61882 21.4011 6.43878C21.2211 6.25875 21.12 6.01457 21.12 5.75996V2.87996H18.24C17.9854 2.87996 17.7412 2.77882 17.5611 2.59878C17.3811 2.41875 17.28 2.17457 17.28 1.91996C17.28 1.66535 17.3811 1.42117 17.5611 1.24114C17.7412 1.0611 17.9854 0.959961 18.24 0.959961H22.08C22.3346 0.959961 22.5788 1.0611 22.7588 1.24114C22.9388 1.42117 23.04 1.66535 23.04 1.91996V5.75996C23.04 6.01457 22.9388 6.25875 22.7588 6.43878C22.5788 6.61882 22.3346 6.71996 22.08 6.71996Z"/>
<path d="M1.91996 6.71996C1.66535 6.71996 1.42117 6.61882 1.24114 6.43878C1.0611 6.25875 0.959961 6.01457 0.959961 5.75996V1.91996C0.959961 1.66535 1.0611 1.42117 1.24114 1.24114C1.42117 1.0611 1.66535 0.959961 1.91996 0.959961H5.75996C6.01457 0.959961 6.25875 1.0611 6.43878 1.24114C6.61882 1.42117 6.71996 1.66535 6.71996 1.91996C6.71996 2.17457 6.61882 2.41875 6.43878 2.59878C6.25875 2.77882 6.01457 2.87996 5.75996 2.87996H2.87996V5.75996C2.87996 6.01457 2.77882 6.25875 2.59878 6.43878C2.41875 6.61882 2.17457 6.71996 1.91996 6.71996Z"/>
<path d="M5.75996 23.04H1.91996C1.66535 23.04 1.42117 22.9388 1.24114 22.7588C1.0611 22.5788 0.959961 22.3346 0.959961 22.08V18.24C0.959961 17.9854 1.0611 17.7412 1.24114 17.5611C1.42117 17.3811 1.66535 17.28 1.91996 17.28C2.17457 17.28 2.41875 17.3811 2.59878 17.5611C2.77882 17.7412 2.87996 17.9854 2.87996 18.24V21.12H5.75996C6.01457 21.12 6.25875 21.2211 6.43878 21.4011C6.61882 21.5812 6.71996 21.8254 6.71996 22.08C6.71996 22.3346 6.61882 22.5788 6.43878 22.7588C6.25875 22.9388 6.01457 23.04 5.75996 23.04Z"/>
<path d="M22.08 23.04H18.24C17.9854 23.04 17.7412 22.9388 17.5611 22.7588C17.3811 22.5788 17.28 22.3346 17.28 22.08C17.28 21.8254 17.3811 21.5812 17.5611 21.4011C17.7412 21.2211 17.9854 21.12 18.24 21.12H21.12V18.24C21.12 17.9854 21.2211 17.7412 21.4011 17.5611C21.5812 17.3811 21.8254 17.28 22.08 17.28C22.3346 17.28 22.5788 17.3811 22.7588 17.5611C22.9388 17.7412 23.04 17.9854 23.04 18.24V22.08C23.04 22.3346 22.9388 22.5788 22.7588 22.7588C22.5788 22.9388 22.3346 23.04 22.08 23.04Z"/>
</g>
<defs>
<clipPath id="clip0_1146_13373">
<rect width="24" height="24"/>
</clipPath>
</defs>
</svg>
