<svg width="32" height="32" viewBox="0 0 32 32" xmlns="http://www.w3.org/2000/svg">
<path d="M21.5998 18.9336C23.1541 16.7017 23.8164 13.9688 23.4564 11.2729C23.0964 8.57708 21.7401 6.11371 19.6546 4.36789C17.5692 2.62206 14.9056 1.7203 12.1885 1.84017C9.47136 1.96005 6.89757 3.09286 4.97393 5.01556C3.05029 6.93825 1.91621 9.51149 1.795 12.2286C1.6738 14.9456 2.57425 17.6096 4.31905 19.696C6.06385 21.7823 8.52655 23.1398 11.2222 23.5011C13.9179 23.8625 16.6511 23.2014 18.8838 21.6482L26.8224 29.6002C27.0007 29.7788 27.2123 29.9205 27.4454 30.0171C27.6784 30.1138 27.9282 30.1635 28.1804 30.1635C28.4327 30.1635 28.6825 30.1138 28.9155 30.0171C29.1486 29.9205 29.3602 29.7788 29.5384 29.6002C29.8983 29.2402 30.1005 28.752 30.1005 28.2429C30.1005 27.7338 29.8983 27.2456 29.5384 26.8856L21.5998 18.9336ZM8.24511 18.2029C6.9267 17.1396 6.03575 15.6366 5.73564 13.9696C5.43554 12.3027 5.74637 10.5833 6.61117 9.12696C7.47596 7.67058 8.83675 6.57473 10.444 6.04034C12.0513 5.50595 13.7973 5.56883 15.362 6.21746C16.9267 6.86609 18.2051 8.05699 18.9629 9.5718C19.7207 11.0866 19.907 12.8238 19.4878 14.4649C19.0686 16.106 18.0718 17.541 16.6803 18.5067C15.2888 19.4724 13.5958 19.9042 11.9118 19.7229C10.5688 19.5794 9.2957 19.0517 8.24511 18.2029Z" />
</svg>
