<svg width="24" height="24" viewBox="0 0 24 24" xmlns="http://www.w3.org/2000/svg">
<path d="M16.02 14.6629C17.3086 13.0282 17.924 10.963 17.7403 8.88961C17.5566 6.81624 16.5876 4.89139 15.0317 3.50877C13.4757 2.12615 11.4503 1.39023 9.36972 1.45154C7.28912 1.51285 5.31056 2.36675 3.83872 3.8386C2.36688 5.31044 1.51297 7.289 1.45166 9.36959C1.39036 11.4502 2.12627 13.4756 3.50889 15.0316C4.89151 16.5875 6.81636 17.5564 8.88974 17.7401C10.9631 17.9239 13.0283 17.3085 14.663 16.0199L20.91 22.2669C20.9991 22.3561 21.1048 22.4268 21.2213 22.4751C21.3377 22.5233 21.4625 22.5482 21.5885 22.5482C21.7145 22.5482 21.8393 22.5233 21.9558 22.4751C22.0722 22.4268 22.1779 22.3561 22.267 22.2669C22.3562 22.1778 22.4269 22.0721 22.4752 21.9556C22.5234 21.8392 22.5483 21.7144 22.5483 21.5884C22.5483 21.4624 22.5234 21.3376 22.4752 21.2211C22.4269 21.1047 22.3562 20.999 22.267 20.9099L16.02 14.6629ZM5.44601 14.2579C4.34926 13.2746 3.63565 11.9351 3.43141 10.4764C3.22717 9.01761 3.54547 7.53363 4.33 6.28696C5.11453 5.04029 6.31472 4.11128 7.71824 3.66429C9.12176 3.2173 10.6381 3.28114 11.9991 3.84452C13.3601 4.40789 14.478 5.43449 15.1549 6.74269C15.8319 8.05089 16.0244 9.55637 15.6982 10.9928C15.3721 12.4292 14.5484 13.704 13.3729 14.5916C12.1974 15.4792 10.7458 15.9225 9.27501 15.8429C7.85484 15.7686 6.50321 15.2091 5.44601 14.2579Z" />
</svg>
