<svg width="32" height="32" viewBox="0 0 32 32" xmlns="http://www.w3.org/2000/svg">
<path d="M17.1627 2.64335L20.7067 9.83268C20.7996 10.0214 20.937 10.1847 21.107 10.3085C21.277 10.4323 21.4746 10.5129 21.6827 10.5433L29.6081 11.6967C29.8477 11.7315 30.0728 11.8326 30.2579 11.9887C30.443 12.1448 30.5808 12.3496 30.6556 12.5799C30.7303 12.8102 30.7392 13.0568 30.6811 13.2919C30.6229 13.527 30.5002 13.7411 30.3267 13.91L24.5934 19.51C24.4428 19.657 24.3303 19.8385 24.2654 20.0387C24.2006 20.239 24.1855 20.452 24.2214 20.6593L25.5734 28.5593C25.6143 28.7978 25.5876 29.043 25.4965 29.2671C25.4054 29.4913 25.2534 29.6854 25.0577 29.8277C24.862 29.97 24.6304 30.0548 24.3891 30.0724C24.1478 30.09 23.9063 30.0397 23.6921 29.9273L16.6041 26.194C16.4178 26.0961 16.2105 26.045 16.0001 26.045C15.7896 26.045 15.5823 26.0961 15.3961 26.194L8.30806 29.9273C8.09379 30.0397 7.85236 30.09 7.61104 30.0724C7.36973 30.0548 7.13814 29.97 6.94245 29.8277C6.74676 29.6854 6.59476 29.4913 6.50362 29.2671C6.41249 29.043 6.38585 28.7978 6.42672 28.5593L7.78006 20.6567C7.81593 20.4493 7.8008 20.2363 7.73599 20.0361C7.67119 19.8358 7.55864 19.6544 7.40806 19.5073L1.67472 13.9073C1.50124 13.7384 1.3785 13.5243 1.32039 13.2892C1.26227 13.0542 1.27111 12.8075 1.34589 12.5772C1.42067 12.3469 1.55841 12.1421 1.74353 11.9861C1.92865 11.83 2.15376 11.7288 2.39339 11.694L10.3187 10.5407C10.5268 10.5102 10.7244 10.4296 10.8944 10.3058C11.0645 10.182 11.2018 10.0187 11.2947 9.83001L14.8387 2.64068C14.946 2.42404 15.1118 2.24173 15.3173 2.11437C15.5228 1.987 15.7598 1.91965 16.0016 1.91992C16.2433 1.9202 16.4802 1.9881 16.6854 2.11593C16.8906 2.24377 17.0559 2.42646 17.1627 2.64335Z"/>
</svg>
