<svg width="24" height="24" viewBox="0 0 24 24" xmlns="http://www.w3.org/2000/svg">
<path d="M7.3599 9.27996C7.3599 9.98696 7.9329 10.56 8.6399 10.56H20.7999C21.5069 10.56 22.0799 9.98696 22.0799 9.27996V4.47996H7.3599V9.27996ZM19.5199 7.35996C19.8729 7.35996 20.1599 7.64696 20.1599 7.99996C20.1599 8.35296 19.8729 8.63996 19.5199 8.63996C19.1669 8.63996 18.8799 8.35296 18.8799 7.99996C18.8799 7.64696 19.1669 7.35996 19.5199 7.35996ZM9.9199 7.35996H14.3999C14.7529 7.35996 15.0399 7.64696 15.0399 7.99996C15.0399 8.35296 14.7529 8.63996 14.3999 8.63996H9.9199C9.5669 8.63996 9.2799 8.35296 9.2799 7.99996C9.2799 7.64696 9.5659 7.35996 9.9199 7.35996Z"/>
<path d="M20.7999 0.959961H8.6399C7.9329 0.959961 7.3599 1.53296 7.3599 2.23996V3.19996H22.0799V2.23996C22.0799 1.53296 21.5069 0.959961 20.7999 0.959961Z"/>
<path d="M3.7239 15.919C3.4429 15.494 2.8609 15.397 2.4579 15.708L2.2619 15.859C2.0469 16.025 1.9209 16.281 1.9209 16.553V22.106C1.9209 22.422 2.0729 22.728 2.3439 22.891C2.4839 22.976 2.6409 23.018 2.7969 23.018C2.9669 23.018 3.1369 22.969 3.2829 22.871L6.0529 21.025C6.4549 20.757 6.5639 20.215 6.2979 19.812L3.7239 15.919Z"/>
<path d="M20.1419 12.314C19.8259 12.314 19.5109 12.434 19.2449 12.551L19.2379 12.554C19.2209 12.56 19.2039 12.567 19.1869 12.575L17.3349 13.401C17.0019 13.55 16.8029 13.888 16.8169 14.253C16.8499 15.072 16.5549 15.901 15.9309 16.525C15.3449 17.111 14.5879 17.457 13.8549 17.475L13.7359 17.478L10.7059 16.72C10.2359 16.603 9.9509 16.127 10.0679 15.657C10.1849 15.187 10.6609 14.902 11.1309 15.019L13.9099 15.714C14.1209 15.684 14.3489 15.576 14.5539 15.409C14.8039 15.206 15.0459 14.779 15.0659 14.458C15.0889 14.084 14.9539 13.728 14.6919 13.465C14.5039 13.277 14.3139 13.225 13.7909 13.103L13.6299 13.065L8.1169 11.681C7.9099 11.629 7.6909 11.674 7.5219 11.804L5.2429 13.561C4.8789 13.842 4.7939 14.355 5.0469 14.739L7.8349 18.936C8.0999 19.335 8.5159 19.608 8.9869 19.692L14.0379 20.594C14.2679 20.635 14.5049 20.583 14.6959 20.448L21.2369 15.852C21.7649 15.49 22.0809 14.892 22.0809 14.252C22.0809 13.183 21.2109 12.314 20.1419 12.314Z"/>
</svg>
