<svg width="45" height="45" viewBox="0 0 45 45" fill="none" xmlns="http://www.w3.org/2000/svg">
<path d="M22.5 0C18.0499 0 13.6998 1.3196 9.99968 3.79193C6.29957 6.26426 3.41569 9.77828 1.71272 13.8896C0.00974888 18.001 -0.435826 22.525 0.432341 26.8895C1.30051 31.2541 3.44343 35.2632 6.59011 38.4099C9.73679 41.5566 13.7459 43.6995 18.1105 44.5677C22.475 45.4358 26.999 44.9903 31.1104 43.2873C35.2217 41.5843 38.7357 38.7004 41.2081 35.0003C43.6804 31.3002 45 26.9501 45 22.5C45 19.5453 44.418 16.6194 43.2873 13.8896C42.1566 11.1598 40.4992 8.67941 38.4099 6.5901C36.3206 4.50078 33.8402 2.84344 31.1104 1.71271C28.3806 0.58198 25.4547 0 22.5 0ZM21.6135 5.86956H23.3866C23.6503 5.86961 23.9114 5.92299 24.154 6.02649C24.3966 6.13 24.6158 6.28149 24.7983 6.47187C24.9809 6.66224 25.1231 6.88757 25.2164 7.1343C25.3096 7.38103 25.352 7.64407 25.341 7.90761L24.538 25.5245C24.5145 26.0271 24.2983 26.5015 23.9344 26.849C23.5705 27.1966 23.0868 27.3908 22.5836 27.3913H22.4083C21.9065 27.3887 21.4248 27.1936 21.0626 26.8462C20.7005 26.4989 20.4855 26.0257 20.462 25.5245L19.663 7.91576C19.6509 7.65189 19.6924 7.38831 19.7849 7.14089C19.8774 6.89348 20.019 6.66736 20.2013 6.47616C20.3835 6.28496 20.6026 6.13264 20.8453 6.02839C21.088 5.92414 21.3493 5.87011 21.6135 5.86956ZM22.5 39.1304C21.7261 39.1304 20.9695 38.9009 20.326 38.471C19.6825 38.041 19.181 37.4299 18.8848 36.7148C18.5887 35.9998 18.5112 35.213 18.6621 34.454C18.8131 33.6949 19.1858 32.9977 19.7331 32.4504C20.2803 31.9032 20.9776 31.5305 21.7366 31.3795C22.4957 31.2285 23.2824 31.306 23.9975 31.6022C24.7125 31.8984 25.3236 32.3999 25.7536 33.0434C26.1836 33.6869 26.413 34.4435 26.413 35.2174C26.413 36.2552 26.0008 37.2505 25.2669 37.9843C24.5331 38.7182 23.5378 39.1304 22.5 39.1304Z" fill="#B60809"/>
</svg>
