<svg width="326" height="220" viewBox="0 0 326 220" fill="none" xmlns="http://www.w3.org/2000/svg">
<path d="M69.9863 128.528C54.7444 113.243 48.307 97.2964 51.8593 83.6268C56.4181 66.0847 76.6703 53.9559 107.423 50.3502L107.537 51.3565C77.212 54.9117 57.2687 66.7683 52.8204 83.8859C49.3632 97.1891 55.7072 112.787 70.6838 127.807L69.9863 128.528Z" fill="#086B39"/>
<path d="M217.045 182.786C198.022 182.786 177.35 179.907 156.817 174.369C131.426 167.521 108.145 157.185 89.4905 144.478L90.0429 143.636C108.607 156.282 131.785 166.571 157.072 173.39C179.923 179.553 202.945 182.409 223.641 181.655L223.677 182.667C221.492 182.747 219.281 182.787 217.045 182.786Z" fill="#0B5E22"/>
<path d="M260.685 176.418L260.367 175.459C277.38 169.599 288.021 160.159 291.14 148.159C295.104 132.905 286.492 115.203 266.889 98.314C247.187 81.3396 218.776 67.2551 186.888 58.6556L187.143 57.6765C219.17 66.3139 247.719 80.4713 267.531 97.5409C287.443 114.696 296.169 132.765 292.101 148.418C288.893 160.762 278.029 170.444 260.685 176.418Z" fill="#086B39"/>
<path d="M104.464 183.21C67.085 166.321 38.282 144.411 23.3607 121.515L24.1888 120.954C39.0069 143.693 67.6587 165.473 104.866 182.284L104.464 183.21Z" fill="#086B39"/>
<path d="M214.196 51.2584C208.018 49.2093 201.664 47.3014 195.309 45.5876C158.74 35.7254 122.793 32.2238 91.3513 35.4633L91.2513 34.4556C122.81 31.2054 158.88 34.7154 195.563 44.6085C201.936 46.3273 208.308 48.2407 214.504 50.2957L214.196 51.2584Z" fill="#086B39"/>
<path d="M46.6257 130.047C31.3838 114.762 24.9464 98.8155 28.4987 85.1458C33.0575 67.6038 53.3097 55.4749 84.0626 51.8693L84.1761 52.8755C53.8514 56.4308 33.9081 68.2874 29.4598 85.4049C26.0026 98.7082 32.3466 114.306 47.3232 129.326L46.6257 130.047Z" fill="#086B39"/>
<path d="M193.684 184.305C174.661 184.305 153.989 181.426 133.457 175.888C108.065 169.04 84.7839 158.704 66.1298 145.996L66.6821 145.155C85.2464 157.801 108.425 168.09 133.711 174.909C156.562 181.072 179.584 183.928 200.281 183.174L200.317 184.186C198.131 184.266 195.92 184.306 193.684 184.305Z" fill="#086B39"/>
<path d="M237.324 177.937L237.006 176.978C254.019 171.118 264.66 161.678 267.779 149.678C271.743 134.424 263.131 116.722 243.529 99.8331C223.826 82.8587 195.415 68.7742 163.528 60.1746L163.782 59.1956C195.809 67.833 224.358 81.9904 244.17 99.06C264.082 116.215 272.808 134.284 268.74 149.937C265.532 162.281 254.669 171.963 237.324 177.937Z" fill="#086B39"/>
<path d="M81.1029 184.729C43.7243 167.841 14.9212 145.93 0 123.034L0.828074 122.473C15.6462 145.212 44.298 166.992 81.5058 183.803L81.1029 184.729Z" fill="#086B39"/>
<path d="M190.836 52.7773C184.658 50.7282 178.303 48.8203 171.948 47.1065C135.379 37.2443 99.432 33.7427 67.9906 36.9822L67.8906 35.9745C99.4492 32.7243 135.52 36.2343 172.203 46.1274C178.575 47.8462 184.948 49.7596 191.143 51.8146L190.836 52.7773Z" fill="#086B39"/>
<path d="M218.55 204.304C220.746 204.304 222.527 202.49 222.527 200.253C222.527 198.016 220.746 196.203 218.55 196.203C216.354 196.203 214.574 198.016 214.574 200.253C214.574 202.49 216.354 204.304 218.55 204.304Z" fill="#0B5E22"/>
<path d="M232.635 135.312C234.831 135.312 236.611 133.498 236.611 131.261C236.611 129.024 234.831 127.21 232.635 127.21C230.439 127.21 228.659 129.024 228.659 131.261C228.659 133.498 230.439 135.312 232.635 135.312Z" fill="#0B5E22"/>
<path d="M158.646 22.9531C160.842 22.9531 162.622 21.1395 162.622 18.9024C162.622 16.6652 160.842 14.8517 158.646 14.8517C156.45 14.8517 154.67 16.6652 154.67 18.9024C154.67 21.1395 156.45 22.9531 158.646 22.9531Z" fill="#0B5E22"/>
<path d="M75.3206 174.287C75.3206 175.318 75.3539 176.349 75.4247 177.371C75.4997 178.594 75.6288 179.807 75.8038 181.012C76.3917 185.07 77.5154 189.028 79.1444 192.779C79.2277 192.966 79.311 193.152 79.3943 193.339L79.5193 193.619C79.561 193.713 79.6068 193.806 79.6484 193.895C79.7067 194.018 79.7609 194.137 79.8192 194.256C79.89 194.404 79.9608 194.553 80.0358 194.701C80.0441 194.718 80.0525 194.739 80.065 194.761C80.1274 194.888 80.1858 195.011 80.2524 195.138C80.2647 195.166 80.2786 195.193 80.2941 195.219C80.3649 195.363 80.4399 195.512 80.5148 195.656C80.5981 195.809 80.6773 195.966 80.7606 196.118C80.9605 196.496 81.1688 196.87 81.3812 197.243C81.4437 197.353 81.5062 197.464 81.5728 197.574C81.6311 197.676 81.6895 197.778 81.752 197.879C81.7936 197.947 81.8353 198.019 81.8769 198.087C81.9436 198.202 82.0102 198.312 82.081 198.427C82.2351 198.677 82.3934 198.928 82.5475 199.178H82.5517C82.6225 199.293 82.6975 199.407 82.7725 199.517V199.522C82.9932 199.861 83.2223 200.201 83.4514 200.536L83.453 200.536L83.4544 200.537L83.4553 200.538L83.4556 200.54C83.6389 200.812 83.8305 201.075 84.0179 201.338V201.342C84.1429 201.508 84.2637 201.677 84.3886 201.843C84.4886 201.979 84.5927 202.119 84.6969 202.254C84.7177 202.284 84.7427 202.309 84.7635 202.339V202.343C84.7927 202.382 84.8218 202.416 84.851 202.454C85.2925 203.031 85.7479 203.595 86.2172 204.147L86.2922 204.236C86.3172 204.266 86.3464 204.295 86.3714 204.329C86.413 204.376 86.4505 204.423 86.4921 204.469C86.5296 204.516 86.5713 204.563 86.6129 204.609C89.0593 207.417 91.8332 209.909 94.8729 212.031C95.277 212.315 95.6893 212.591 96.1017 212.858C96.2058 212.926 96.31 212.994 96.4141 213.058C96.4433 213.079 96.4766 213.1 96.5057 213.122C96.564 213.155 96.6182 213.189 96.6765 213.228C96.7307 213.262 96.7848 213.296 96.8431 213.329C97.0639 213.469 97.2888 213.605 97.5138 213.741C97.5679 213.775 97.6262 213.809 97.6845 213.843C97.7387 213.873 97.797 213.907 97.8553 213.941C97.8553 213.945 97.8553 213.945 97.8595 213.945H97.8636V213.949H97.8678C98.1469 214.114 98.4302 214.276 98.7175 214.433C98.8717 214.518 99.03 214.607 99.1882 214.687C99.5465 214.887 99.9089 215.078 100.271 215.26C100.4 215.324 100.534 215.387 100.663 215.455C100.771 215.506 100.879 215.561 100.988 215.612C101.021 215.629 101.05 215.642 101.079 215.659C101.171 215.701 101.258 215.744 101.35 215.786C101.45 215.833 101.55 215.88 101.646 215.926C101.758 215.977 101.867 216.028 101.979 216.075C102.396 216.266 102.816 216.448 103.237 216.622C104.745 217.252 106.285 217.796 107.852 218.252C107.923 218.273 107.998 218.294 108.073 218.315C108.744 218.506 109.418 218.68 110.097 218.837C111.285 219.117 112.483 219.347 113.692 219.525H113.7C113.846 219.546 113.988 219.567 114.134 219.588C114.146 219.588 114.159 219.593 114.175 219.593C114.175 219.597 114.175 219.597 114.179 219.593C114.338 219.614 114.5 219.635 114.658 219.656C114.669 219.66 114.681 219.661 114.692 219.66C114.842 219.682 114.996 219.699 115.146 219.716C115.308 219.733 115.471 219.75 115.633 219.767C115.758 219.779 115.883 219.792 116.008 219.805C116.019 219.809 116.03 219.81 116.041 219.809C116.154 219.818 116.266 219.83 116.379 219.839H116.395C116.491 219.847 116.591 219.856 116.687 219.864C117.849 219.958 119.015 220 120.198 220C121.477 220 122.748 219.949 124.001 219.839H124.014C124.285 219.813 124.551 219.788 124.818 219.762C124.889 219.754 124.955 219.75 125.026 219.741C125.039 219.741 125.055 219.737 125.068 219.737C125.089 219.733 125.109 219.733 125.134 219.728C125.146 219.729 125.157 219.727 125.168 219.724C125.259 219.716 125.351 219.703 125.447 219.694L125.759 219.656C125.863 219.644 125.967 219.627 126.072 219.614C126.097 219.61 126.117 219.61 126.142 219.605C126.217 219.597 126.292 219.584 126.367 219.571C126.405 219.567 126.442 219.563 126.476 219.559C126.551 219.546 126.621 219.537 126.696 219.525H126.701C128.986 219.19 131.243 218.672 133.449 217.976C133.565 217.938 133.682 217.904 133.798 217.866C133.803 217.866 133.807 217.861 133.811 217.861C133.844 217.849 133.882 217.84 133.915 217.827C134.227 217.726 134.536 217.619 134.844 217.509C135.269 217.365 135.69 217.208 136.11 217.047C136.223 217 136.335 216.958 136.448 216.911C136.677 216.822 136.902 216.728 137.127 216.635C137.51 216.478 137.893 216.313 138.272 216.143C138.626 215.982 138.976 215.82 139.326 215.651C139.334 215.646 139.347 215.646 139.355 215.638C139.434 215.6 139.513 215.561 139.588 215.523H139.592C141.511 214.585 143.361 213.509 145.128 212.303C145.695 211.916 146.253 211.518 146.803 211.106C147.244 210.771 147.677 210.431 148.111 210.083C150.248 208.352 152.226 206.426 154.021 204.329V204.325C154.15 204.181 154.271 204.032 154.396 203.884C154.417 203.863 154.434 203.841 154.45 203.824C154.53 203.727 154.605 203.633 154.684 203.54V203.536C154.788 203.413 154.892 203.285 154.992 203.158C155.017 203.129 155.038 203.103 155.059 203.078V203.073C155.142 202.971 155.221 202.87 155.304 202.764C155.346 202.713 155.383 202.662 155.425 202.611V202.607C155.671 202.293 155.908 201.979 156.146 201.656C156.208 201.571 156.271 201.482 156.337 201.393C156.637 200.981 156.929 200.561 157.212 200.141V200.137C157.32 199.98 157.424 199.819 157.533 199.662C157.637 199.5 157.741 199.339 157.845 199.178C157.949 199.008 158.058 198.843 158.162 198.673L158.174 198.648C158.278 198.486 158.383 198.317 158.482 198.151C158.562 198.015 158.641 197.884 158.72 197.752C158.77 197.663 158.824 197.574 158.874 197.481C158.894 197.452 158.912 197.422 158.928 197.392C159.045 197.184 159.161 196.976 159.278 196.768C159.416 196.526 159.549 196.28 159.682 196.034C159.732 195.932 159.786 195.83 159.84 195.728C159.861 195.694 159.878 195.66 159.895 195.626C159.957 195.507 160.02 195.384 160.078 195.261C160.14 195.143 160.203 195.02 160.265 194.896C160.324 194.778 160.386 194.655 160.444 194.532C160.49 194.438 160.532 194.345 160.578 194.251C160.581 194.244 160.585 194.237 160.59 194.23C160.611 194.184 160.632 194.141 160.648 194.099C160.654 194.092 160.658 194.085 160.661 194.077C160.707 193.984 160.748 193.887 160.794 193.793C160.853 193.67 160.907 193.543 160.965 193.42C161.003 193.335 161.044 193.246 161.082 193.157C161.136 193.034 161.194 192.911 161.244 192.783C161.302 192.656 161.357 192.529 161.411 192.397C161.426 192.365 161.44 192.333 161.452 192.3C161.482 192.24 161.502 192.181 161.527 192.121C161.594 191.964 161.661 191.803 161.723 191.646C161.798 191.468 161.869 191.285 161.936 191.107C162.002 190.942 162.065 190.772 162.127 190.602L162.152 190.543C163.123 187.939 163.859 185.25 164.352 182.51V182.506C164.629 180.942 164.828 179.364 164.947 177.779C164.951 177.69 164.96 177.605 164.964 177.52C165.039 176.446 165.072 175.369 165.072 174.287C165.072 173.807 165.064 173.332 165.051 172.857C164.761 162.917 161.281 153.348 155.146 145.614C155.013 145.445 154.879 145.275 154.742 145.105C154.604 144.935 154.463 144.77 154.325 144.604C149.759 139.157 144 134.879 137.513 132.114C131.026 129.35 123.992 128.177 116.978 128.691C109.965 129.204 103.168 131.389 97.1348 135.069C91.1021 138.75 86.0027 143.822 82.2476 149.879C82.0435 150.21 81.8394 150.545 81.6437 150.88C81.4437 151.22 81.2521 151.559 81.0605 151.903C77.2869 158.736 75.3098 166.446 75.3206 174.287Z" fill="#EBF2ED"/>
<path d="M118.415 144.385C125.794 146.314 133.356 147.426 140.97 147.702C142.121 147.765 143.275 147.757 144.425 147.678C146.953 147.461 149.119 146.652 151.53 146.209C152.69 145.997 153.981 145.842 155.148 145.613C154.879 145.272 154.604 144.935 154.325 144.603C151.808 144.82 149.252 145.529 146.705 145.858C142.375 146.419 137.524 145.793 134.242 144.25C132.649 143.501 131.43 142.566 129.843 141.813C129.627 141.701 129.393 141.628 129.152 141.598C128.695 141.584 128.243 141.703 127.85 141.942C125.188 143.311 121.322 144.424 117.735 143.812C117.467 144.025 117.975 144.268 118.415 144.385Z" fill="white"/>
<path d="M102.539 149.204C102.506 149.197 102.473 149.193 102.44 149.187C102.578 149.1 102.708 149 102.828 148.889L102.539 149.204Z" fill="white"/>
<path d="M81.0614 151.905C82.5598 152.027 84.0661 152.117 85.5802 152.177C86.7315 152.24 87.8855 152.232 89.0359 152.153C91.5639 151.935 93.7293 151.127 96.1408 150.685C98.351 150.28 101.037 150.085 102.44 149.187C98.8132 148.547 95.0553 149.849 91.3154 150.334C88.2903 150.713 85.2236 150.558 82.2498 149.878C81.8358 150.541 81.4396 151.217 81.0614 151.905Z" fill="white"/>
<path d="M99.1884 214.687C99.5466 214.887 99.909 215.078 100.271 215.26C100.4 215.324 100.534 215.387 100.663 215.455C100.771 215.506 100.88 215.561 100.988 215.612C101.021 215.629 101.05 215.642 101.079 215.659C101.171 215.701 101.259 215.744 101.35 215.786C101.45 215.833 101.55 215.88 101.646 215.926C101.758 215.977 101.867 216.028 101.979 216.075C102.396 216.266 102.816 216.448 103.237 216.622C104.745 217.252 106.286 217.796 107.852 218.252C107.923 218.273 107.998 218.294 108.073 218.315C108.744 218.506 109.419 218.68 110.098 218.837C111.285 219.117 112.483 219.347 113.692 219.525H113.701C113.846 219.546 113.988 219.567 114.134 219.588C114.146 219.588 114.159 219.593 114.175 219.593C114.175 219.597 114.175 219.597 114.18 219.593C114.338 219.614 114.5 219.635 114.659 219.656C114.669 219.66 114.681 219.661 114.692 219.661C114.842 219.682 114.996 219.699 115.146 219.716C115.308 219.733 115.471 219.75 115.633 219.767C115.758 219.779 115.883 219.792 116.008 219.805C116.019 219.809 116.03 219.81 116.042 219.809C116.154 219.817 116.266 219.83 116.379 219.839H116.396C116.491 219.847 116.591 219.856 116.687 219.864C117.849 219.958 119.016 220 120.199 220C121.477 220 122.748 219.949 124.002 219.839H124.014C124.285 219.813 124.551 219.788 124.818 219.762C124.889 219.754 124.955 219.75 125.026 219.741C125.039 219.741 125.055 219.737 125.068 219.737C125.089 219.733 125.11 219.733 125.135 219.728C125.146 219.729 125.157 219.727 125.168 219.724C125.26 219.716 125.351 219.703 125.447 219.694L125.759 219.656C125.863 219.644 125.968 219.627 126.072 219.614C126.097 219.61 126.118 219.61 126.143 219.605C126.218 219.597 126.293 219.584 126.368 219.571C126.405 219.567 126.442 219.563 126.476 219.559C126.551 219.546 126.622 219.537 126.697 219.525H126.701C128.986 219.19 131.243 218.672 133.449 217.976C133.565 217.938 133.682 217.904 133.799 217.866C133.261 215.31 132.153 212.915 130.562 210.866C128.971 208.816 126.939 207.166 124.622 206.044C125.195 205.488 125.591 204.769 125.759 203.981C125.868 203.474 125.876 202.949 125.785 202.438C125.693 201.927 125.503 201.439 125.226 201.003C124.686 200.157 123.838 199.565 122.869 199.356L116.695 198.041C115.702 197.843 114.672 198.054 113.829 198.626C112.987 199.198 112.4 200.086 112.197 201.096C112.134 201.406 112.106 201.722 112.114 202.038C106.17 206.069 101.892 210.249 99.1884 214.687Z" fill="#5E72A9"/>
<path d="M117.416 195.557C124.519 195.557 130.277 189.691 130.277 182.455C130.277 175.22 124.519 169.354 117.416 169.354C110.313 169.354 104.555 175.22 104.555 182.455C104.555 189.691 110.313 195.557 117.416 195.557Z" fill="#FFB8B8"/>
<path d="M109.399 193.751C108.028 192.797 106.627 190.963 105.692 189.588C104.453 187.782 103.601 185.73 103.19 183.566C102.779 181.402 102.819 179.174 103.308 177.027C103.464 176.169 103.846 175.37 104.415 174.717C105.021 174.106 106.01 173.817 106.749 174.249C106.547 173.698 106.459 173.112 106.488 172.525C106.518 171.938 106.665 171.364 106.921 170.837C107.44 169.786 108.193 168.872 109.12 168.169C110.892 166.779 113 165.904 115.221 165.636C117.442 165.368 119.692 165.718 121.734 166.648C122.537 167.027 121.218 164.098 122.059 164.38C122.894 164.71 123.823 164.693 124.646 164.334C125.437 163.929 128.058 166.338 127.755 165.491C128.355 165.768 128.877 166.196 129.271 166.734C129.665 167.272 129.919 167.903 130.009 168.569C130.099 169.234 130.023 169.911 129.787 170.538C129.551 171.165 129.163 171.721 128.66 172.154C127.996 172.725 127.167 173.054 126.44 173.538C125.167 174.451 124.266 175.807 123.907 177.35C123.548 178.893 123.756 180.517 124.491 181.915C123.727 181.414 122.888 181.043 122.007 180.815C121.565 180.705 121.104 180.704 120.661 180.813C120.219 180.921 119.809 181.135 119.464 181.438C119.176 181.774 118.959 182.166 118.825 182.59C118.691 183.014 118.644 183.462 118.686 183.906C118.715 184.795 118.923 185.671 118.946 186.56C119.014 189.169 120.386 194.13 118.4 195.517C116.833 196.612 111.272 195.054 109.399 193.751Z" fill="#2F2E41"/>
<path d="M325.06 74.1437C325.06 75.1749 325.027 76.206 324.956 77.2286C324.881 78.4507 324.752 79.6643 324.577 80.8694C323.989 84.9271 322.866 88.8852 321.237 92.6362C321.153 92.8229 321.07 93.0096 320.987 93.1963L320.862 93.4764C320.82 93.5697 320.774 93.6631 320.733 93.7522C320.674 93.8752 320.62 93.9941 320.562 94.1129C320.491 94.2614 320.42 94.4099 320.345 94.5584C320.337 94.5754 320.329 94.5966 320.316 94.6178C320.254 94.7451 320.195 94.8682 320.129 94.9955C320.116 95.0232 320.103 95.0501 320.087 95.0761C320.016 95.2204 319.941 95.3689 319.866 95.5132C319.783 95.6659 319.704 95.8229 319.621 95.9757C319.421 96.3533 319.212 96.7268 319 97.1002C318.937 97.2105 318.875 97.3208 318.808 97.4312C318.75 97.533 318.692 97.6348 318.629 97.7367C318.587 97.8046 318.546 97.8767 318.504 97.9446C318.438 98.0592 318.371 98.1695 318.3 98.2841C318.146 98.5344 317.988 98.7848 317.834 99.0351H317.829C317.759 99.1497 317.684 99.2643 317.609 99.3746V99.3789C317.388 99.7183 317.159 100.058 316.93 100.393C316.929 100.393 316.929 100.393 316.928 100.393C316.928 100.393 316.927 100.394 316.927 100.394C316.926 100.395 316.926 100.395 316.926 100.396C316.926 100.396 316.925 100.397 316.925 100.397C316.742 100.669 316.551 100.932 316.363 101.195V101.199C316.238 101.365 316.117 101.534 315.992 101.7C315.892 101.836 315.788 101.976 315.684 102.112C315.663 102.141 315.638 102.167 315.618 102.196V102.201C315.588 102.239 315.559 102.273 315.53 102.311C315.089 102.888 314.633 103.452 314.164 104.004L314.089 104.093C314.064 104.123 314.035 104.153 314.01 104.187C313.968 104.233 313.931 104.28 313.889 104.327C313.851 104.373 313.81 104.42 313.768 104.467C311.322 107.274 308.548 109.766 305.508 111.888C305.104 112.172 304.692 112.448 304.279 112.716C304.175 112.784 304.071 112.851 303.967 112.915C303.938 112.936 303.904 112.958 303.875 112.979C303.817 113.013 303.763 113.047 303.705 113.085C303.65 113.119 303.596 113.153 303.538 113.187C303.317 113.327 303.092 113.462 302.867 113.598C302.813 113.632 302.755 113.666 302.697 113.7C302.642 113.73 302.584 113.764 302.526 113.798C302.526 113.802 302.526 113.802 302.522 113.802H302.517V113.806H302.513C302.234 113.972 301.951 114.133 301.664 114.29C301.509 114.375 301.351 114.464 301.193 114.545C300.835 114.744 300.472 114.935 300.11 115.117C299.981 115.181 299.847 115.245 299.718 115.313C299.61 115.363 299.502 115.419 299.393 115.47C299.36 115.487 299.331 115.499 299.302 115.516C299.21 115.559 299.123 115.601 299.031 115.644C298.931 115.69 298.831 115.737 298.735 115.784C298.623 115.834 298.514 115.885 298.402 115.932C297.985 116.123 297.565 116.306 297.144 116.479C295.636 117.109 294.096 117.653 292.529 118.109C292.458 118.13 292.383 118.151 292.308 118.173C291.637 118.364 290.963 118.537 290.284 118.694C289.097 118.975 287.898 119.204 286.689 119.382H286.681C286.535 119.403 286.393 119.424 286.247 119.446C286.235 119.446 286.222 119.45 286.206 119.45C286.206 119.454 286.206 119.454 286.202 119.45C286.043 119.471 285.881 119.492 285.723 119.513C285.712 119.517 285.701 119.518 285.689 119.518C285.539 119.539 285.385 119.556 285.235 119.573C285.073 119.59 284.91 119.607 284.748 119.624C284.623 119.637 284.498 119.649 284.373 119.662C284.362 119.666 284.351 119.667 284.34 119.666C284.227 119.675 284.115 119.687 284.002 119.696H283.986C283.89 119.704 283.79 119.713 283.694 119.721C282.532 119.815 281.366 119.857 280.183 119.857C278.904 119.857 277.633 119.806 276.38 119.696H276.367C276.096 119.67 275.83 119.645 275.563 119.62C275.492 119.611 275.426 119.607 275.355 119.598C275.342 119.598 275.326 119.594 275.313 119.594C275.292 119.59 275.272 119.59 275.247 119.586C275.235 119.586 275.224 119.585 275.213 119.581C275.122 119.573 275.03 119.56 274.934 119.552L274.622 119.513C274.518 119.501 274.414 119.484 274.309 119.471C274.284 119.467 274.264 119.467 274.239 119.463C274.164 119.454 274.089 119.441 274.014 119.429C273.976 119.424 273.939 119.42 273.905 119.416C273.83 119.403 273.76 119.395 273.685 119.382H273.68C271.395 119.047 269.138 118.529 266.933 117.833C266.816 117.795 266.699 117.761 266.583 117.723C266.578 117.723 266.574 117.719 266.57 117.719C266.537 117.706 266.499 117.697 266.466 117.685C266.154 117.583 265.845 117.477 265.537 117.366C265.112 117.222 264.692 117.065 264.271 116.904C264.158 116.857 264.046 116.815 263.933 116.768C263.704 116.679 263.479 116.586 263.255 116.492C262.871 116.335 262.488 116.17 262.109 116C261.755 115.839 261.405 115.677 261.055 115.508C261.047 115.504 261.034 115.504 261.026 115.495C260.947 115.457 260.868 115.419 260.793 115.38H260.789C258.87 114.443 257.02 113.366 255.253 112.16C254.686 111.774 254.128 111.375 253.578 110.963C253.137 110.628 252.704 110.288 252.27 109.941C250.133 108.209 248.155 106.283 246.36 104.187V104.182C246.231 104.038 246.11 103.89 245.985 103.741C245.964 103.72 245.947 103.699 245.931 103.682C245.852 103.584 245.777 103.491 245.697 103.397V103.393C245.593 103.27 245.489 103.143 245.389 103.015C245.364 102.986 245.343 102.96 245.323 102.935V102.931C245.239 102.829 245.16 102.727 245.077 102.621C245.035 102.57 244.998 102.519 244.956 102.468V102.464C244.71 102.15 244.473 101.836 244.235 101.513C244.173 101.428 244.11 101.339 244.044 101.25C243.744 100.839 243.452 100.418 243.169 99.9984V99.9941C243.061 99.8371 242.957 99.6759 242.848 99.5189C242.744 99.3576 242.64 99.1964 242.536 99.0352C242.432 98.8654 242.323 98.6999 242.219 98.5302L242.207 98.5048C242.103 98.3435 241.999 98.1738 241.899 98.0082C241.819 97.8725 241.74 97.7409 241.661 97.6094C241.611 97.5203 241.557 97.4312 241.507 97.3378C241.488 97.3091 241.469 97.2794 241.453 97.2487C241.336 97.0408 241.22 96.8329 241.103 96.6249C240.966 96.3831 240.832 96.137 240.699 95.8909C240.649 95.789 240.595 95.6872 240.541 95.5853C240.52 95.5514 240.503 95.5174 240.487 95.4835C240.424 95.3647 240.362 95.2416 240.303 95.1186C240.241 94.9997 240.178 94.8767 240.116 94.7536C240.057 94.6348 239.995 94.5118 239.937 94.3887C239.891 94.2954 239.849 94.202 239.803 94.1087C239.8 94.101 239.796 94.0939 239.791 94.0874C239.77 94.0408 239.749 93.9983 239.733 93.9559C239.728 93.9494 239.723 93.9423 239.72 93.9347C239.674 93.8413 239.633 93.7437 239.587 93.6504C239.529 93.5273 239.474 93.4 239.416 93.277C239.379 93.1921 239.337 93.103 239.299 93.0139C239.245 92.8908 239.187 92.7678 239.137 92.6405C239.079 92.5132 239.024 92.3859 238.97 92.2543C238.955 92.2226 238.941 92.19 238.929 92.1567C238.9 92.0973 238.879 92.0379 238.854 91.9785C238.787 91.8215 238.72 91.6603 238.658 91.5032C238.583 91.325 238.512 91.1426 238.446 90.9643C238.379 90.7988 238.316 90.6291 238.254 90.4594L238.229 90.4C237.258 87.7959 236.522 85.1072 236.03 82.3673V82.3631C235.752 80.7988 235.553 79.2211 235.434 77.636C235.43 77.5469 235.421 77.462 235.417 77.3772C235.342 76.3036 235.309 75.2258 235.309 74.1438C235.309 73.6643 235.317 73.189 235.33 72.7137C235.621 62.7743 239.1 53.2056 245.235 45.4715C245.368 45.3018 245.502 45.1321 245.639 44.9623C245.777 44.7926 245.918 44.6271 246.056 44.4616C250.622 39.0141 256.381 34.7358 262.868 31.9715C269.355 29.2073 276.389 28.0346 283.403 28.5478C290.416 29.0611 297.214 31.2459 303.246 34.9263C309.279 38.6067 314.378 43.6796 318.133 49.7361C318.338 50.0671 318.542 50.4023 318.737 50.7375C318.937 51.077 319.129 51.4165 319.321 51.7602C323.094 58.5933 325.071 66.3035 325.06 74.1437Z" fill="#EBF2ED"/>
<path d="M281.966 44.2425C274.587 46.1714 267.025 47.2833 259.412 47.5588C258.26 47.6227 257.106 47.6147 255.956 47.5349C253.428 47.3183 251.262 46.5089 248.851 46.0665C247.691 45.8545 246.4 45.6995 245.233 45.4703C245.503 45.1295 245.777 44.7928 246.057 44.4603C248.573 44.6769 251.129 45.386 253.676 45.7154C258.006 46.2763 262.857 45.6504 266.139 44.1069C267.732 43.3579 268.952 42.4231 270.538 41.6707C270.754 41.5578 270.988 41.4848 271.229 41.4552C271.686 41.4412 272.138 41.5607 272.531 41.7995C275.194 43.1686 279.059 44.2813 282.647 43.6691C282.914 43.8823 282.406 44.1251 281.966 44.2425Z" fill="white"/>
<path d="M297.843 49.0608C297.875 49.0547 297.908 49.0499 297.941 49.0442C297.803 48.9571 297.673 48.8575 297.553 48.7466L297.843 49.0608Z" fill="white"/>
<path d="M319.32 51.7621C317.821 51.8841 316.315 51.9749 314.801 52.0345C313.65 52.0979 312.496 52.0899 311.345 52.0106C308.817 51.7929 306.652 50.9846 304.24 50.5423C302.03 50.1376 299.344 49.9426 297.941 49.0443C301.568 48.4048 305.326 49.7066 309.066 50.1911C312.091 50.5701 315.157 50.4158 318.131 49.7351C318.545 50.3986 318.941 51.0743 319.32 51.7621Z" fill="white"/>
<path d="M275.124 94.1474C282.568 94.1474 288.602 87.863 288.602 80.1106C288.602 72.3583 282.568 66.0739 275.124 66.0739C267.68 66.0739 261.645 72.3583 261.645 80.1106C261.645 87.863 267.68 94.1474 275.124 94.1474Z" fill="#FFBFB6"/>
<path d="M301.193 114.545C300.835 114.744 300.472 114.935 300.11 115.117C299.981 115.181 299.847 115.245 299.718 115.313C299.61 115.364 299.502 115.419 299.393 115.47C299.36 115.487 299.331 115.499 299.302 115.516C299.21 115.559 299.123 115.601 299.031 115.644C298.931 115.69 298.831 115.737 298.735 115.784C298.623 115.835 298.514 115.886 298.402 115.932C297.985 116.123 297.565 116.306 297.144 116.48C295.636 117.109 294.096 117.653 292.529 118.109C292.458 118.13 292.383 118.151 292.308 118.173C291.637 118.364 290.963 118.538 290.284 118.695C289.097 118.975 287.898 119.204 286.689 119.382H286.681C286.535 119.403 286.393 119.424 286.247 119.446C286.235 119.446 286.222 119.45 286.206 119.45C286.206 119.454 286.206 119.454 286.202 119.45C286.043 119.471 285.881 119.492 285.723 119.514C285.712 119.517 285.701 119.518 285.689 119.518C285.539 119.539 285.385 119.556 285.235 119.573C285.073 119.59 284.91 119.607 284.748 119.624C284.623 119.637 284.498 119.649 284.373 119.662C284.362 119.666 284.351 119.667 284.34 119.666C284.227 119.675 284.115 119.688 284.002 119.696H283.986C283.89 119.705 283.79 119.713 283.694 119.722C282.532 119.815 281.366 119.857 280.183 119.857C278.904 119.857 277.633 119.806 276.38 119.696H276.367C276.096 119.671 275.83 119.645 275.563 119.62C275.492 119.611 275.426 119.607 275.355 119.598C275.342 119.598 275.326 119.594 275.313 119.594C275.292 119.59 275.272 119.59 275.247 119.586C275.235 119.586 275.224 119.585 275.213 119.581C275.122 119.573 275.03 119.56 274.934 119.552L274.622 119.514C274.518 119.501 274.414 119.484 274.309 119.471C274.284 119.467 274.264 119.467 274.239 119.463C274.164 119.454 274.089 119.441 274.014 119.429C273.976 119.424 273.939 119.42 273.905 119.416C273.83 119.403 273.76 119.395 273.685 119.382H273.68C271.395 119.047 269.138 118.529 266.933 117.833C266.816 117.795 266.699 117.761 266.583 117.723C267.12 115.168 268.228 112.773 269.819 110.723C271.41 108.673 273.442 107.023 275.759 105.901C275.186 105.345 274.79 104.626 274.622 103.839C274.514 103.331 274.505 102.806 274.597 102.295C274.688 101.784 274.878 101.296 275.155 100.86C275.696 100.014 276.544 99.4221 277.513 99.2135L283.686 97.898C284.679 97.7007 285.709 97.9109 286.552 98.483C287.394 99.0551 287.981 99.9429 288.184 100.953C288.247 101.263 288.275 101.579 288.268 101.895C294.212 105.926 298.489 110.106 301.193 114.545Z" fill="#FFC33D"/>
<path d="M311.191 74.0229C308.9 71.3012 307.811 67.6901 305.979 64.5994C304.147 61.5087 300.96 58.7425 297.593 59.4617C295.272 59.9576 293.478 62.0441 292.57 64.3703C291.662 66.6965 291.492 69.2618 291.333 71.775C291.389 66.6104 288.049 61.6036 283.448 59.9556C278.847 58.3077 273.341 60.1459 270.45 64.295C269.188 63.1038 267.541 62.4255 265.821 62.3887C264.101 62.3519 262.428 62.9592 261.119 64.0955C258.533 66.45 257.96 70.9315 259.862 73.9347C261.764 76.9379 265.883 78.0567 268.905 76.3911L269.973 77.3924C269.372 79.5353 270.538 82.0667 272.499 82.8733C274.089 83.5276 276.333 83.4187 276.928 85.1183C277.344 86.3059 276.567 87.5736 275.74 88.4862C274.914 89.3988 273.933 90.3412 273.833 91.604C273.683 93.5094 275.616 94.8442 277.373 95.2462C281.61 96.2156 286.311 94.2169 288.753 90.4079C288.8 90.3345 288.851 90.261 288.907 90.1873C290.277 88.4025 291.275 86.3518 291.841 84.1606C292.407 81.9694 292.528 79.6837 292.197 77.4431C292.06 76.5627 292.198 75.9079 292.794 75.6994C295.37 74.7983 302.585 76.6896 304.768 78.399C306.952 80.1084 308.701 82.3705 310.804 84.1902C312.907 86.0099 315.588 87.4136 318.258 86.918C320.397 86.5212 322.217 84.9393 323.441 83.0311C324.665 81.123 325.369 78.8989 326 76.6885C321.27 79.472 314.797 78.3068 311.191 74.0229Z" fill="#401F00"/>
<path d="M34.4999 45.7134C34.4999 46.7445 34.5332 47.7757 34.6041 48.7983C34.679 50.0204 34.8082 51.234 34.9831 52.4391C35.5711 56.4968 36.6948 60.4549 38.3237 64.2059C38.407 64.3926 38.4903 64.5793 38.5737 64.766L38.6986 65.0461C38.7403 65.1394 38.7861 65.2328 38.8277 65.3219C38.8861 65.4449 38.9402 65.5638 38.9985 65.6826C39.0693 65.8311 39.1401 65.9796 39.2151 66.1281C39.2235 66.1451 39.2318 66.1663 39.2443 66.1875C39.3068 66.3148 39.3651 66.4379 39.4317 66.5652C39.444 66.5929 39.4579 66.6198 39.4734 66.6458C39.5442 66.7901 39.6192 66.9386 39.6942 67.0829C39.7775 67.2356 39.8566 67.3926 39.9399 67.5454C40.1398 67.923 40.3481 68.2965 40.5605 68.6699C40.623 68.7802 40.6855 68.8905 40.7522 69.0009C40.8105 69.1027 40.8688 69.2045 40.9313 69.3064C40.9729 69.3743 41.0146 69.4464 41.0562 69.5143C41.1229 69.6289 41.1895 69.7392 41.2603 69.8538C41.4144 70.1041 41.5727 70.3545 41.7269 70.6048H41.731C41.8018 70.7194 41.8768 70.834 41.9518 70.9443V70.9485C42.1726 71.288 42.4016 71.6275 42.6307 71.9627C42.6313 71.9627 42.6318 71.9628 42.6323 71.963C42.6329 71.9632 42.6333 71.9635 42.6337 71.9639C42.6341 71.9643 42.6344 71.9648 42.6346 71.9653C42.6348 71.9658 42.6349 71.9664 42.6349 71.9669C42.8182 72.2385 43.0098 72.5016 43.1972 72.7647V72.7689C43.3222 72.9344 43.443 73.1041 43.568 73.2696C43.6679 73.4054 43.7721 73.5454 43.8762 73.6812C43.897 73.7109 43.922 73.7364 43.9428 73.7661V73.7703C43.972 73.8085 44.0011 73.8425 44.0303 73.8807C44.4718 74.4578 44.9273 75.0221 45.3966 75.5738L45.4715 75.6629C45.4965 75.6926 45.5257 75.7223 45.5507 75.7562C45.5923 75.8029 45.6298 75.8496 45.6715 75.8962C45.709 75.9429 45.7506 75.9896 45.7923 76.0363C48.2386 78.8436 51.0125 81.3359 54.0522 83.4579C54.4563 83.7422 54.8686 84.018 55.281 84.2853C55.3851 84.3532 55.4893 84.4211 55.5934 84.4848C55.6226 84.506 55.6559 84.5272 55.6851 84.5484C55.7434 84.5824 55.7975 84.6163 55.8558 84.6545C55.91 84.6884 55.9641 84.7224 56.0224 84.7563C56.2432 84.8964 56.4682 85.0322 56.6931 85.1679C56.7472 85.2019 56.8055 85.2358 56.8639 85.2698C56.918 85.2995 56.9763 85.3335 57.0346 85.3674C57.0346 85.3717 57.0346 85.3716 57.0388 85.3716H57.043V85.3759H57.0471C57.3262 85.5414 57.6095 85.7026 57.8969 85.8596C58.051 85.9445 58.2093 86.0336 58.3676 86.1142C58.7258 86.3136 59.0882 86.5046 59.4506 86.6871C59.5797 86.7507 59.713 86.8144 59.8421 86.8823C59.9504 86.9332 60.0587 86.9883 60.167 87.0393C60.2003 87.0562 60.2295 87.069 60.2586 87.0859C60.3503 87.1284 60.4378 87.1708 60.5294 87.2132C60.6294 87.2599 60.7293 87.3066 60.8251 87.3533C60.9376 87.4042 61.0459 87.4551 61.1584 87.5018C61.5749 87.6927 61.9956 87.8752 62.4163 88.0492C63.924 88.6788 65.4648 89.2227 67.0316 89.6786C67.1024 89.6998 67.1773 89.721 67.2523 89.7423C67.923 89.9332 68.5978 90.1072 69.2767 90.2642C70.4639 90.5443 71.6621 90.7734 72.8714 90.9516H72.8798C73.0256 90.9728 73.1672 90.994 73.313 91.0153C73.3255 91.0153 73.338 91.0195 73.3546 91.0195C73.3546 91.0238 73.3546 91.0238 73.3588 91.0195C73.5171 91.0407 73.6795 91.0619 73.8378 91.0832C73.8486 91.0864 73.8599 91.0878 73.8711 91.0874C74.0211 91.1086 74.1752 91.1256 74.3252 91.1426C74.4876 91.1595 74.65 91.1765 74.8125 91.1935C74.9375 91.2062 75.0624 91.2189 75.1874 91.2317C75.1981 91.2354 75.2094 91.2369 75.2207 91.2359C75.3332 91.2444 75.4456 91.2571 75.5581 91.2656H75.5748C75.6706 91.2741 75.7705 91.2826 75.8663 91.2911C77.0285 91.3845 78.1948 91.4269 79.3778 91.4269C80.6565 91.4269 81.927 91.3759 83.1808 91.2656H83.1933C83.464 91.2402 83.7306 91.2147 83.9972 91.1892C84.068 91.1807 84.1346 91.1765 84.2055 91.168C84.2179 91.168 84.2346 91.1638 84.2471 91.1638C84.2679 91.1595 84.2888 91.1595 84.3137 91.1553C84.325 91.1557 84.3363 91.1543 84.3471 91.151C84.4387 91.1426 84.5303 91.1298 84.6261 91.1213L84.9386 91.0832C85.0427 91.0704 85.1468 91.0534 85.251 91.0407C85.2759 91.0365 85.2968 91.0365 85.3218 91.0322C85.3968 91.0238 85.4717 91.011 85.5467 90.9983C85.5842 90.9941 85.6217 90.9898 85.655 90.9856C85.73 90.9728 85.8008 90.9644 85.8758 90.9516H85.8799C88.1656 90.6164 90.4219 90.0985 92.6279 89.4028C92.7445 89.3646 92.8611 89.3307 92.9777 89.2925C92.9819 89.2925 92.9861 89.2882 92.9902 89.2882C93.0236 89.2755 93.0611 89.267 93.0944 89.2543C93.4068 89.1525 93.715 89.0464 94.0233 88.9361C94.4481 88.7918 94.8688 88.6348 95.2895 88.4735C95.402 88.4269 95.5145 88.3844 95.6269 88.3377C95.856 88.2486 96.081 88.1553 96.3059 88.0619C96.6891 87.9049 97.0723 87.7394 97.4514 87.5697C97.8054 87.4084 98.1553 87.2472 98.5052 87.0775C98.5135 87.0732 98.526 87.0732 98.5344 87.0647C98.6135 87.0266 98.6926 86.9883 98.7676 86.9502H98.7718C100.69 86.0123 102.54 84.936 104.308 83.7295C104.874 83.3433 105.432 82.9445 105.982 82.5329C106.424 82.1976 106.857 81.8582 107.29 81.5102C109.427 79.7785 111.405 77.8526 113.201 75.7562V75.752C113.33 75.6077 113.451 75.4592 113.576 75.3107C113.596 75.2895 113.613 75.2683 113.63 75.2513C113.709 75.1537 113.784 75.0603 113.863 74.967V74.9627C113.967 74.8397 114.071 74.7124 114.171 74.5851C114.196 74.5554 114.217 74.5299 114.238 74.5045V74.5002C114.321 74.3984 114.4 74.2965 114.484 74.1905C114.525 74.1395 114.563 74.0886 114.604 74.0377V74.0334C114.85 73.7194 115.088 73.4054 115.325 73.0829C115.388 72.9981 115.45 72.909 115.517 72.8199C115.817 72.4082 116.108 71.9882 116.391 71.5681V71.5638C116.5 71.4068 116.604 71.2456 116.712 71.0886C116.816 70.9273 116.92 70.7661 117.024 70.6049C117.129 70.4351 117.237 70.2696 117.341 70.0999L117.354 70.0744C117.458 69.9132 117.562 69.7435 117.662 69.5779C117.741 69.4422 117.82 69.3106 117.899 69.1791C117.949 69.09 118.003 69.0009 118.053 68.9075C118.073 68.8788 118.091 68.849 118.107 68.8184C118.224 68.6105 118.341 68.4026 118.457 68.1946C118.595 67.9528 118.728 67.7067 118.861 67.4605C118.911 67.3587 118.966 67.2569 119.02 67.155C119.041 67.1211 119.057 67.0871 119.074 67.0532C119.136 66.9344 119.199 66.8113 119.257 66.6883C119.32 66.5694 119.382 66.4464 119.445 66.3233C119.503 66.2045 119.565 66.0815 119.624 65.9584C119.67 65.8651 119.711 65.7717 119.757 65.6783C119.76 65.6707 119.764 65.6636 119.769 65.6571C119.79 65.6105 119.811 65.568 119.828 65.5256C119.833 65.5191 119.837 65.512 119.84 65.5044C119.886 65.411 119.928 65.3134 119.974 65.2201C120.032 65.097 120.086 64.9697 120.144 64.8466C120.182 64.7618 120.224 64.6727 120.261 64.5836C120.315 64.4605 120.373 64.3374 120.423 64.2102C120.482 64.0828 120.536 63.9555 120.59 63.824C120.606 63.7923 120.62 63.7597 120.632 63.7264C120.661 63.667 120.682 63.6076 120.707 63.5482C120.773 63.3912 120.84 63.2299 120.902 63.0729C120.977 62.8947 121.048 62.7122 121.115 62.534C121.182 62.3685 121.244 62.1988 121.307 62.0291L121.332 61.9697C122.302 59.3655 123.038 56.6769 123.531 53.937V53.9328C123.809 52.3685 124.007 50.7907 124.126 49.2057C124.131 49.1166 124.139 49.0317 124.143 48.9469C124.218 47.8733 124.251 46.7955 124.251 45.7134C124.251 45.2339 124.243 44.7587 124.231 44.2834C123.94 34.344 120.461 24.7753 114.325 17.0412C114.192 16.8715 114.059 16.7017 113.921 16.532C113.784 16.3623 113.642 16.1968 113.505 16.0313C108.939 10.5838 103.18 6.30545 96.6926 3.54124C90.2054 0.777023 83.1715 -0.395729 76.1578 0.117515C69.1441 0.630759 62.3469 2.81563 56.3142 6.49602C50.2815 10.1764 45.182 15.2493 41.427 21.3058C41.2229 21.6367 41.0188 21.972 40.823 22.3072C40.6231 22.6467 40.4314 22.9861 40.2398 23.3299C36.4663 30.163 34.4891 37.8732 34.4999 45.7134Z" fill="#EBF2ED"/>
<path d="M77.5941 15.8121C84.9734 17.741 92.5354 18.8529 100.149 19.1284C101.3 19.1923 102.454 19.1843 103.605 19.1045C106.133 18.8879 108.298 18.0784 110.71 17.6361C111.869 17.4241 113.16 17.269 114.328 17.0399C114.058 16.699 113.783 16.3624 113.504 16.0298C110.987 16.2465 108.431 16.9555 105.884 17.285C101.554 17.8459 96.7033 17.22 93.4211 15.6764C91.8287 14.9275 90.6089 13.9926 89.0221 13.2402C88.8062 13.1274 88.5724 13.0544 88.3316 13.0248C87.8741 13.0108 87.4221 13.1302 87.029 13.3691C84.3667 14.7382 80.5015 15.8509 76.9137 15.2387C76.6463 15.4519 77.1543 15.6947 77.5941 15.8121Z" fill="white"/>
<path d="M61.718 20.6304C61.6853 20.6243 61.6524 20.6195 61.6196 20.6137C61.7575 20.5267 61.8872 20.4271 62.0073 20.3162L61.718 20.6304Z" fill="white"/>
<path d="M40.2407 23.3317C41.7391 23.4536 43.2454 23.5445 44.7595 23.6041C45.9108 23.6674 47.0648 23.6595 48.2152 23.5802C50.7432 23.3624 52.9086 22.5542 55.3202 22.1118C57.5303 21.7071 60.2161 21.5122 61.6194 20.6139C57.9925 19.9743 54.2347 21.2762 50.4947 21.7607C47.4696 22.1397 44.403 21.9854 41.4292 21.3047C41.0151 21.9682 40.619 22.6439 40.2407 23.3317Z" fill="white"/>
<path d="M58.3677 86.1142C58.7259 86.3136 59.0883 86.5046 59.4507 86.687C59.5798 86.7507 59.7131 86.8143 59.8422 86.8822C59.9505 86.9332 60.0588 86.9883 60.1671 87.0392C60.2004 87.0562 60.2296 87.0689 60.2588 87.0859C60.3504 87.1284 60.4379 87.1708 60.5295 87.2132C60.6295 87.2599 60.7295 87.3066 60.8253 87.3533C60.9377 87.4042 61.046 87.4551 61.1585 87.5018C61.575 87.6927 61.9957 87.8752 62.4164 88.0492C63.9241 88.6787 65.4649 89.2227 67.0317 89.6786C67.1025 89.6998 67.1775 89.721 67.2524 89.7423C67.9231 89.9332 68.5979 90.1072 69.2768 90.2642C70.464 90.5443 71.6622 90.7734 72.8716 90.9516H72.8799C73.0257 90.9728 73.1673 90.994 73.3131 91.0153C73.3256 91.0153 73.3381 91.0195 73.3548 91.0195C73.3548 91.0237 73.3547 91.0237 73.3589 91.0195C73.5172 91.0407 73.6796 91.0619 73.8379 91.0831C73.8487 91.0864 73.86 91.0878 73.8713 91.0874C74.0212 91.1086 74.1753 91.1256 74.3253 91.1425C74.4877 91.1595 74.6502 91.1765 74.8126 91.1935C74.9376 91.2062 75.0626 91.2189 75.1875 91.2317C75.1982 91.2354 75.2096 91.2369 75.2208 91.2359C75.3333 91.2444 75.4458 91.2571 75.5582 91.2656H75.5749C75.6707 91.2741 75.7707 91.2826 75.8665 91.2911C77.0286 91.3844 78.1949 91.4268 79.3779 91.4268C80.6567 91.4268 81.9271 91.3759 83.1809 91.2656H83.1934C83.4641 91.2401 83.7307 91.2147 83.9973 91.1892C84.0681 91.1807 84.1348 91.1765 84.2056 91.168C84.2181 91.168 84.2347 91.1638 84.2472 91.1638C84.268 91.1595 84.2889 91.1595 84.3139 91.1553C84.3251 91.1557 84.3364 91.1543 84.3472 91.151C84.4388 91.1425 84.5305 91.1298 84.6263 91.1213L84.9387 91.0831C85.0428 91.0704 85.1469 91.0534 85.2511 91.0407C85.2761 91.0365 85.2969 91.0365 85.3219 91.0322C85.3969 91.0237 85.4718 91.011 85.5468 90.9983C85.5843 90.994 85.6218 90.9898 85.6551 90.9856C85.7301 90.9728 85.8009 90.9643 85.8759 90.9516H85.88C88.1657 90.6164 90.422 90.0985 92.628 89.4028C92.7446 89.3646 92.8612 89.3306 92.9779 89.2925C92.44 86.7373 91.3328 84.3423 89.7417 82.2924C88.1506 80.2426 86.1182 78.5928 83.8015 77.4705C84.3745 76.9145 84.7706 76.1961 84.9387 75.4082C85.0468 74.9004 85.0554 74.3759 84.9639 73.8646C84.8724 73.3534 84.6826 72.8657 84.4055 72.4295C83.865 71.5839 83.017 70.9917 82.0479 70.783L75.8748 69.4676C74.8811 69.2702 73.851 69.4805 73.0086 70.0526C72.1662 70.6247 71.5796 71.5124 71.3762 72.5228C71.3132 72.8325 71.2853 73.1486 71.2929 73.4648C65.3489 77.496 61.071 81.6756 58.3677 86.1142Z" fill="#0B5E22"/>
<path d="M82.7886 65.2226C91.0871 65.2226 97.8144 58.3694 97.8144 49.9156C97.8144 41.4617 91.0871 34.6085 82.7886 34.6085C74.49 34.6085 67.7627 41.4617 67.7627 49.9156C67.7627 58.3694 74.49 65.2226 82.7886 65.2226Z" fill="#FFCFBF"/>
<path d="M80.6534 64.4046C76.8917 65.4395 72.7445 64.0635 69.8088 61.4534C66.8732 58.8433 65.0368 55.1448 63.9787 51.3246C63.2038 48.5267 62.8364 45.421 64.0592 42.7943C65.2821 40.1676 68.5733 38.3955 71.1125 39.7223C69.5461 37.8632 70.3286 34.7882 72.1581 33.1978C73.9875 31.6074 76.4996 31.1514 78.8921 30.9022C82.3643 30.5405 85.951 30.5 89.2551 31.6459C92.5592 32.7919 95.5613 35.2973 96.5953 38.6933C97.6515 39.1942 98.8409 39.3242 99.9773 39.0628C101.114 38.8014 102.133 38.1635 102.875 37.2489C103.067 38.2993 102.913 39.3847 102.438 40.3372C101.963 41.2897 101.193 42.0561 100.247 42.5179L105.31 40.8459C106.18 42.7232 104.655 45.0468 102.704 45.648C100.753 46.2492 98.6469 45.592 96.7957 44.7235C94.9444 43.8549 93.1503 42.7568 91.1394 42.4181C89.1285 42.0793 86.7664 42.7375 85.8363 44.5851C85.3491 45.5527 85.3237 46.686 85.0408 47.7347C84.758 48.7833 84.0415 49.8705 82.9773 49.9564C82.3049 50.0106 81.6466 49.6458 80.9761 49.7203C80.5647 49.8029 80.1858 50.0059 79.8858 50.3044C79.5858 50.603 79.3779 50.9842 79.2873 51.4013C79.1204 52.2384 79.1183 53.1009 79.2813 53.9388L80.5673 63.9522L80.6534 64.4046Z" fill="#2F2E41"/>
</svg>
